Bar_None
Beat_0
Note_On_63
Note_Velocity_48
Note_Duration_120
Beat_1
Note_On_72
Note_Velocity_52
Note_Duration_240
Beat_1
Note_On_48
Note_Velocity_32
Note_Duration_120
Beat_1
Note_On_75
Note_Velocity_48
Note_Duration_120
Beat_2
Note_On_80
Note_Velocity_76
Note_Duration_120
Beat_2
Note_On_51
Note_Velocity_36
Note_Duration_120
Beat_4
Note_On_56
Note_Velocity_16
Note_Duration_60
Beat_4
Note_On_75
Note_Velocity_48
Note_Duration_60
Beat_4
Note_On_60
Note_Velocity_28
Note_Duration_60
Beat_5
Note_On_63
Note_Velocity_52
Note_Duration_120
Beat_6
Note_On_72
Note_Velocity_56
Note_Duration_120
Beat_7
Note_On_75
Note_Velocity_64
Note_Duration_60
Beat_8
Chord_G#:maj
Beat_8
Note_On_39
Note_Velocity_44
Note_Duration_180
Beat_9
Note_On_84
Note_Velocity_72
Note_Duration_60
Beat_11
Note_On_51
Note_Velocity_20
Note_Duration_180
Beat_11
Note_On_68
Note_Velocity_36
Note_Duration_60
Beat_12
Note_On_72
Note_Velocity_48
Note_Duration_60
Beat_12
Note_On_56
Note_Velocity_32
Note_Duration_60
Beat_13
Note_On_63
Note_Velocity_44
Note_Duration_240
Beat_13
Note_On_60
Note_Velocity_36
Note_Duration_60
Beat_13
Note_On_68
Note_Velocity_36
Note_Duration_180
Beat_14
Note_On_72
Note_Velocity_52
Note_Duration_120
Beat_14
Note_On_48
Note_Velocity_36
Note_Duration_120
Beat_15
Note_On_75
Note_Velocity_68
Note_Duration_420
Bar_None
Beat_0
Chord_D#:dim
Beat_0
Note_On_68
Note_Velocity_36
Note_Duration_60
Beat_0
Note_On_72
Note_Velocity_52
Note_Duration_60
Beat_1
Note_On_56
Note_Velocity_4
Note_Duration_60
Beat_1
Note_On_60
Note_Velocity_44
Note_Duration_60
Beat_1
Note_On_63
Note_Velocity_52
Note_Duration_180
Beat_2
Note_On_68
Note_Velocity_44
Note_Duration_120
Beat_3
Note_On_72
Note_Velocity_56
Note_Duration_180
Beat_4
Note_On_39
Note_Velocity_36
Note_Duration_180
Beat_4
Note_On_75
Note_Velocity_68
Note_Duration_360
Beat_6
Note_On_69
Note_Velocity_52
Note_Duration_120
Beat_6
Note_On_57
Note_Velocity_48
Note_Duration_60
Beat_6
Note_On_72
Note_Velocity_52
Note_Duration_60
Beat_7
Note_On_63
Note_Velocity_48
Note_Duration_60
Beat_7
Note_On_60
Note_Velocity_48
Note_Duration_60
Beat_8
Note_On_69
Note_Velocity_52
Note_Duration_420
Beat_8
Note_On_57
Note_Velocity_24
Note_Duration_60
Beat_8
Note_On_72
Note_Velocity_56
Note_Duration_180
Beat_9
Note_On_51
Note_Velocity_36
Note_Duration_180
Beat_9
Note_On_77
Note_Velocity_76
Note_Duration_180
Beat_11
Note_On_60
Note_Velocity_36
Note_Duration_60
Beat_11
Note_On_72
Note_Velocity_60
Note_Duration_120
Beat_12
Note_On_63
Note_Velocity_60
Note_Duration_120
Beat_12
Note_On_51
Note_Velocity_48
Note_Duration_60
Beat_13
Note_On_69
Note_Velocity_64
Note_Duration_540
Beat_13
Note_On_72
Note_Velocity_64
Note_Duration_240
Beat_14
Note_On_39
Note_Velocity_60
Note_Duration_60
Beat_15
Note_On_78
Note_Velocity_80
Note_Duration_180
Bar_None
Beat_0
Chord_D#:dim
Beat_0
Note_On_57
Note_Velocity_44
Note_Duration_60
Beat_0
Note_On_72
Note_Velocity_60
Note_Duration_120
Beat_1
Note_On_60
Note_Velocity_40
Note_Duration_60
Beat_1
Note_On_63
Note_Velocity_60
Note_Duration_60
Beat_2
Note_On_57
Note_Velocity_40
Note_Duration_300
Beat_2
Note_On_69
Note_Velocity_56
Note_Duration_240
Beat_3
Note_On_72
Note_Velocity_64
Note_Duration_180
Beat_3
Note_On_51
Note_Velocity_24
Note_Duration_60
Beat_4
Note_On_77
Note_Velocity_76
Note_Duration_120
Beat_4
Note_On_65
Note_Velocity_40
Note_Duration_60
Beat_5
Note_On_57
Note_Velocity_24
Note_Duration_120
Beat_5
Note_On_69
Note_Velocity_44
Note_Duration_60
Beat_5
Note_On_72
Note_Velocity_44
Note_Duration_60
Beat_6
Note_On_51
Note_Velocity_52
Note_Duration_60
Beat_6
Note_On_63
Note_Velocity_60
Note_Duration_60
Beat_7
Note_On_69
Note_Velocity_64
Note_Duration_60
Beat_7
Note_On_72
Note_Velocity_72
Note_Duration_180
Beat_8
Chord_D#:dom
Beat_8
Note_On_39
Note_Velocity_56
Note_Duration_180
Beat_8
Note_On_77
Note_Velocity_72
Note_Duration_180
Beat_10
Note_On_70
Note_Velocity_52
Note_Duration_120
Beat_10
Note_On_58
Note_Velocity_56
Note_Duration_60
Beat_11
Note_On_73
Note_Velocity_52
Note_Duration_120
Beat_11
Note_On_65
Note_Velocity_52
Note_Duration_60
Beat_11
Note_On_61
Note_Velocity_64
Note_Duration_60
Beat_12
Note_On_58
Note_Velocity_56
Note_Duration_180
Beat_12
Note_On_70
Note_Velocity_64
Note_Duration_240
Beat_13
Note_On_73
Note_Velocity_68
Note_Duration_120
Beat_14
Note_On_51
Note_Velocity_36
Note_Duration_60
Beat_14
Note_On_79
Note_Velocity_84
Note_Duration_180
Beat_14
Note_On_58
Note_Velocity_40
Note_Duration_180
Beat_15
Note_On_70
Note_Velocity_52
Note_Duration_120
Beat_15
Note_On_73
Note_Velocity_76
Note_Duration_120
Beat_15
Note_On_61
Note_Velocity_44
Note_Duration_60
Bar_None
Beat_0
Chord_F:dim
Beat_0
Note_On_51
Note_Velocity_56
Note_Duration_60
Beat_0
Note_On_65
Note_Velocity_68
Note_Duration_180
Beat_1
Note_On_70
Note_Velocity_72
Note_Duration_120
Beat_1
Note_On_73
Note_Velocity_76
Note_Duration_240
Beat_2
Note_On_39
Note_Velocity_52
Note_Duration_240
Beat_3
Note_On_80
Note_Velocity_84
Note_Duration_300
Beat_5
Note_On_71
Note_Velocity_52
Note_Duration_120
Beat_5
Note_On_59
Note_Velocity_32
Note_Duration_60
Beat_5
Note_On_74
Note_Velocity_52
Note_Duration_120
Beat_6
Note_On_62
Note_Velocity_60
Note_Duration_60
Beat_6
Note_On_65
Note_Velocity_56
Note_Duration_120
Beat_7
Note_On_71
Note_Velocity_56
Note_Duration_180
Beat_7
Note_On_59
Note_Velocity_32
Note_Duration_180
Beat_7
Note_On_74
Note_Velocity_64
Note_Duration_120
Beat_8
Chord_D#:aug
Beat_8
Note_On_51
Note_Velocity_48
Note_Duration_60
Beat_8
Note_On_79
Note_Velocity_88
Note_Duration_240
Beat_9
Note_On_65
Note_Velocity_20
Note_Duration_60
Beat_9
Note_On_59
Note_Velocity_52
Note_Duration_60
Beat_10
Note_On_74
Note_Velocity_68
Note_Duration_120
Beat_10
Note_On_71
Note_Velocity_36
Note_Duration_60
Beat_10
Note_On_51
Note_Velocity_60
Note_Duration_60
Beat_10
Note_On_65
Note_Velocity_68
Note_Duration_120
Beat_11
Note_On_71
Note_Velocity_60
Note_Duration_120
Beat_12
Note_On_74
Note_Velocity_72
Note_Duration_180
Beat_12
Note_On_39
Note_Velocity_56
Note_Duration_180
Beat_13
Note_On_79
Note_Velocity_84
Note_Duration_240
Beat_15
Note_On_72
Note_Velocity_52
Note_Duration_60
Beat_15
Note_On_75
Note_Velocity_64
Note_Duration_120
Bar_None
Beat_0
Chord_D#:dim
Beat_0
Note_On_60
Note_Velocity_20
Note_Duration_60
Beat_0
Note_On_63
Note_Velocity_76
Note_Duration_60
Beat_1
Note_On_72
Note_Velocity_68
Note_Duration_180
Beat_1
Note_On_75
Note_Velocity_76
Note_Duration_120
Beat_1
Note_On_60
Note_Velocity_16
Note_Duration_60
Beat_2
Note_On_80
Note_Velocity_92
Note_Duration_360
Beat_2
Note_On_51
Note_Velocity_48
Note_Duration_120
Beat_3
Note_On_60
Note_Velocity_40
Note_Duration_60
Beat_3
Note_On_72
Note_Velocity_48
Note_Duration_120
Beat_4
Note_On_63
Note_Velocity_52
Note_Duration_60
Beat_4
Note_On_75
Note_Velocity_64
Note_Duration_120
Beat_4
Note_On_68
Note_Velocity_72
Note_Duration_120
Beat_4
Note_On_51
Note_Velocity_60
Note_Duration_60
Beat_5
Note_On_72
Note_Velocity_72
Note_Duration_240
Beat_6
Note_On_75
Note_Velocity_80
Note_Duration_180
Beat_6
Note_On_39
Note_Velocity_56
Note_Duration_120
Beat_7
Note_On_81
Note_Velocity_84
Note_Duration_240
Beat_8
Note_On_72
Note_Velocity_72
Note_Duration_120
Beat_9
Note_On_75
Note_Velocity_64
Note_Duration_120
Beat_9
Note_On_60
Note_Velocity_40
Note_Duration_60
Beat_10
Note_On_69
Note_Velocity_68
Note_Duration_180
Beat_10
Note_On_63
Note_Velocity_52
Note_Duration_60
Beat_11
Note_On_72
Note_Velocity_68
Note_Duration_60
Beat_11
Note_On_60
Note_Velocity_40
Note_Duration_60
Beat_11
Note_On_75
Note_Velocity_72
Note_Duration_60
Beat_13
Note_On_51
Note_Velocity_48
Note_Duration_180
Beat_14
Note_On_90
Note_Velocity_84
Note_Duration_300
Beat_15
Note_On_60
Note_Velocity_40
Note_Duration_120
Beat_15
Note_On_81
Note_Velocity_52
Note_Duration_120
Bar_None
Beat_0
Chord_C:dim
Beat_0
Note_On_87
Note_Velocity_20
Note_Duration_120
Beat_0
Note_On_63
Note_Velocity_48
Note_Duration_180
Beat_0
Note_On_84
Note_Velocity_40
Note_Duration_60
Beat_1
Note_On_75
Note_Velocity_60
Note_Duration_120
Beat_2
Note_On_81
Note_Velocity_56
Note_Duration_120
Beat_3
Note_On_84
Note_Velocity_64
Note_Duration_300
Beat_4
Note_On_51
Note_Velocity_32
Note_Duration_300
Beat_5
Note_On_89
Note_Velocity_76
Note_Duration_120
Beat_6
Note_On_58
Note_Velocity_40
Note_Duration_120
Beat_7
Note_On_77
Note_Velocity_52
Note_Duration_120
Beat_8
Chord_A#:dom
Beat_8
Note_On_62
Note_Velocity_24
Note_Duration_120
Beat_8
Note_On_80
Note_Velocity_56
Note_Duration_120
Beat_9
Note_On_68
Note_Velocity_28
Note_Duration_60
Beat_9
Note_On_70
Note_Velocity_52
Note_Duration_180
Beat_10
Note_On_58
Note_Velocity_44
Note_Duration_120
Beat_10
Note_On_77
Note_Velocity_52
Note_Duration_240
Beat_11
Note_On_80
Note_Velocity_56
Note_Duration_180
Beat_11
Note_On_51
Note_Velocity_40
Note_Duration_120
Beat_12
Note_On_82
Note_Velocity_76
Note_Duration_420
Beat_12
Note_On_58
Note_Velocity_32
Note_Duration_60
Beat_13
Note_On_77
Note_Velocity_24
Note_Duration_60
Beat_13
Note_On_80
Note_Velocity_56
Note_Duration_120
Beat_14
Note_On_62
Note_Velocity_0
Note_Duration_60
Beat_14
Note_On_70
Note_Velocity_56
Note_Duration_120
Beat_14
Note_On_68
Note_Velocity_24
Note_Duration_60
Beat_15
Note_On_77
Note_Velocity_48
Note_Duration_180
Beat_15
Note_On_58
Note_Velocity_40
Note_Duration_120
Bar_None
Beat_0
Chord_A#:dim
Beat_0
Note_On_80
Note_Velocity_52
Note_Duration_600
Beat_1
Note_On_51
Note_Velocity_36
Note_Duration_180
Beat_1
Note_On_85
Note_Velocity_76
Note_Duration_180
Beat_3
Note_On_58
Note_Velocity_44
Note_Duration_120
Beat_3
Note_On_76
Note_Velocity_32
Note_Duration_60
Beat_4
Note_On_61
Note_Velocity_32
Note_Duration_60
Beat_5
Note_On_70
Note_Velocity_48
Note_Duration_240
Beat_5
Note_On_68
Note_Velocity_36
Note_Duration_60
Beat_6
Note_On_61
Note_Velocity_36
Note_Duration_60
Beat_7
Note_On_76
Note_Velocity_44
Note_Duration_120
Beat_7
Note_On_58
Note_Velocity_32
Note_Duration_120
Beat_8
Note_On_80
Note_Velocity_60
Note_Duration_360
Beat_9
Note_On_51
Note_Velocity_32
Note_Duration_360
Beat_10
Note_On_79
Note_Velocity_60
Note_Duration_360
Beat_12
Note_On_58
Note_Velocity_40
Note_Duration_120
Beat_12
Note_On_73
Note_Velocity_40
Note_Duration_180
Beat_13
Note_On_75
Note_Velocity_48
Note_Duration_60
Beat_13
Note_On_61
Note_Velocity_36
Note_Duration_60
Beat_14
Note_On_67
Note_Velocity_32
Note_Duration_180
Beat_14
Note_On_63
Note_Velocity_40
Note_Duration_60
Beat_15
Note_On_61
Note_Velocity_16
Note_Duration_60
Bar_None
Beat_0
Chord_G#:maj
Beat_0
Note_On_73
Note_Velocity_44
Note_Duration_180
Beat_0
Note_On_58
Note_Velocity_40
Note_Duration_60
Beat_1
Note_On_75
Note_Velocity_52
Note_Duration_420
Beat_4
Note_On_44
Note_Velocity_36
Note_Duration_360
Beat_5
Note_On_80
Note_Velocity_60
Note_Duration_120
Beat_7
Note_On_51
Note_Velocity_32
Note_Duration_120
Beat_8
Note_On_68
Note_Velocity_20
Note_Duration_60
Beat_9
Note_On_56
Note_Velocity_40
Note_Duration_60
Beat_9
Note_On_72
Note_Velocity_44
Note_Duration_120
Beat_10
Note_On_60
Note_Velocity_32
Note_Duration_60
Beat_10
Note_On_63
Note_Velocity_40
Note_Duration_240
Beat_11
Note_On_68
Note_Velocity_48
Note_Duration_180
Beat_12
Note_On_72
Note_Velocity_48
Note_Duration_120
Beat_12
Note_On_51
Note_Velocity_32
Note_Duration_60
Beat_13
Note_On_75
Note_Velocity_68
Note_Duration_360
Beat_13
Note_On_44
Note_Velocity_20
Note_Duration_60
Beat_14
Note_On_51
Note_Velocity_40
Note_Duration_120
Beat_14
Note_On_68
Note_Velocity_28
Note_Duration_120
Beat_14
Note_On_72
Note_Velocity_52
Note_Duration_120
Beat_15
Note_On_63
Note_Velocity_48
Note_Duration_180
Beat_15
Note_On_56
Note_Velocity_12
Note_Duration_60
Bar_None
Beat_0
Chord_G#:maj
Beat_0
Note_On_68
Note_Velocity_56
Note_Duration_180
Beat_0
Note_On_51
Note_Velocity_48
Note_Duration_60
Beat_1
Note_On_72
Note_Velocity_56
Note_Duration_120
Beat_1
Note_On_44
Note_Velocity_32
Note_Duration_60
Beat_1
Note_On_75
Note_Velocity_76
Note_Duration_360
Beat_2
Note_On_51
Note_Velocity_40
Note_Duration_120
Beat_3
Note_On_68
Note_Velocity_36
Note_Duration_60
Beat_3
Note_On_72
Note_Velocity_48
Note_Duration_60
Beat_4
Note_On_63
Note_Velocity_56
Note_Duration_240
Beat_4
Note_On_56
Note_Velocity_24
Note_Duration_60
Beat_4
Note_On_60
Note_Velocity_32
Note_Duration_60
Beat_5
Note_On_68
Note_Velocity_52
Note_Duration_180
Beat_5
Note_On_51
Note_Velocity_40
Note_Duration_60
Beat_5
Note_On_72
Note_Velocity_56
Note_Duration_120
Beat_6
Note_On_75
Note_Velocity_80
Note_Duration_300
Beat_6
Note_On_44
Note_Velocity_36
Note_Duration_60
Beat_7
Note_On_51
Note_Velocity_40
Note_Duration_120
Beat_7
Note_On_68
Note_Velocity_44
Note_Duration_60
Beat_8
Chord_G#:maj
Beat_8
Note_On_72
Note_Velocity_52
Note_Duration_60
Beat_8
Note_On_63
Note_Velocity_52
Note_Duration_120
Beat_9
Note_On_56
Note_Velocity_32
Note_Duration_60
Beat_9
Note_On_60
Note_Velocity_24
Note_Duration_60
Beat_9
Note_On_68
Note_Velocity_60
Note_Duration_120
Beat_10
Note_On_51
Note_Velocity_36
Note_Duration_60
Beat_10
Note_On_72
Note_Velocity_68
Note_Duration_240
Beat_11
Note_On_44
Note_Velocity_44
Note_Duration_180
Beat_11
Note_On_77
Note_Velocity_72
Note_Duration_240
Beat_12
Note_On_51
Note_Velocity_48
Note_Duration_120
Beat_13
Note_On_70
Note_Velocity_52
Note_Duration_180
Beat_13
Note_On_73
Note_Velocity_56
Note_Duration_120
Beat_14
Note_On_55
Note_Velocity_32
Note_Duration_120
Beat_14
Note_On_61
Note_Velocity_44
Note_Duration_60
Beat_14
Note_On_63
Note_Velocity_56
Note_Duration_240
Beat_15
Note_On_51
Note_Velocity_40
Note_Duration_120
Beat_15
Note_On_70
Note_Velocity_64
Note_Duration_180
Bar_None
Beat_0
Note_On_73
Note_Velocity_64
Note_Duration_120
Beat_0
Note_On_44
Note_Velocity_40
Note_Duration_60
Beat_0
Note_On_75
Note_Velocity_76
Note_Duration_240
Beat_1
Note_On_51
Note_Velocity_44
Note_Duration_60
Beat_2
Note_On_70
Note_Velocity_24
Note_Duration_60
Beat_2
Note_On_55
Note_Velocity_24
Note_Duration_60
Beat_3
Note_On_63
Note_Velocity_56
Note_Duration_120
Beat_3
Note_On_61
Note_Velocity_40
Note_Duration_60
Beat_4
Note_On_70
Note_Velocity_60
Note_Duration_120
Beat_4
Note_On_73
Note_Velocity_56
Note_Duration_60
Beat_5
Note_On_51
Note_Velocity_36
Note_Duration_120
Beat_6
Note_On_44
Note_Velocity_40
Note_Duration_180
Beat_6
Note_On_84
Note_Velocity_68
Note_Duration_60
Beat_8
Chord_G#:maj
Beat_8
Note_On_51
Note_Velocity_36
Note_Duration_120
Beat_9
Note_On_55
Note_Velocity_32
Note_Duration_60
Beat_9
Note_On_70
Note_Velocity_28
Note_Duration_60
Beat_9
Note_On_73
Note_Velocity_44
Note_Duration_60
Beat_10
Note_On_61
Note_Velocity_4
Note_Duration_60
Beat_10
Note_On_63
Note_Velocity_44
Note_Duration_60
Beat_11
Note_On_70
Note_Velocity_48
Note_Duration_180
Beat_11
Note_On_51
Note_Velocity_28
Note_Duration_60
Beat_11
Note_On_73
Note_Velocity_48
Note_Duration_120
Beat_12
Note_On_44
Note_Velocity_44
Note_Duration_60
Beat_12
Note_On_79
Note_Velocity_72
Note_Duration_120
Beat_13
Note_On_51
Note_Velocity_36
Note_Duration_60
Beat_14
Note_On_70
Note_Velocity_4
Note_Duration_60
Beat_14
Note_On_73
Note_Velocity_36
Note_Duration_60
Beat_14
Note_On_55
Note_Velocity_8
Note_Duration_60
Beat_15
Note_On_63
Note_Velocity_52
Note_Duration_120
Beat_15
Note_On_61
Note_Velocity_20
Note_Duration_60
Bar_None
Beat_0
Note_On_70
Note_Velocity_48
Note_Duration_180
Beat_0
Note_On_51
Note_Velocity_36
Note_Duration_120
Beat_1
Note_On_73
Note_Velocity_56
Note_Duration_300
Beat_2
Note_On_44
Note_Velocity_36
Note_Duration_300
Beat_3
Note_On_80
Note_Velocity_60
Note_Duration_180
Beat_5
Note_On_51
Note_Velocity_36
Note_Duration_120
Beat_6
Note_On_68
Note_Velocity_40
Note_Duration_60
Beat_7
Note_On_56
Note_Velocity_32
Note_Duration_60
Beat_7
Note_On_72
Note_Velocity_44
Note_Duration_60
Beat_8
Chord_G#:maj
Beat_8
Note_On_60
Note_Velocity_44
Note_Duration_60
Beat_8
Note_On_63
Note_Velocity_44
Note_Duration_180
Beat_9
Note_On_51
Note_Velocity_36
Note_Duration_60
Beat_9
Note_On_68
Note_Velocity_40
Note_Duration_180
Beat_9
Note_On_72
Note_Velocity_48
Note_Duration_120
Beat_10
Note_On_44
Note_Velocity_32
Note_Duration_120
Beat_11
Note_On_75
Note_Velocity_64
Note_Duration_360
Beat_12
Note_On_51
Note_Velocity_40
Note_Duration_120
Beat_12
Note_On_72
Note_Velocity_48
Note_Duration_120
Beat_13
Note_On_63
Note_Velocity_44
Note_Duration_180
Beat_13
Note_On_60
Note_Velocity_36
Note_Duration_60
Beat_14
Note_On_68
Note_Velocity_48
Note_Duration_180
Beat_14
Note_On_51
Note_Velocity_32
Note_Duration_60
Beat_14
Note_On_72
Note_Velocity_60
Note_Duration_120
Bar_None
Beat_0
Note_On_75
Note_Velocity_76
Note_Duration_360
Beat_0
Note_On_44
Note_Velocity_28
Note_Duration_60
Beat_0
Note_On_51
Note_Velocity_40
Note_Duration_120
Beat_1
Note_On_68
Note_Velocity_32
Note_Duration_60
Beat_1
Note_On_72
Note_Velocity_44
Note_Duration_60
Beat_2
Note_On_63
Note_Velocity_48
Note_Duration_120
Beat_2
Note_On_60
Note_Velocity_8
Note_Duration_60
Beat_3
Note_On_68
Note_Velocity_48
Note_Duration_240
Beat_3
Note_On_51
Note_Velocity_32
Note_Duration_60
Beat_3
Note_On_72
Note_Velocity_56
Note_Duration_180
Beat_4
Note_On_44
Note_Velocity_36
Note_Duration_60
Beat_4
Note_On_75
