Bar_None
Beat_0
Chord_G#:min
Beat_0
Note_On_78
Note_Velocity_56
Note_Duration_60
Beat_0
Note_On_83
Note_Velocity_56
Note_Duration_60
Beat_0
Note_On_68
Note_Velocity_44
Note_Duration_60
Beat_0
Note_On_63
Note_Velocity_36
Note_Duration_60
Beat_1
Note_On_78
Note_Velocity_64
Note_Duration_60
Beat_2
Note_On_83
Note_Velocity_48
Note_Duration_60
Beat_2
Note_On_71
Note_Velocity_52
Note_Duration_60
Beat_3
Note_On_54
Note_Velocity_44
Note_Duration_60
Beat_3
Note_On_80
Note_Velocity_68
Note_Duration_60
Beat_4
Note_On_90
Note_Velocity_44
Note_Duration_60
Beat_4
Note_On_78
Note_Velocity_56
Note_Duration_120
Beat_4
Note_On_83
Note_Velocity_24
Note_Duration_60
Beat_4
Note_On_85
Note_Velocity_40
Note_Duration_60
Beat_4
Note_On_90
Note_Velocity_64
Note_Duration_60
Beat_5
Note_On_59
Note_Velocity_48
Note_Duration_60
Beat_6
Note_On_90
Note_Velocity_60
Note_Duration_60
Beat_6
Note_On_78
Note_Velocity_64
Note_Duration_60
Beat_6
Note_On_71
Note_Velocity_48
Note_Duration_60
Beat_7
Note_On_86
Note_Velocity_72
Note_Duration_60
Beat_7
Note_On_90
Note_Velocity_68
Note_Duration_60
Beat_7
Note_On_87
Note_Velocity_56
Note_Duration_60
Beat_8
Chord_F#:dom
Beat_8
Note_On_73
Note_Velocity_68
Note_Duration_60
Beat_8
Note_On_82
Note_Velocity_76
Note_Duration_60
Beat_8
Note_On_61
Note_Velocity_48
Note_Duration_60
Beat_8
Note_On_66
Note_Velocity_40
Note_Duration_60
Beat_8
Note_On_78
Note_Velocity_76
Note_Duration_60
Beat_9
Note_On_85
Note_Velocity_60
Note_Duration_60
Beat_9
Note_On_85
Note_Velocity_64
Note_Duration_60
Beat_10
Note_On_66
Note_Velocity_40
Note_Duration_60
Beat_10
Note_On_82
Note_Velocity_72
Note_Duration_60
Beat_10
Note_On_90
Note_Velocity_64
Note_Duration_60
Beat_11
Note_On_59
Note_Velocity_52
Note_Duration_60
Beat_11
Note_On_76
Note_Velocity_52
Note_Duration_60
Beat_11
Note_On_70
Note_Velocity_36
Note_Duration_60
Beat_11
Note_On_82
Note_Velocity_60
Note_Duration_60
Beat_12
Note_On_82
Note_Velocity_64
Note_Duration_60
Beat_12
Note_On_90
Note_Velocity_60
Note_Duration_60
Beat_13
Note_On_83
Note_Velocity_40
Note_Duration_60
Beat_13
Note_On_56
Note_Velocity_56
Note_Duration_60
Beat_13
Note_On_68
Note_Velocity_56
Note_Duration_60
Beat_14
Note_On_80
Note_Velocity_44
Note_Duration_60
Beat_15
Note_On_85
Note_Velocity_52
Note_Duration_60
Beat_15
Note_On_82
Note_Velocity_52
Note_Duration_60
Beat_15
Note_On_95
Note_Velocity_64
Note_Duration_60
Bar_None
Beat_0
Chord_D#:min
Beat_0
Note_On_88
Note_Velocity_52
Note_Duration_60
Beat_0
Note_On_64
Note_Velocity_48
Note_Duration_60
Beat_0
Note_On_70
Note_Velocity_44
Note_Duration_60
Beat_1
Note_On_79
Note_Velocity_40
Note_Duration_60
Beat_1
Note_On_94
Note_Velocity_60
Note_Duration_60
Beat_2
Note_On_90
Note_Velocity_52
Note_Duration_60
Beat_3
Note_On_63
Note_Velocity_32
Note_Duration_60
Beat_3
Note_On_66
Note_Velocity_24
Note_Duration_120
Beat_4
Note_On_85
Note_Velocity_68
Note_Duration_60
Beat_5
Note_On_97
Note_Velocity_48
Note_Duration_60
Beat_5
Note_On_90
Note_Velocity_64
Note_Duration_60
Beat_6
Note_On_54
Note_Velocity_48
Note_Duration_60
Beat_6
Note_On_85
Note_Velocity_60
Note_Duration_60
Beat_7
Note_On_94
Note_Velocity_60
Note_Duration_60
Beat_7
Note_On_82
Note_Velocity_64
Note_Duration_60
Beat_7
Note_On_92
Note_Velocity_68
Note_Duration_60
Beat_7
Note_On_62
Note_Velocity_48
Note_Duration_60
Beat_8
Note_On_92
Note_Velocity_68
Note_Duration_60
Beat_8
Note_On_78
Note_Velocity_44
Note_Duration_60
Beat_10
Note_On_52
Note_Velocity_44
Note_Duration_60
Beat_10
Note_On_80
Note_Velocity_60
Note_Duration_60
Beat_10
Note_On_92
Note_Velocity_56
Note_Duration_60
Beat_11
Note_On_77
Note_Velocity_60
Note_Duration_60
Beat_11
Note_On_61
Note_Velocity_32
Note_Duration_60
Beat_12
Note_On_78
Note_Velocity_64
Note_Duration_60
Beat_12
Note_On_90
Note_Velocity_68
Note_Duration_60
Beat_12
Note_On_63
Note_Velocity_40
Note_Duration_60
Beat_12
Note_On_95
Note_Velocity_36
Note_Duration_60
Beat_13
Note_On_92
Note_Velocity_68
Note_Duration_60
Beat_13
Note_On_61
Note_Velocity_36
Note_Duration_60
Beat_13
Note_On_66
Note_Velocity_40
Note_Duration_60
Beat_13
Note_On_73
Note_Velocity_60
Note_Duration_60
Beat_13
Note_On_82
Note_Velocity_68
Note_Duration_60
Beat_14
Note_On_94
Note_Velocity_80
Note_Duration_60
Beat_15
Note_On_90
Note_Velocity_60
Note_Duration_60
Beat_15
Note_On_56
Note_Velocity_44
Note_Duration_60
Beat_15
Note_On_78
Note_Velocity_64
Note_Duration_60
Bar_None
Beat_0
Chord_A#:dim
Beat_0
Note_On_63
Note_Velocity_24
Note_Duration_60
Beat_0
Note_On_76
Note_Velocity_28
Note_Duration_60
Beat_0
Note_On_99
Note_Velocity_56
Note_Duration_60
Beat_1
Note_On_88
Note_Velocity_72
Note_Duration_60
Beat_1
Note_On_76
Note_Velocity_76
Note_Duration_60
Beat_1
Note_On_55
Note_Velocity_52
Note_Duration_60
Beat_3
Note_On_99
Note_Velocity_60
Note_Duration_60
Beat_3
Note_On_96
Note_Velocity_60
Note_Duration_60
Beat_3
Note_On_54
Note_Velocity_44
Note_Duration_60
Beat_3
Note_On_87
Note_Velocity_64
Note_Duration_60
Beat_4
Note_On_76
Note_Velocity_56
Note_Duration_60
Beat_4
Note_On_63
Note_Velocity_16
Note_Duration_60
Beat_4
Note_On_90
Note_Velocity_80
Note_Duration_60
Beat_5
Note_On_78
Note_Velocity_60
Note_Duration_60
Beat_5
Note_On_90
Note_Velocity_84
Note_Duration_60
Beat_5
Note_On_72
Note_Velocity_44
Note_Duration_60
Beat_6
Note_On_56
Note_Velocity_60
Note_Duration_60
Beat_6
Note_On_76
Note_Velocity_56
Note_Duration_60
Beat_7
Note_On_64
Note_Velocity_4
Note_Duration_60
Beat_7
Note_On_76
Note_Velocity_48
Note_Duration_60
Beat_7
Note_On_88
Note_Velocity_60
Note_Duration_60
Beat_8
Note_On_57
Note_Velocity_56
Note_Duration_60
Beat_8
Note_On_72
Note_Velocity_48
Note_Duration_60
Beat_8
Note_On_76
Note_Velocity_44
Note_Duration_60
Beat_8
Note_On_94
Note_Velocity_68
Note_Duration_60
Beat_9
Note_On_97
Note_Velocity_68
Note_Duration_60
Beat_9
Note_On_93
Note_Velocity_56
Note_Duration_60
Beat_10
Note_On_54
Note_Velocity_40
Note_Duration_60
Beat_10
Note_On_85
Note_Velocity_64
Note_Duration_60
Beat_10
Note_On_99
Note_Velocity_68
Note_Duration_60
Beat_11
Note_On_64
Note_Velocity_44
Note_Duration_60
Beat_11
Note_On_61
Note_Velocity_36
Note_Duration_60
Beat_11
Note_On_80
Note_Velocity_52
Note_Duration_60
Beat_12
Note_On_97
Note_Velocity_60
Note_Duration_60
Beat_12
Note_On_85
Note_Velocity_64
Note_Duration_60
Beat_12
Note_On_69
Note_Velocity_52
Note_Duration_60
Beat_13
Note_On_57
Note_Velocity_52
Note_Duration_60
Beat_13
Note_On_64
Note_Velocity_36
Note_Duration_60
Beat_13
Note_On_61
Note_Velocity_24
Note_Duration_60
Beat_13
Note_On_73
Note_Velocity_60
Note_Duration_60
Beat_14
Note_On_90
Note_Velocity_76
Note_Duration_60
Beat_14
Note_On_73
Note_Velocity_56
Note_Duration_60
Beat_14
Note_On_90
Note_Velocity_60
Note_Duration_60
Beat_15
Note_On_57
Note_Velocity_52
Note_Duration_60
Beat_15
Note_On_87
Note_Velocity_72
Note_Duration_60
Bar_None
Beat_0
Chord_G:dim
Beat_0
Note_On_76
Note_Velocity_68
Note_Duration_60
Beat_0
Note_On_73
Note_Velocity_48
Note_Duration_60
Beat_0
Note_On_64
Note_Velocity_44
Note_Duration_60
Beat_1
Note_On_57
Note_Velocity_56
Note_Duration_60
Beat_1
Note_On_88
Note_Velocity_60
Note_Duration_60
Beat_2
Note_On_97
Note_Velocity_72
Note_Duration_60
Beat_2
Note_On_94
Note_Velocity_56
Note_Duration_60
Beat_3
Note_On_42
Note_Velocity_48
Note_Duration_60
Beat_3
Note_On_96
Note_Velocity_60
Note_Duration_60
Beat_3
Note_On_94
Note_Velocity_76
Note_Duration_60
Beat_4
Note_On_92
Note_Velocity_76
Note_Duration_60
Beat_4
Note_On_94
Note_Velocity_84
Note_Duration_60
Beat_5
Note_On_88
Note_Velocity_64
Note_Duration_60
Beat_5
Note_On_55
Note_Velocity_48
Note_Duration_60
Beat_5
Note_On_62
Note_Velocity_52
Note_Duration_60
Beat_5
Note_On_64
Note_Velocity_40
Note_Duration_60
Beat_6
Note_On_76
Note_Velocity_68
Note_Duration_60
Beat_6
Note_On_88
Note_Velocity_52
Note_Duration_60
Beat_7
Note_On_57
Note_Velocity_60
Note_Duration_60
Beat_7
Note_On_84
Note_Velocity_56
Note_Duration_60
Beat_7
Note_On_97
Note_Velocity_64
Note_Duration_60
Beat_7
Note_On_101
Note_Velocity_76
Note_Duration_60
Beat_7
Note_On_100
Note_Velocity_64
Note_Duration_60
Beat_8
Chord_A#:dim
Beat_8
Note_On_42
Note_Velocity_52
Note_Duration_60
Beat_8
Note_On_99
Note_Velocity_80
Note_Duration_60
Beat_9
Note_On_94
Note_Velocity_60
Note_Duration_60
Beat_9
Note_On_85
Note_Velocity_64
Note_Duration_60
Beat_10
Note_On_54
Note_Velocity_64
Note_Duration_60
Beat_10
Note_On_61
Note_Velocity_44
Note_Duration_60
Beat_10
Note_On_70
Note_Velocity_44
Note_Duration_60
Beat_10
Note_On_87
Note_Velocity_68
Note_Duration_60
Beat_11
Note_On_88
Note_Velocity_60
Note_Duration_60
Beat_11
Note_On_77
Note_Velocity_52
Note_Duration_60
Beat_11
Note_On_63
Note_Velocity_44
Note_Duration_60
Beat_12
Note_On_64
Note_Velocity_28
Note_Duration_60
Beat_12
Note_On_75
Note_Velocity_60
Note_Duration_60
Beat_12
Note_On_82
Note_Velocity_52
Note_Duration_60
Beat_13
Note_On_88
Note_Velocity_52
Note_Duration_60
Beat_13
Note_On_54
Note_Velocity_48
Note_Duration_60
Beat_13
Note_On_88
Note_Velocity_56
Note_Duration_60
Beat_13
Note_On_100
Note_Velocity_60
Note_Duration_60
Beat_14
Note_On_42
Note_Velocity_56
Note_Duration_60
Beat_14
Note_On_99
Note_Velocity_80
Note_Duration_60
Beat_14
Note_On_100
Note_Velocity_60
Note_Duration_60
Beat_15
Note_On_97
Note_Velocity_76
Note_Duration_60
Beat_15
Note_On_54
Note_Velocity_60
Note_Duration_60
Beat_15
Note_On_90
Note_Velocity_68
Note_Duration_60
Bar_None
Beat_0
Chord_C#:min
Beat_0
Note_On_97
Note_Velocity_92
Note_Duration_60
Beat_0
Note_On_100
Note_Velocity_64
Note_Duration_60
Beat_1
Note_On_97
Note_Velocity_80
Note_Duration_60
Beat_1
Note_On_63
Note_Velocity_72
Note_Duration_60
Beat_1
Note_On_60
Note_Velocity_32
Note_Duration_60
Beat_2
Note_On_56
Note_Velocity_60
Note_Duration_60
Beat_2
Note_On_88
Note_Velocity_68
Note_Duration_60
Beat_2
Note_On_100
Note_Velocity_64
Note_Duration_60
Beat_3
Note_On_102
Note_Velocity_60
Note_Duration_60
Beat_3
Note_On_99
Note_Velocity_52
Note_Duration_60
Beat_3
Note_On_64
Note_Velocity_64
Note_Duration_60
Beat_3
Note_On_97
Note_Velocity_76
Note_Duration_60
Beat_4
Note_On_99
Note_Velocity_76
Note_Duration_60
Beat_4
Note_On_97
Note_Velocity_68
Note_Duration_60
Beat_4
Note_On_63
Note_Velocity_60
Note_Duration_60
Beat_4
Note_On_100
Note_Velocity_72
Note_Duration_60
Beat_5
Note_On_66
Note_Velocity_32
Note_Duration_60
Beat_5
Note_On_99
Note_Velocity_68
Note_Duration_60
Beat_5
Note_On_97
Note_Velocity_76
Note_Duration_60
Beat_5
Note_On_97
Note_Velocity_76
Note_Duration_60
Beat_6
Note_On_56
Note_Velocity_56
Note_Duration_60
Beat_6
Note_On_88
Note_Velocity_60
Note_Duration_60
Beat_6
Note_On_64
Note_Velocity_60
Note_Duration_60
Beat_6
Note_On_100
Note_Velocity_72
Note_Duration_60
Beat_6
Note_On_99
Note_Velocity_72
Note_Duration_60
Beat_7
Note_On_99
Note_Velocity_68
Note_Duration_60
Beat_7
Note_On_97
Note_Velocity_64
Note_Duration_60
Beat_8
Chord_C:dim
Beat_8
Note_On_66
Note_Velocity_40
Note_Duration_60
Beat_8
Note_On_62
Note_Velocity_44
Note_Duration_60
Beat_8
Note_On_82
Note_Velocity_72
Note_Duration_60
Beat_9
Note_On_94
Note_Velocity_72
Note_Duration_60
Beat_9
Note_On_97
Note_Velocity_72
Note_Duration_60
Beat_9
Note_On_100
Note_Velocity_76
Note_Duration_60
Beat_10
Note_On_97
Note_Velocity_68
Note_Duration_60
Beat_10
Note_On_102
Note_Velocity_56
Note_Duration_60
Beat_10
Note_On_55
Note_Velocity_52
Note_Duration_60
Beat_11
Note_On_93
Note_Velocity_72
Note_Duration_60
Beat_11
Note_On_102
Note_Velocity_72
Note_Duration_60
Beat_11
Note_On_66
Note_Velocity_48
Note_Duration_60
Beat_11
Note_On_99
Note_Velocity_68
Note_Duration_60
Beat_12
Note_On_61
Note_Velocity_52
Note_Duration_60
Beat_12
Note_On_96
Note_Velocity_72
Note_Duration_60
Beat_12
Note_On_69
Note_Velocity_36
Note_Duration_60
Beat_13
Note_On_98
Note_Velocity_68
Note_Duration_60
Beat_13
Note_On_97
Note_Velocity_76
Note_Duration_60
Beat_14
Note_On_48
Note_Velocity_48
Note_Duration_60
Beat_14
Note_On_96
Note_Velocity_72
Note_Duration_60
Beat_15
Note_On_97
Note_Velocity_72
Note_Duration_60
Beat_15
Note_On_52
Note_Velocity_56
Note_Duration_60
Beat_15
Note_On_94
Note_Velocity_60
Note_Duration_60
Beat_15
Note_On_64
Note_Velocity_44
Note_Duration_60
Beat_15
Note_On_58
Note_Velocity_60
Note_Duration_60
Beat_15
Note_On_97
Note_Velocity_76
Note_Duration_60
Bar_None
Beat_0
Chord_A:maj
Beat_0
Note_On_99
Note_Velocity_76
Note_Duration_60
Beat_0
Note_On_100
Note_Velocity_84
Note_Duration_60
Beat_1
Note_On_100
Note_Velocity_76
Note_Duration_60
Beat_2
Note_On_57
Note_Velocity_60
Note_Duration_60
Beat_2
Note_On_93
Note_Velocity_76
Note_Duration_60
Beat_2
Note_On_99
Note_Velocity_80
Note_Duration_60
Beat_2
Note_On_64
Note_Velocity_40
Note_Duration_60
Beat_3
Note_On_100
Note_Velocity_92
Note_Duration_60
Beat_3
Note_On_99
Note_Velocity_80
Note_Duration_60
Beat_3
Note_On_97
Note_Velocity_68
Note_Duration_60
Beat_4
Note_On_56
Note_Velocity_68
Note_Duration_60
Beat_4
Note_On_92
Note_Velocity_84
Note_Duration_60
Beat_4
Note_On_100
Note_Velocity_88
Note_Duration_60
Beat_5
Note_On_104
Note_Velocity_88
Note_Duration_60
Beat_5
Note_On_64
Note_Velocity_64
Note_Duration_60
Beat_5
Note_On_61
Note_Velocity_64
Note_Duration_60
Beat_6
Note_On_93
Note_Velocity_68
Note_Duration_60
Beat_6
Note_On_99
Note_Velocity_72
Note_Duration_60
Beat_6
Note_On_97
Note_Velocity_88
Note_Duration_60
Beat_7
Note_On_100
Note_Velocity_84
Note_Duration_60
Beat_7
Note_On_97
Note_Velocity_72
Note_Duration_60
Beat_7
Note_On_57
Note_Velocity_68
Note_Duration_60
Beat_7
Note_On_64
Note_Velocity_40
Note_Duration_60
Beat_7
Note_On_97
Note_Velocity_80
Note_Duration_60
Beat_8
Note_On_99
Note_Velocity_76
Note_Duration_60
Beat_8
Note_On_97
Note_Velocity_72
Note_Duration_60
Beat_8
Note_On_64
Note_Velocity_64
Note_Duration_60
Beat_8
Note_On_57
Note_Velocity_52
Note_Duration_60
Beat_8
Note_On_97
Note_Velocity_72
Note_Duration_60
Beat_9
Note_On_99
Note_Velocity_84
Note_Duration_60
Beat_9
Note_On_100
Note_Velocity_80
Note_Duration_60
Beat_10
Note_On_97
Note_Velocity_64
Note_Duration_60
Beat_10
Note_On_57
Note_Velocity_60
Note_Duration_60
Beat_10
Note_On_64
Note_Velocity_60
Note_Duration_60
Beat_10
Note_On_100
Note_Velocity_84
Note_Duration_60
Beat_10
Note_On_104
Note_Velocity_80
Note_Duration_60
Beat_11
Note_On_100
Note_Velocity_80
Note_Duration_60
Beat_11
Note_On_99
Note_Velocity_68
Note_Duration_60
Beat_11
Note_On_93
Note_Velocity_72
Note_Duration_60
Beat_12
Note_On_92
Note_Velocity_84
Note_Duration_60
Beat_12
Note_On_100
Note_Velocity_76
Note_Duration_60
Beat_12
Note_On_97
Note_Velocity_56
Note_Duration_60
Beat_12
Note_On_57
Note_Velocity_64
Note_Duration_60
Beat_12
Note_On_64
Note_Velocity_64
Note_Duration_60
Beat_12
Note_On_61
Note_Velocity_64
Note_Duration_60
Beat_12
Note_On_64
Note_Velocity_56
Note_Duration_60
Beat_13
Note_On_97
Note_Velocity_80
Note_Duration_60
Beat_14
Note_On_100
Note_Velocity_64
Note_Duration_60
Beat_14
Note_On_99
Note_Velocity_60
Note_Duration_60
Beat_14
Note_On_100
Note_Velocity_68
Note_Duration_60
Beat_14
Note_On_97
Note_Velocity_60
Note_Duration_60
Beat_15
Note_On_57
Note_Velocity_64
Note_Duration_60
Beat_15
Note_On_93
Note_Velocity_72
Note_Duration_60
Beat_15
Note_On_97
Note_Velocity_68
Note_Duration_60
Bar_None
Beat_0
Note_On_97
Note_Velocity_64
Note_Duration_60
Beat_1
Note_On_95
Note_Velocity_60
Note_Duration_60
Beat_2
Note_On_98
Note_Velocity_68
Note_Duration_60
Beat_2
Note_On_54
Note_Velocity_68
Note_Duration_180
Beat_2
Note_On_57
Note_Velocity_52
Note_Duration_60
Beat_2
Note_On_97
Note_Velocity_48
Note_Duration_60
Beat_2
Note_On_97
Note_Velocity_48
Note_Duration_60
Beat_2
Note_On_102
Note_Velocity_68
Note_Duration_60
Beat_3
Note_On_100
Note_Velocity_44
Note_Duration_60
Beat_3
Note_On_43
Note_Velocity_52
Note_Duration_120
Beat_3
Note_On_101
Note_Velocity_60
Note_Duration_60
Beat_3
Note_On_96
Note_Velocity_52
Note_Duration_60
Beat_4
Note_On_97
Note_Velocity_64
Note_Duration_60
Beat_4
Note_On_100
Note_Velocity_60
Note_Duration_60
Beat_5
Note_On_99
Note_Velocity_68
Note_Duration_60
Beat_5
Note_On_97
Note_Velocity_60
Note_Duration_60
Beat_6
Note_On_44
Note_Velocity_40
Note_Duration_60
Beat_6
Note_On_98
Note_Velocity_68
Note_Duration_60
Beat_6
Note_On_97
Note_Velocity_64
Note_Duration_60
Beat_7
Note_On_97
Note_Velocity_64
Note_Duration_60
Beat_7
Note_On_97
Note_Velocity_72
Note_Duration_60
Beat_8
Chord_G:dim
Beat_8
Note_On_94
Note_Velocity_68
Note_Duration_60
Beat_8
Note_On_53
Note_Velocity_48
Note_Duration_60
Beat_8
Note_On_88
Note_Velocity_60
Note_Duration_60
Beat_8
Note_On_58
Note_Velocity_52
Note_Duration_60
Beat_8
Note_On_61
Note_Velocity_56
Note_Duration_60
Beat_8
Note_On_57
Note_Velocity_40
Note_Duration_60
Beat_8
Note_On_86
Note_Velocity_68
Note_Duration_60
Beat_9
Note_On_96
Note_Velocity_76
Note_Duration_60
Beat_9
Note_On_98
Note_Velocity_68
Note_Duration_60
Beat_10
Note_On_99
Note_Velocity_76
Note_Duration_60
Beat_10
Note_On_54
Note_Velocity_72
Note_Duration_60
Beat_10
Note_On_94
Note_Velocity_76
Note_Duration_60
Beat_10
Note_On_99
Note_Velocity_72
Note_Duration_60
Beat_11
Note_On_97
Note_Velocity_76
Note_Duration_60
Beat_11
Note_On_43
Note_Velocity_72
Note_Duration_60
Beat_11
Note_On_96
Note_Velocity_64
Note_Duration_60
Beat_11
Note_On_99
Note_Velocity_76
Note_Duration_60
Beat_12
Note_On_95
Note_Velocity_76
Note_Duration_60
Beat_12
Note_On_94
Note_Velocity_76
Note_Duration_60
Beat_13
Note_On_84
Note_Velocity_76
Note_Duration_60
Beat_13
Note_On_91
Note_Velocity_76
Note_Duration_60
Beat_13
Note_On_52
Note_Velocity_72
Note_Duration_60
Beat_13
Note_On_62
Note_Velocity_64
Note_Duration_60
Beat_13
Note_On_60
Note_Velocity_64
Note_Duration_60
Beat_13
Note_On_53
Note_Velocity_64
Note_Duration_60
Beat_13
Note_On_86
Note_Velocity_80
Note_Duration_60
Beat_14
Note_On_99
Note_Velocity_84
Note_Duration_60
Beat_14
Note_On_96
Note_Velocity_72
Note_Duration_60
Beat_15
Note_On_46
Note_Velocity_72
Note_Duration_60
Beat_15
Note_On_92
Note_Velocity_68
Note_Duration_60
Beat_15
Note_On_98
Note_Velocity_76
Note_Duration_60
Bar_None
Beat_0
Chord_G:min
Beat_0
Note_On_94
Note_Velocity_76
Note_Duration_60
Beat_0
Note_On_96
Note_Velocity_80
Note_Duration_60
Beat_0
Note_On_45
Note_Velocity_56
Note_Duration_60
Beat_0
Note_On_97
Note_Velocity_64
Note_Duration_60
Beat_1
Note_On_92
Note_Velocity_64
Note_Duration_60
Beat_1
Note_On_100
Note_Velocity_76
Note_Duration_60
Beat_1
Note_On_58
Note_Velocity_52
Note_Duration_60
Beat_1
Note_On_62
Note_Velocity_48
Note_Duration_60
Beat_1
Note_On_98
Note_Velocity_56
Note_Duration_60
Beat_1
Note_On_101
Note_Velocity_80
Note_Duration_60
Beat_2
Note_On_101
Note_Velocity_92
Note_Duration_60
Beat_2
Note_On_104
Note_Velocity_80
Note_Duration_60
Beat_2
Note_On_103
Note_Velocity_80
Note_Duration_60
Beat_2
Note_On_100
Note_Velocity_76
Note_Duration_60
Beat_3
Note_On_101
Note_Velocity_88
Note_Duration_60
Beat_4
Note_On_100
Note_Velocity_60
Note_Duration_60
Beat_4
Note_On_99
Note_Velocity_88
Note_Duration_60
Beat_4
Note_On_98
Note_Velocity_68
Note_Duration_60
Beat_5
Note_On_101
Note_Velocity_84
Note_Duration_60
Beat_5
Note_On_100
Note_Velocity_72
Note_Duration_60
Beat_6
Note_On_99
Note_Velocity_80
Note_Duration_60
Beat_6
Note_On_97
Note_Velocity_72
Note_Duration_60
Beat_6
Note_On_53
Note_Velocity_52
Note_Duration_60
Beat_6
Note_On_57
Note_Velocity_52
Note_Duration_60
Beat_6
Note_On_61
Note_Velocity_56
Note_Duration_60
Beat_6
Note_On_57
Note_Velocity_44
Note_Duration_60
Beat_6
Note_On_97
Note_Velocity_68
Note_Duration_60
Beat_6
Note_On_100
Note_Velocity_52
Note_Duration_60
Beat_7
Note_On_99
Note_Velocity_68
Note_Duration_60
Beat_7
Note_On_99
Note_Velocity_80
Note_Duration_60
Beat_8
Note_On_97
Note_Velocity_76
Note_Duration_60
Beat_8
Note_On_99
Note_Velocity_68
Note_Duration_60
Beat_8
Note_On_100
Note_Velocity_76
Note_Duration_60
Beat_8
Note_On_61
Note_Velocity_68
Note_Duration_60
Beat_8
Note_On_65
Note_Velocity_64
Note_Duration_60
Beat_8
Note_On_58
Note_Velocity_60
Note_Duration_60
Beat_8
Note_On_56
Note_Velocity_52
Note_Duration_60
Beat_9
Note_On_100
Note_Velocity_72
Note_Duration_60
Beat_9
Note_On_99
Note_Velocity_76
Note_Duration_60
Beat_10
Note_On_97
Note_Velocity_68
Note_Duration_60
Beat_10
Note_On_97
Note_Velocity_72
Note_Duration_60
Beat_10
Note_On_68
Note_Velocity_72
Note_Duration_60
Beat_10
Note_On_72
Note_Velocity_56
Note_Duration_60
Beat_10
Note_On_61
Note_Velocity_64
Note_Duration_60
Beat_10
Note_On_68
Note_Velocity_52
Note_Duration_60
Beat_10
Note_On_94
Note_Velocity_76
Note_Duration_60
Beat_10
Note_On_100
Note_Velocity_80
Note_Duration_60
Beat_11
Note_On_101
Note_Velocity_80
Note_Duration_60
Beat_12
Note_On_103
Note_Velocity_80
Note_Duration_60
Beat_12
Note_On_104
Note_Velocity_76
Note_Duration_60
Beat_12
Note_On_101
Note_Velocity_76
Note_Duration_60
Beat_12
Note_On_97
Note_Velocity_64
Note_Duration_60
Beat_13
Note_On_98
Note_Velocity_76
Note_Duration_60
Beat_13
Note_On_100
Note_Velocity_56
Note_Duration_60
Beat_14
Note_On_61
Note_Velocity_60
Note_Duration_60
Beat_14
Note_On_67
Note_Velocity_56
Note_Duration_60
Beat_14
Note_On_63
Note_Velocity_52
Note_Duration_60
Beat_14
Note_On_58
Note_Velocity_40
Note_Duration_60
Beat_15
Note_On_102
Note_Velocity_72
Note_Duration_60
Beat_15
Note_On_100
Note_Velocity_44
Note_Duration_60
Bar_None
Beat_0
Chord_F:aug
Beat_0
Note_On_94
Note_Velocity_68
Note_Duration_60
Beat_1
Note_On_97
Note_Velocity_68
Note_Duration_60
Beat_2
Note_On_100
Note_Velocity_64
Note_Duration_60
Beat_2
Note_On_101
Note_Velocity_72
Note_Duration_60
Beat_2
Note_On_104
Note_Velocity_64
Note_Duration_60
Beat_3
Note_On_97
Note_Velocity_64
Note_Duration_60
Beat_3
Note_On_98
Note_Velocity_52
Note_Duration_60
Beat_4
Note_On_64
Note_Velocity_56
Note_Duration_60
Beat_4
Note_On_65
Note_Velocity_56
Note_Duration_60
Beat_4
Note_On_61
Note_Velocity_56
Note_Duration_60
Beat_4
Note_On_70
Note_Velocity_64
Note_Duration_60
Beat_4
Note_On_100
Note_Velocity_72
Note_Duration_60
Beat_5
Note_On_99
Note_Velocity_68
Note_Duration_60
Beat_5
Note_On_97
Note_Velocity_56
Note_Duration_60
Beat_5
Note_On_100
Note_Velocity_52
Note_Duration_60
Beat_6
Note_On_98
Note_Velocity_60
Note_Duration_60
Beat_6
Note_On_41
Note_Velocity_60
Note_Duration_60
Beat_6
Note_On_99
Note_Velocity_72
Note_Duration_60
Beat_7
Note_On_100
Note_Velocity_72
Note_Duration_60
Beat_7
Note_On_101
Note_Velocity_64
Note_Duration_60
Beat_7
Note_On_98
Note_Velocity_76
Note_Duration_60
Beat_8
Note_On_97
Note_Velocity_68
Note_Duration_60
Beat_8
Note_On_100
Note_Velocity_64
Note_Duration_60
Beat_8
Note_On_53
Note_Velocity_60
Note_Duration_60
Beat_8
Note_On_89
Note_Velocity_76
Note_Duration_60
Beat_9
Note_On_61
Note_Velocity_60
Note_Duration_60
Beat_9
Note_On_57
Note_Velocity_60
Note_Duration_60
Beat_9
Note_On_64
Note_Velocity_48
Note_Duration_60
Beat_9
Note_On_98
Note_Velocity_64
Note_Duration_60
Beat_9
Note_On_101
Note_Velocity_60
Note_Duration_60
Beat_10
Note_On_101
Note_Velocity_68
Note_Duration_60
Beat_10
Note_On_99
Note_Velocity_76
Note_Duration_60
Beat_10
Note_On_97
Note_Velocity_76
Note_Duration_60
Beat_10
Note_On_64
Note_Velocity_72
Note_Duration_60
Beat_10
Note_On_76
Note_Velocity_72
Note_Duration_60
Beat_10
Note_On_61
Note_Velocity_60
Note_Duration_60
Beat_10
Note_On_53
Note_Velocity_56
Note_Duration_60
Beat_11
Note_On_103
Note_Velocity_80
Note_Duration_60
Beat_11
Note_On_99
Note_Velocity_80
Note_Duration_60
Beat_11
Note_On_97
Note_Velocity_72
Note_Duration_60
Beat_12
Note_On_96
Note_Velocity_76
Note_Duration_60
Beat_12
Note_On_99
Note_Velocity_72
Note_Duration_60
Beat_12
Note_On_94
Note_Velocity_72
Note_Duration_60
Beat_13
Note_On_99
Note_Velocity_72
Note_Duration_60
Beat_13
Note_On_93
Note_Velocity_64
Note_Duration_60
Beat_13
Note_On_96
Note_Velocity_72
Note_Duration_60
Beat_14
Note_On_92
Note_Velocity_76
Note_Duration_60
Beat_14
Note_On_53
Note_Velocity_68
Note_Duration_60
Beat_14
Note_On_63
Note_Velocity_72
Note_Duration_60
Beat_14
Note_On_86
Note_Velocity_80
Note_Duration_60
Beat_14
Note_On_63
Note_Velocity_68
Note_Duration_60
Beat_14
Note_On_57
Note_Velocity_68
Note_Duration_60
Beat_14
Note_On_96
Note_Velocity_76
Note_Duration_60
Beat_14
Note_On_94
Note_Velocity_60
Note_Duration_60
Beat_15
Note_On_101
Note_Velocity_72
Note_Duration_60
Bar_None
Beat_0
Chord_G:dim
Beat_0
Note_On_99
Note_Velocity_64
Note_Duration_60
Beat_1
Note_On_97
Note_Velocity_68
Note_Duration_60
Beat_1
Note_On_98
Note_Velocity_76
Note_Duration_60
Beat_1
Note_On_98
Note_Velocity_84
Note_Duration_60
Beat_2
Note_On_99
Note_Velocity_76
Note_Duration_60
Beat_2
Note_On_100
Note_Velocity_80
Note_Duration_60
Beat_2
Note_On_99
Note_Velocity_64
Note_Duration_60
Beat_2
Note_On_69
Note_Velocity_84
Note_Duration_60
Beat_2
Note_On_63
Note_Velocity_72
Note_Duration_60
Beat_2
Note_On_72
Note_Velocity_84
Note_Duration_60
Beat_3
Note_On_65
Note_Velocity_84
Note_Duration_60
Beat_3
Note_On_72
Note_Velocity_84
Note_Duration_60
Beat_3
Note_On_64
Note_Velocity_76
Note_Duration_60
Beat_4
Note_On_99
Note_Velocity_88
Note_Duration_60
Beat_4
Note_On_94
Note_Velocity_68
Note_Duration_60
Beat_5
Note_On_97
Note_Velocity_80
Note_Duration_60
Beat_6
Note_On_96
Note_Velocity_76
Note_Duration_60
Beat_6
Note_On_97
Note_Velocity_84
Note_Duration_60
Beat_6
Note_On_69
Note_Velocity_72
Note_Duration_60
Beat_6
Note_On_67
Note_Velocity_60
Note_Duration_60
Beat_6
Note_On_58
Note_Velocity_72
Note_Duration_60
Beat_6
Note_On_94
Note_Velocity_48
Note_Duration_60
Beat_7
Note_On_97
Note_Velocity_72
Note_Duration_60
Beat_7
Note_On_100
Note_Velocity_68
Note_Duration_60
Beat_8
Chord_G:dim
Beat_8
Note_On_99
Note_Velocity_84
Note_Duration_60
Beat_8
Note_On_70
Note_Velocity_76
Note_Duration_60
Beat_8
Note_On_82
Note_Velocity_72
Note_Duration_60
Beat_8
Note_On_60
Note_Velocity_64
Note_Duration_60
Beat_8
Note_On_65
Note_Velocity_56
Note_Duration_60
Beat_8
Note_On_93
Note_Velocity_48
Note_Duration_60
Beat_8
Note_On_92
Note_Velocity_56
Note_Duration_60
Beat_9
Note_On_97
Note_Velocity_80
Note_Duration_60
Beat_9
Note_On_98
Note_Velocity_76
Note_Duration_60
Beat_10
Note_On_100
Note_Velocity_64
Note_Duration_60
Beat_10
Note_On_94
Note_Velocity_76
Note_Duration_60
Beat_10
Note_On_57
Note_Velocity_76
Note_Duration_60
Beat_10
Note_On_60
Note_Velocity_72
Note_Duration_60
Beat_10
Note_On_53
Note_Velocity_72
Note_Duration_60
Beat_10
Note_On_64
Note_Velocity_64
Note_Duration_60
Beat_11
Note_On_94
Note_Velocity_84
Note_Duration_60
Beat_11
Note_On_97
Note_Velocity_72
Note_Duration_60
Beat_11
Note_On_97
Note_Velocity_72
Note_Duration_60
Beat_12
Note_On_96
Note_Velocity_76
Note_Duration_60
Beat_12
Note_On_58
Note_Velocity_76
Note_Duration_60
Beat_12
Note_On_65
Note_Velocity_72
Note_Duration_60
Beat_12
Note_On_61
Note_Velocity_68
Note_Duration_60
Beat_12
Note_On_64
Note_Velocity_72
Note_Duration_60
Beat_12
Note_On_57
Note_Velocity_56
Note_Duration_60
Beat_12
Note_On_97
Note_Velocity_72
Note_Duration_60
Beat_13
Note_On_100
Note_Velocity_64
Note_Duration_60
Beat_13
Note_On_99
Note_Velocity_80
Note_Duration_60
Beat_14
Note_On_96
Note_Velocity_72
Note_Duration_60
Beat_14
Note_On_97
Note_Velocity_76
Note_Duration_60
Beat_15
Note_On_101
Note_Velocity_80
Note_Duration_60
Beat_15
Note_On_101
Note_Velocity_84
Note_Duration_60
Beat_15
Note_On_101
Note_Velocity_72
Note_Duration_60
Bar_None
Beat_0
Chord_F#:min
Beat_0
Note_On_99
Note_Velocity_76
Note_Duration_60
Beat_0
Note_On_99
Note_Velocity_72
Note_Duration_60
Beat_0
Note_On_69
Note_Velocity_76
Note_Duration_60
Beat_0
Note_On_101
Note_Velocity_72
Note_Duration_60
Beat_1
Note_On_101
Note_Velocity_68
Note_Duration_60
Beat_2
Note_On_99
Note_Velocity_64
Note_Duration_60
Beat_2
Note_On_100
Note_Velocity_68
Note_Duration_60
Beat_3
Note_On_102
Note_Velocity_68
Note_Duration_60
Beat_3
Note_On_101
Note_Velocity_68
Note_Duration_60
Beat_4
Note_On_102
Note_Velocity_80
Note_Duration_60
Beat_4
Note_On_100
Note_Velocity_80
Note_Duration_60
Beat_4
Note_On_101
Note_Velocity_84
Note_Duration_60
Beat_4
Note_On_97
Note_Velocity_60
Note_Duration_60
Beat_5
Note_On_100
Note_Velocity_76
Note_Duration_60
Beat_5
Note_On_101
Note_Velocity_72
Note_Duration_60
Beat_5
Note_On_98
Note_Velocity_48
Note_Duration_60
Beat_6
Note_On_100
Note_Velocity_60
Note_Duration_60
Beat_6
Note_On_99
Note_Velocity_80
Note_Duration_60
Beat_7
Note_On_97
Note_Velocity_76
Note_Duration_60
Beat_7
Note_On_99
Note_Velocity_76
Note_Duration_60
Beat_8
Note_On_90
Note_Velocity_52
Note_Duration_60
Beat_8
Note_On_66
Note_Velocity_64
Note_Duration_60
Beat_8
Note_On_57
Note_Velocity_60
Note_Duration_60
Beat_8
Note_On_99
Note_Velocity_80
Note_Duration_60
Beat_9
Note_On_99
Note_Velocity_84
Note_Duration_60
Beat_9
Note_On_103
Note_Velocity_76
Note_Duration_60
Beat_9
Note_On_101
Note_Velocity_80
Note_Duration_60
Beat_10
Note_On_73
Note_Velocity_76
Note_Duration_60
Beat_10
Note_On_97
Note_Velocity_88
Note_Duration_60
Beat_11
Note_On_98
Note_Velocity_76
Note_Duration_60
Beat_11
Note_On_99
Note_Velocity_72
Note_Duration_60
Beat_11
Note_On_99
Note_Velocity_52
Note_Duration_60
Beat_12
Note_On_97
Note_Velocity_76
Note_Duration_60
Beat_12
Note_On_97
Note_Velocity_80
Note_Duration_60
Beat_12
Note_On_95
Note_Velocity_60
Note_Duration_60
Beat_13
Note_On_98
Note_Velocity_76
Note_Duration_60
Beat_13
Note_On_99
Note_Velocity_72
Note_Duration_60
Beat_13
Note_On_94
Note_Velocity_76
Note_Duration_60
Beat_14
Note_On_97
Note_Velocity_68
Note_Duration_60
Beat_14
Note_On_95
Note_Velocity_68
Note_Duration_60
Beat_14
Note_On_101
Note_Velocity_68
Note_Duration_60
Beat_15
Note_On_102
Note_Velocity_80
Note_Duration_60
Beat_15
Note_On_100
Note_Velocity_60
Note_Duration_60
Bar_None
Beat_0
Chord_F#:min
Beat_0
Note_On_94
Note_Velocity_72
Note_Duration_60
Beat_1
Note_On_93
Note_Velocity_76
Note_Duration_60
Beat_1
Note_On_102
Note_Velocity_72
Note_Duration_60
Beat_1
Note_On_95
Note_Velocity_64
Note_Duration_60
Beat_2
Note_On_101
Note_Velocity_56
Note_Duration_60
Beat_3
Note_On_99
Note_Velocity_56
Note_Duration_60
Beat_3
Note_On_97
Note_Velocity_80
Note_Duration_60
Beat_3
Note_On_96
Note_Velocity_68
Note_Duration_60
Beat_3
Note_On_97
Note_Velocity_44
Note_Duration_60
Beat_4
Note_On_99
Note_Velocity_76
Note_Duration_60
Beat_4
Note_On_97
Note_Velocity_60
Note_Duration_60
Beat_5
Note_On_95
Note_Velocity_76
Note_Duration_60
Beat_5
Note_On_96
Note_Velocity_72
Note_Duration_60
Beat_5
Note_On_97
Note_Velocity_68
Note_Duration_60
Beat_6
Note_On_93
Note_Velocity_80
Note_Duration_60
Beat_6
Note_On_97
Note_Velocity_80
Note_Duration_60
Beat_6
Note_On_96
Note_Velocity_72
Note_Duration_60
Beat_6
Note_On_97
Note_Velocity_72
Note_Duration_60
Beat_7
Note_On_95
Note_Velocity_76
Note_Duration_60
Beat_8
Note_On_102
Note_Velocity_88
Note_Duration_60
Beat_8
Note_On_101
Note_Velocity_76
Note_Duration_60
Beat_8
Note_On_100
Note_Velocity_72
Note_Duration_60
Beat_9
Note_On_100
Note_Velocity_80
Note_Duration_60
Beat_9
Note_On_97
Note_Velocity_32
Note_Duration_60
Beat_10
Note_On_95
Note_Velocity_84
Note_Duration_60
Beat_10
Note_On_99
Note_Velocity_64
Note_Duration_60
Beat_11
Note_On_95
Note_Velocity_80
Note_Duration_60
Beat_11
Note_On_99
Note_Velocity_72
Note_Duration_60
Beat_12
Note_On_97
Note_Velocity_92
Note_Duration_60
Beat_12
Note_On_96
Note_Velocity_80
Note_Duration_60
Beat_12
Note_On_102
Note_Velocity_80
Note_Duration_60
Beat_13
Note_On_97
Note_Velocity_64
Note_Duration_60
Beat_13
Note_On_95
Note_Velocity_80
Note_Duration_60
Beat_13
Note_On_92
Note_Velocity_84
Note_Duration_60
Beat_14
Note_On_96
Note_Velocity_64
Note_Duration_60
Beat_14
Note_On_99
Note_Velocity_84
Note_Duration_60
Beat_14
Note_On_97
Note_Velocity_76
Note_Duration_60
Beat_15
Note_On_96
Note_Velocity_68
Note_Duration_60
Beat_15
Note_On_97
Note_Velocity_92
Note_Duration_60
Bar_None
Beat_0
Note_On_93
Note_Velocity_84
Note_Duration_60
Beat_0
Note_On_92
Note_Velocity_76
Note_Duration_60
Beat_0
Note_On_89
Note_Velocity_88
Note_Duration_60
Beat_1
Note_On_100
Note_Velocity_96
Note_Duration_60
Beat_1
Note_On_99
Note_Velocity_72
Note_Duration_60
Beat_1
Note_On_97
Note_Velocity_68
Note_Duration_60
Beat_2
Note_On_93
Note_Velocity_84
Note_Duration_60
Beat_3
Note_On_92
Note_Velocity_84
Note_Duration_60
Beat_3
Note_On_97
Note_Velocity_64
Note_Duration_60
Beat_3
Note_On_93
Note_Velocity_76
Note_Duration_60
Beat_4
Note_On_95
Note_Velocity_80
Note_Duration_60
Beat_4
Note_On_99
Note_Velocity_100
Note_Duration_60
Beat_5
Note_On_97
Note_Velocity_72
Note_Duration_60
Beat_6
Note_On_100
Note_Velocity_76
Note_Duration_60
Beat_7
Note_On_99
Note_Velocity_100
Note_Duration_60
Beat_7
Note_On_97
Note_Velocity_48
Note_Duration_60
Beat_8
Chord_F#:dim
Beat_8
Note_On_100
Note_Velocity_84
Note_Duration_60
Beat_8
Note_On_99
Note_Velocity_60
Note_Duration_60
Beat_9
Note_On_97
Note_Velocity_92
Note_Duration_60
Beat_9
Note_On_96
Note_Velocity_68
Note_Duration_60
Beat_9
Note_On_95
Note_Velocity_72
Note_Duration_60
Beat_10
Note_On_97
Note_Velocity_96
Note_Duration_60
Beat_10
Note_On_84
Note_Velocity_76
Note_Duration_60
Beat_10
Note_On_90
Note_Velocity_72
Note_Duration_60
Beat_11
Note_On_97
Note_Velocity_92
Note_Duration_60
Beat_11
Note_On_88
Note_Velocity_80
Note_Duration_60
Beat_11
Note_On_94
Note_Velocity_88
Note_Duration_60
Beat_11
Note_On_85
Note_Velocity_80
Note_Duration_60
Beat_12
Note_On_95
Note_Velocity_60
Note_Duration_60
Beat_12
Note_On_100
Note_Velocity_92
Note_Duration_60
Beat_12
Note_On_97
Note_Velocity_80
Note_Duration_60
Beat_12
Note_On_91
Note_Velocity_72
Note_Duration_60
Beat_12
Note_On_94
Note_Velocity_60
Note_Duration_60
Beat_13
Note_On_97
Note_Velocity_64
Note_Duration_60
Beat_13
Note_On_95
Note_Velocity_88
Note_Duration_60
Beat_14
Note_On_100
Note_Velocity_84
Note_Duration_60
Beat_14
Note_On_96
Note_Velocity_60
Note_Duration_60
Beat_14
Note_On_97
Note_Velocity_56
Note_Duration_60
Beat_14
Note_On_95
Note_Velocity_68
Note_Duration_60
Beat_15
Note_On_99
Note_Velocity_84
Note_Duration_60
Beat_15
Note_On_97
Note_Velocity_76
Note_Duration_60
Bar_None
Beat_0
Chord_A:dom
Beat_0
Note_On_95
Note_Velocity_84
Note_Duration_60
Beat_1
Note_On_97
Note_Velocity_96
Note_Duration_60
Beat_1
Note_On_97
Note_Velocity_88
Note_Duration_60
Beat_1
Note_On_95
Note_Velocity_64
Note_Duration_60
Beat_1
Note_On_99
Note_Velocity_80
Note_Duration_60
Beat_3
Note_On_93
Note_Velocity_84
Note_Duration_60
Beat_3
Note_On_96
Note_Velocity_80
Note_Duration_60
Beat_3
Note_On_100
Note_Velocity_60
Note_Duration_60
Beat_3
Note_On_100
Note_Velocity_56
Note_Duration_60
Beat_4
Note_On_99
Note_Velocity_92
Note_Duration_60
Beat_4
Note_On_99
Note_Velocity_80
Note_Duration_60
Beat_4
Note_On_97
Note_Velocity_72
Note_Duration_60
Beat_4
Note_On_95
Note_Velocity_84
Note_Duration_60
Beat_4
Note_On_91
Note_Velocity_80
Note_Duration_60
Beat_5
Note_On_99
Note_Velocity_88
Note_Duration_60
Beat_5
Note_On_97
Note_Velocity_88
Note_Duration_60
Beat_6
Note_On_99
Note_Velocity_88
Note_Duration_60
Beat_6
Note_On_100
Note_Velocity_72
Note_Duration_60
Beat_6
Note_On_99
Note_Velocity_88
Note_Duration_60
Beat_6
Note_On_97
Note_Velocity_80
Note_Duration_60
Beat_7
Note_On_95
Note_Velocity_48
Note_Duration_60
Beat_7
Note_On_99
Note_Velocity_72
Note_Duration_60
Beat_7
Note_On_97
Note_Velocity_76
Note_Duration_60
Beat_7
Note_On_95
Note_Velocity_68
Note_Duration_60
Beat_8
Chord_G:dim
Beat_8
Note_On_99
Note_Velocity_96
Note_Duration_60
Beat_8
Note_On_97
Note_Velocity_92
Note_Duration_60
Beat_8
Note_On_100
Note_Velocity_72
Note_Duration_60
Beat_9
Note_On_99
Note_Velocity_96
Note_Duration_60
Beat_9
Note_On_97
Note_Velocity_88
Note_Duration_60
Beat_10
Note_On_97
Note_Velocity_68
Note_Duration_60
Beat_10
Note_On_95
Note_Velocity_64
Note_Duration_60
Beat_10
Note_On_96
Note_Velocity_64
Note_Duration_60
Beat_11
Note_On_99
Note_Velocity_88
Note_Duration_60
Beat_11
Note_On_99
Note_Velocity_88
Note_Duration_60
Beat_11
Note_On_97
Note_Velocity_84
Note_Duration_60
Beat_11
Note_On_95
Note_Velocity_80
Note_Duration_60
Beat_12
Note_On_99
Note_Velocity_84
Note_Duration_60
Beat_12
Note_On_97
Note_Velocity_52
Note_Duration_60
Beat_12
Note_On_91
Note_Velocity_72
Note_Duration_60
Beat_12
Note_On_97
Note_Velocity_76
Note_Duration_60
Beat_13
Note_On_95
Note_Velocity_72
Note_Duration_60
Beat_13
Note_On_103
Note_Velocity_56
Note_Duration_60
Beat_14
Note_On_100
Note_Velocity_68
Note_Duration_60
Beat_14
Note_On_99
Note_Velocity_72
Note_Duration_60
Beat_15
Note_On_97
Note_Velocity_60
Note_Duration_60
Beat_15
Note_On_95
Note_Velocity_56
Note_Duration_60
Beat_15
Note_On_96
Note_Velocity_56
Note_Duration_60
Bar_None
Beat_0
Note_On_94
Note_Velocity_76
Note_Duration_60
Beat_0
Note_On_95
Note_Velocity_76
Note_Duration_60
Beat_0
Note_On_99
Note_Velocity_76
Note_Duration_60
Beat_1
Note_On_97
Note_Velocity_72
Note_Duration_60
Beat_1
Note_On_98
Note_Velocity_40
Note_Duration_60
Beat_2
Note_On_99
Note_Velocity_60
Note_Duration_60
Beat_2
Note_On_95
Note_Velocity_36
Note_Duration_60
Beat_2
Note_On_97
Note_Velocity_52
Note_Duration_60
Beat_2
Note_On_95
Note_Velocity_68
Note_Duration_60
Beat_3
Note_On_99
Note_Velocity_84
Note_Duration_60
Beat_3
Note_On_97
Note_Velocity_76
Note_Duration_60
Beat_3
Note_On_93
Note_Velocity_56
Note_Duration_60
Beat_4
Note_On_100
Note_Velocity_64
Note_Duration_60
Beat_4
Note_On_99
Note_Velocity_76
Note_Duration_60
Beat_4
Note_On_97
Note_Velocity_72
Note_Duration_60
Beat_5
Note_On_95
Note_Velocity_68
Note_Duration_60
Beat_5
Note_On_99
Note_Velocity_80
Note_Duration_60
Beat_5
Note_On_97
Note_Velocity_80
Note_Duration_60
Beat_5
Note_On_95
Note_Velocity_72
Note_Duration_60
Beat_6
Note_On_99
Note_Velocity_88
Note_Duration_60
Beat_6
Note_On_100
Note_Velocity_80
Note_Duration_60
Beat_7
Note_On_99
Note_Velocity_88
Note_Duration_60
Beat_7
Note_On_97
Note_Velocity_84
Note_Duration_60
Beat_7
Note_On_95
Note_Velocity_80
Note_Duration_60
Beat_7
Note_On_99
Note_Velocity_64
Note_Duration_60
Beat_8
Note_On_100
Note_Velocity_84
Note_Duration_60
Beat_8
Note_On_95
Note_Velocity_80
Note_Duration_60
Beat_9
Note_On_99
Note_Velocity_88
Note_Duration_60
Beat_9
Note_On_97
Note_Velocity_76
Note_Duration_60
Beat_10
Note_On_95
Note_Velocity_72
Note_Duration_60
Beat_10
Note_On_99
Note_Velocity_92
Note_Duration_60
Beat_10
Note_On_97
Note_Velocity_84
Note_Duration_60
Beat_11
Note_On_95
Note_Velocity_68
Note_Duration_60
Beat_11
Note_On_99
Note_Velocity_76
Note_Duration_60
Beat_11
Note_On_97
Note_Velocity_88
Note_Duration_60
Beat_11
Note_On_93
Note_Velocity_84
Note_Duration_60
Beat_12
Note_On_99
Note_Velocity_100
Note_Duration_60
Beat_12
Note_On_97
Note_Velocity_80
Note_Duration_60
Beat_12
Note_On_95
Note_Velocity_76
Note_Duration_60
Beat_13
Note_On_99
Note_Velocity_84
Note_Duration_60
Beat_13
Note_On_100
Note_Velocity_76
Note_Duration_60
Beat_14
Note_On_97
Note_Velocity_76
Note_Duration_60
Beat_14
Note_On_95
Note_Velocity_72
Note_Duration_60
Beat_14
Note_On_99
Note_Velocity_96
Note_Duration_60
Beat_15
Note_On_97
Note_Velocity_80
Note_Duration_60
Beat_15
Note_On_95
Note_Velocity_72
Note_Duration_60
Bar_None
Beat_0
Chord_A#:dim
Beat_0
Note_On_99
Note_Velocity_88
Note_Duration_60
Beat_0
Note_On_100
Note_Velocity_80
Note_Duration_60
Beat_0
Note_On_99
Note_Velocity_84
Note_Duration_60
Beat_1
Note_On_95
Note_Velocity_80
Note_Duration_60
Beat_1
Note_On_97
Note_Velocity_80
Note_Duration_60
Beat_1
Note_On_97
Note_Velocity_76
Note_Duration_60
Beat_2
Note_On_95
Note_Velocity_60
Note_Duration_60
Beat_2
Note_On_97
Note_Velocity_84
Note_Duration_60
Beat_3
Note_On_95
Note_Velocity_92
Note_Duration_60
Beat_3
Note_On_99
Note_Velocity_84
Note_Duration_60
Beat_3
Note_On_97
Note_Velocity_72
Note_Duration_60
Beat_3
Note_On_95
Note_Velocity_84
Note_Duration_60
Beat_4
Note_On_99
Note_Velocity_88
Note_Duration_60
Beat_4
Note_On_97
Note_Velocity_68
Note_Duration_60
Beat_4
Note_On_95
Note_Velocity_64
Note_Duration_60
Beat_5
Note_On_99
Note_Velocity_88
Note_Duration_60
Beat_5
Note_On_97
Note_Velocity_84
Note_Duration_60
Beat_5
Note_On_93
Note_Velocity_80
Note_Duration_60
Beat_6
Note_On_99
Note_Velocity_92
Note_Duration_60
Beat_6
Note_On_95
Note_Velocity_72
Note_Duration_60
Beat_7
Note_On_97
Note_Velocity_88
Note_Duration_60
Beat_7
Note_On_97
Note_Velocity_84
Note_Duration_60
Beat_8
Note_On_97
Note_Velocity_88
Note_Duration_60
Beat_8
Note_On_93
Note_Velocity_72
Note_Duration_60
Beat_8
Note_On_99
Note_Velocity_88
Note_Duration_60
Beat_9
Note_On_95
Note_Velocity_84
Note_Duration_60
Beat_9
Note_On_97
Note_Velocity_88
Note_Duration_60
Beat_10
Note_On_95
Note_Velocity_72
Note_Duration_60
Beat_10
Note_On_97
Note_Velocity_92
Note_Duration_60
Beat_11
Note_On_95
Note_Velocity_88
Note_Duration_60
Beat_11
Note_On_99
Note_Velocity_84
Note_Duration_60
Beat_11
Note_On_97
Note_Velocity_80
Note_Duration_60
Beat_12
Note_On_95
Note_Velocity_80
Note_Duration_60
Beat_12
Note_On_97
Note_Velocity_72
Note_Duration_60
Beat_12
Note_On_98
Note_Velocity_76
Note_Duration_60
Beat_13
Note_On_95
Note_Velocity_64
Note_Duration_60
Beat_13
Note_On_100
Note_Velocity_72
Note_Duration_60
Beat_14
Note_On_97
Note_Velocity_68
Note_Duration_60
Beat_14
Note_On_95
Note_Velocity_48
Note_Duration_60
Beat_14
Note_On_102
Note_Velocity_72
Note_Duration_60
Beat_15
Note_On_99
Note_Velocity_52
Note_Duration_60
Beat_15
Note_On_97
Note_Velocity_60
Note_Duration_60
