Bar_None
Beat_0
Chord_B:maj
Beat_0
Tempo_76
Beat_0
Note_On_54
Note_Velocity_44
Note_Duration_480
Beat_0
Note_On_59
Note_Velocity_52
Note_Duration_1920
Beat_0
Note_On_75
Note_Velocity_56
Note_Duration_480
Beat_0
Note_On_66
Note_Velocity_52
Note_Duration_1020
Beat_4
Tempo_78
Beat_4
Note_On_82
Note_Velocity_60
Note_Duration_360
Beat_4
Note_On_54
Note_Velocity_36
Note_Duration_1200
Beat_4
Note_On_75
Note_Velocity_52
Note_Duration_540
Beat_6
Note_On_80
Note_Velocity_64
Note_Duration_120
Beat_7
Note_On_80
Note_Velocity_60
Note_Duration_120
Beat_8
Chord_F#:maj
Beat_8
Tempo_76
Beat_8
Note_On_71
Note_Velocity_56
Note_Duration_120
Beat_8
Note_On_75
Note_Velocity_56
Note_Duration_1020
Beat_8
Note_On_82
Note_Velocity_64
Note_Duration_720
Beat_10
Note_On_80
Note_Velocity_68
Note_Duration_240
Beat_12
Tempo_75
Beat_12
Note_On_80
Note_Velocity_56
Note_Duration_660
Beat_14
Note_On_58
Note_Velocity_40
Note_Duration_300
Bar_None
Beat_0
Chord_B:maj
Beat_0
Tempo_78
Beat_0
Note_On_54
Note_Velocity_44
Note_Duration_780
Beat_0
Note_On_61
Note_Velocity_48
Note_Duration_1920
Beat_0
Note_On_73
Note_Velocity_60
Note_Duration_60
Beat_0
Note_On_68
Note_Velocity_56
Note_Duration_60
Beat_4
Tempo_74
Beat_4
Note_On_82
Note_Velocity_68
Note_Duration_240
Beat_5
Note_On_80
Note_Velocity_60
Note_Duration_240
Beat_6
Note_On_54
Note_Velocity_40
Note_Duration_240
Beat_6
Note_On_82
Note_Velocity_60
Note_Duration_120
Beat_7
Note_On_78
Note_Velocity_60
Note_Duration_1080
Beat_7
Note_On_82
Note_Velocity_68
Note_Duration_660
Beat_8
Tempo_75
Beat_8
Note_On_80
Note_Velocity_68
Note_Duration_1920
Beat_10
Note_On_47
Note_Velocity_36
Note_Duration_120
Beat_10
Note_On_54
Note_Velocity_40
Note_Duration_300
Beat_12
Tempo_75
Beat_12
Note_On_59
Note_Velocity_52
Note_Duration_540
Beat_12
Note_On_80
Note_Velocity_64
Note_Duration_360
Beat_12
Note_On_63
Note_Velocity_52
Note_Duration_480
Beat_14
Note_On_54
Note_Velocity_52
Note_Duration_1200
Beat_15
Note_On_80
Note_Velocity_64
Note_Duration_1080
Bar_None
Beat_0
Chord_F#:dom
Beat_0
Tempo_75
Beat_0
Note_On_42
Note_Velocity_48
Note_Duration_60
Beat_0
Note_On_71
Note_Velocity_60
Note_Duration_960
Beat_0
Note_On_80
Note_Velocity_60
Note_Duration_480
Beat_0
Note_On_54
Note_Velocity_44
Note_Duration_480
Beat_4
Tempo_78
Beat_4
Note_On_82
Note_Velocity_68
Note_Duration_360
Beat_4
Note_On_54
Note_Velocity_48
Note_Duration_540
Beat_4
Note_On_61
Note_Velocity_48
Note_Duration_480
Beat_6
Note_On_73
Note_Velocity_56
Note_Duration_240
Beat_6
Note_On_85
Note_Velocity_64
Note_Duration_240
Beat_7
Note_On_82
Note_Velocity_60
Note_Duration_180
Beat_8
Tempo_76
Beat_8
Note_On_80
Note_Velocity_60
Note_Duration_60
Beat_8
Note_On_47
Note_Velocity_48
Note_Duration_480
Beat_8
Note_On_59
Note_Velocity_56
Note_Duration_60
Beat_8
Note_On_75
Note_Velocity_56
Note_Duration_480
Beat_10
Note_On_54
Note_Velocity_40
Note_Duration_240
Beat_12
Tempo_76
Beat_12
Note_On_42
Note_Velocity_52
Note_Duration_60
Beat_12
Note_On_78
Note_Velocity_64
Note_Duration_660
Beat_12
Note_On_75
Note_Velocity_52
Note_Duration_480
Beat_14
Note_On_54
Note_Velocity_44
Note_Duration_240
Bar_None
Beat_0
Chord_F#:dom
Beat_0
Tempo_76
Beat_0
Note_On_42
Note_Velocity_52
Note_Duration_960
Beat_0
Note_On_73
Note_Velocity_56
Note_Duration_720
Beat_0
Note_On_70
Note_Velocity_60
Note_Duration_960
Beat_0
Note_On_58
Note_Velocity_48
Note_Duration_60
Beat_0
Note_On_63
Note_Velocity_48
Note_Duration_480
Beat_2
Note_On_49
Note_Velocity_40
Note_Duration_540
Beat_4
Tempo_77
Beat_4
Note_On_58
Note_Velocity_52
Note_Duration_480
Beat_4
Note_On_63
Note_Velocity_56
Note_Duration_480
Beat_6
Note_On_54
Note_Velocity_40
Note_Duration_300
Beat_6
Note_On_73
Note_Velocity_60
Note_Duration_240
Beat_7
Note_On_80
Note_Velocity_68
Note_Duration_180
Beat_8
Tempo_75
Beat_8
Note_On_44
Note_Velocity_56
Note_Duration_480
Beat_8
Note_On_76
Note_Velocity_64
Note_Duration_1080
Beat_10
Note_On_54
Note_Velocity_48
Note_Duration_240
Beat_12
Tempo_75
Beat_12
Note_On_44
Note_Velocity_52
Note_Duration_480
Beat_12
Note_On_54
Note_Velocity_48
Note_Duration_480
Beat_14
Note_On_63
Note_Velocity_60
Note_Duration_240
Bar_None
Beat_0
Chord_C#:min
Beat_0
Tempo_75
Beat_0
Note_On_45
Note_Velocity_60
Note_Duration_960
Beat_0
Note_On_64
Note_Velocity_64
Note_Duration_720
Beat_0
Note_On_73
Note_Velocity_68
Note_Duration_60
Beat_0
Note_On_57
Note_Velocity_52
Note_Duration_480
Beat_2
Note_On_52
Note_Velocity_48
Note_Duration_780
Beat_4
Tempo_75
Beat_4
Note_On_57
Note_Velocity_52
Note_Duration_540
Beat_4
Note_On_76
Note_Velocity_64
Note_Duration_300
Beat_6
Note_On_85
Note_Velocity_68
Note_Duration_240
Beat_6
Note_On_64
Note_Velocity_52
Note_Duration_240
Beat_7
Note_On_78
Note_Velocity_60
Note_Duration_60
Beat_8
Tempo_75
Beat_8
Note_On_73
Note_Velocity_60
Note_Duration_1080
Beat_8
Note_On_85
Note_Velocity_72
Note_Duration_360
Beat_10
Note_On_47
Note_Velocity_56
Note_Duration_360
Beat_12
Tempo_76
Beat_12
Note_On_59
Note_Velocity_64
Note_Duration_480
Beat_12
Note_On_63
Note_Velocity_60
Note_Duration_480
Beat_14
Note_On_47
Note_Velocity_56
Note_Duration_240
Bar_None
Beat_0
Chord_E:maj
Beat_0
Tempo_76
Beat_0
Note_On_57
Note_Velocity_72
Note_Duration_360
Beat_0
Note_On_45
Note_Velocity_68
Note_Duration_960
Beat_0
Note_On_64
Note_Velocity_68
Note_Duration_60
Beat_2
Note_On_52
Note_Velocity_56
Note_Duration_720
Beat_4
Tempo_75
Beat_4
Note_On_57
Note_Velocity_64
Note_Duration_480
Beat_4
Note_On_76
Note_Velocity_68
Note_Duration_480
Beat_4
Note_On_88
Note_Velocity_72
Note_Duration_480
Beat_6
Note_On_61
Note_Velocity_64
Note_Duration_240
Beat_7
Note_On_85
Note_Velocity_76
Note_Duration_180
Beat_8
Tempo_78
Beat_8
Note_On_47
Note_Velocity_60
Note_Duration_540
Beat_8
Note_On_57
Note_Velocity_72
Note_Duration_480
Beat_8
Note_On_76
Note_Velocity_72
Note_Duration_60
Beat_10
Note_On_54
Note_Velocity_52
Note_Duration_780
Beat_12
Tempo_76
Beat_12
Note_On_76
Note_Velocity_72
Note_Duration_480
Beat_12
Note_On_57
Note_Velocity_60
Note_Duration_480
Beat_14
Note_On_64
Note_Velocity_60
Note_Duration_240
Bar_None
Beat_0
Chord_F#:min
Beat_0
Tempo_80
Beat_0
Note_On_38
Note_Velocity_64
Note_Duration_1020
Beat_2
Note_On_45
Note_Velocity_52
Note_Duration_240
Beat_2
Note_On_62
Note_Velocity_48
Note_Duration_180
Beat_3
Note_On_50
Note_Velocity_44
Note_Duration_660
Beat_3
Note_On_62
Note_Velocity_48
Note_Duration_60
Beat_4
Tempo_77
Beat_4
Note_On_53
Note_Velocity_60
Note_Duration_540
Beat_4
Note_On_57
Note_Velocity_60
Note_Duration_480
Beat_6
Note_On_61
Note_Velocity_52
Note_Duration_300
Beat_6
Note_On_73
Note_Velocity_68
Note_Duration_240
Beat_7
Note_On_73
Note_Velocity_60
Note_Duration_180
Beat_8
Tempo_75
Beat_8
Note_On_43
Note_Velocity_64
Note_Duration_240
Beat_8
Note_On_73
Note_Velocity_68
Note_Duration_540
Beat_8
Note_On_58
Note_Velocity_68
Note_Duration_60
Beat_10
Note_On_43
Note_Velocity_56
Note_Duration_240
Beat_10
Note_On_55
Note_Velocity_60
Note_Duration_240
Beat_12
Tempo_76
Beat_12
Note_On_44
Note_Velocity_64
Note_Duration_480
Beat_12
Note_On_54
Note_Velocity_68
Note_Duration_480
Beat_12
Note_On_75
Note_Velocity_72
Note_Duration_480
Beat_12
Note_On_71
Note_Velocity_60
Note_Duration_480
Beat_14
Note_On_54
Note_Velocity_52
Note_Duration_300
Bar_None
Beat_0
Chord_C#:min
Beat_0
Tempo_77
Beat_0
Note_On_45
Note_Velocity_56
Note_Duration_480
Beat_0
Note_On_57
Note_Velocity_56
Note_Duration_60
Beat_0
Note_On_64
Note_Velocity_60
Note_Duration_720
Beat_0
Note_On_73
Note_Velocity_64
Note_Duration_240
Beat_2
Note_On_52
Note_Velocity_56
Note_Duration_720
Beat_2
Note_On_73
Note_Velocity_68
Note_Duration_480
Beat_4
Tempo_75
Beat_4
Note_On_45
Note_Velocity_56
Note_Duration_540
Beat_4
Note_On_57
Note_Velocity_52
Note_Duration_540
Beat_4
Note_On_76
Note_Velocity_68
Note_Duration_480
Beat_6
Note_On_61
Note_Velocity_60
Note_Duration_300
Beat_6
Note_On_73
Note_Velocity_76
Note_Duration_240
Beat_6
Note_On_88
Note_Velocity_76
Note_Duration_240
Beat_7
Note_On_73
Note_Velocity_72
Note_Duration_120
Beat_8
Tempo_78
Beat_8
Note_On_44
Note_Velocity_64
Note_Duration_960
Beat_8
Note_On_76
Note_Velocity_64
Note_Duration_1020
Beat_10
Note_On_51
Note_Velocity_52
Note_Duration_480
Beat_12
Tempo_76
Beat_12
Note_On_76
Note_Velocity_68
Note_Duration_480
Beat_12
Note_On_56
Note_Velocity_60
Note_Duration_480
Beat_12
Note_On_68
Note_Velocity_68
Note_Duration_480
Beat_14
Note_On_51
Note_Velocity_48
Note_Duration_240
Bar_None
Beat_0
Chord_F#:dom
Beat_0
Tempo_75
Beat_0
Note_On_42
Note_Velocity_56
Note_Duration_960
Beat_0
Note_On_73
Note_Velocity_68
Note_Duration_480
Beat_2
Note_On_54
Note_Velocity_52
Note_Duration_180
Beat_2
Note_On_61
Note_Velocity_56
Note_Duration_180
Beat_3
Note_On_70
Note_Velocity_64
Note_Duration_60
Beat_4
Tempo_80
Beat_4
Note_On_61
Note_Velocity_64
Note_Duration_540
Beat_4
Note_On_65
Note_Velocity_68
Note_Duration_540
Beat_4
Note_On_73
Note_Velocity_72
Note_Duration_540
Beat_6
Note_On_54
Note_Velocity_56
Note_Duration_300
Beat_7
Note_On_70
Note_Velocity_56
Note_Duration_120
Beat_7
Note_On_78
Note_Velocity_64
Note_Duration_120
Beat_8
Tempo_78
Beat_8
Note_On_44
Note_Velocity_60
Note_Duration_480
Beat_8
Note_On_68
Note_Velocity_64
Note_Duration_120
Beat_9
Note_On_78
Note_Velocity_68
Note_Duration_840
Beat_9
Note_On_68
Note_Velocity_56
Note_Duration_180
Beat_10
Note_On_56
Note_Velocity_52
Note_Duration_240
Beat_11
Note_On_68
Note_Velocity_72
Note_Duration_660
Beat_11
Note_On_80
Note_Velocity_72
Note_Duration_660
Beat_12
Tempo_81
Beat_12
Note_On_32
Note_Velocity_56
Note_Duration_60
Beat_12
Note_On_44
Note_Velocity_60
Note_Duration_240
Beat_14
Note_On_60
Note_Velocity_60
Note_Duration_240
Beat_14
Note_On_63
Note_Velocity_64
Note_Duration_240
Bar_None
Beat_0
Chord_G#:aug
Beat_0
Tempo_77
Beat_0
Note_On_33
Note_Velocity_64
Note_Duration_360
Beat_0
Note_On_45
Note_Velocity_64
Note_Duration_720
Beat_0
Note_On_72
Note_Velocity_68
Note_Duration_60
Beat_1
Note_On_64
Note_Velocity_64
Note_Duration_240
Beat_2
Note_On_72
Note_Velocity_68
Note_Duration_120
Beat_2
Note_On_52
Note_Velocity_56
Note_Duration_480
Beat_2
Note_On_57
Note_Velocity_56
Note_Duration_660
Beat_3
Note_On_64
Note_Velocity_72
Note_Duration_420
Beat_3
Note_On_72
Note_Velocity_76
Note_Duration_360
Beat_4
Tempo_77
Beat_4
Note_On_76
Note_Velocity_72
Note_Duration_240
Beat_6
Note_On_45
Note_Velocity_56
Note_Duration_240
Beat_6
Note_On_69
Note_Velocity_60
Note_Duration_240
Beat_6
Note_On_76
Note_Velocity_64
Note_Duration_240
Beat_6
Note_On_57
Note_Velocity_52
Note_Duration_60
Beat_7
Note_On_64
Note_Velocity_60
Note_Duration_120
Beat_7
Note_On_73
Note_Velocity_72
Note_Duration_120
Beat_8
Chord_A#:min
Beat_8
Tempo_80
Beat_8
Note_On_39
Note_Velocity_60
Note_Duration_540
Beat_8
Note_On_75
Note_Velocity_76
Note_Duration_540
Beat_8
Note_On_63
Note_Velocity_68
Note_Duration_480
Beat_8
Note_On_70
Note_Velocity_60
Note_Duration_60
Beat_10
Note_On_54
Note_Velocity_56
Note_Duration_300
Beat_12
Tempo_77
Beat_12
Note_On_32
Note_Velocity_64
Note_Duration_480
Beat_12
Note_On_44
Note_Velocity_64
Note_Duration_480
Beat_12
Note_On_58
Note_Velocity_68
Note_Duration_360
Beat_14
Note_On_75
Note_Velocity_72
Note_Duration_300
Beat_14
Note_On_54
Note_Velocity_56
Note_Duration_240
Beat_15
Note_On_70
Note_Velocity_68
Note_Duration_120
Bar_None
Beat_0
Chord_E:maj
Beat_0
Tempo_77
Beat_0
Note_On_42
Note_Velocity_68
Note_Duration_480
Beat_0
Note_On_54
Note_Velocity_68
Note_Duration_360
Beat_0
Note_On_66
Note_Velocity_72
Note_Duration_60
Beat_0
Note_On_78
Note_Velocity_76
Note_Duration_960
Beat_2
Note_On_49
Note_Velocity_60
Note_Duration_300
Beat_4
Tempo_80
Beat_4
Note_On_45
Note_Velocity_64
Note_Duration_540
Beat_4
Note_On_57
Note_Velocity_64
Note_Duration_480
Beat_4
Note_On_69
Note_Velocity_68
Note_Duration_240
Beat_4
Note_On_52
Note_Velocity_60
Note_Duration_480
Beat_6
Note_On_64
Note_Velocity_64
Note_Duration_240
Beat_6
Note_On_69
Note_Velocity_60
Note_Duration_240
Beat_7
Note_On_68
Note_Velocity_68
Note_Duration_120
Beat_8
Tempo_77
Beat_8
Note_On_35
Note_Velocity_68
Note_Duration_1020
Beat_8
Note_On_47
Note_Velocity_64
Note_Duration_60
Beat_8
Note_On_75
Note_Velocity_76
Note_Duration_960
Beat_10
Note_On_71
Note_Velocity_72
Note_Duration_720
Beat_10
Note_On_54
Note_Velocity_52
Note_Duration_720
Beat_12
Tempo_76
Beat_12
Note_On_59
Note_Velocity_68
Note_Duration_480
Beat_12
Note_On_63
Note_Velocity_72
Note_Duration_480
Beat_14
Note_On_59
Note_Velocity_56
Note_Duration_240
Bar_None
Beat_0
Chord_F#:dim
Beat_0
Tempo_76
Beat_0
Note_On_42
Note_Velocity_68
Note_Duration_720
Beat_0
Note_On_81
Note_Velocity_76
Note_Duration_240
Beat_0
Note_On_69
Note_Velocity_68
Note_Duration_240
Beat_1
Note_On_57
Note_Velocity_60
Note_Duration_180
Beat_2
Note_On_57
Note_Velocity_56
Note_Duration_180
Beat_3
Note_On_81
Note_Velocity_76
Note_Duration_420
Beat_3
Note_On_54
Note_Velocity_56
Note_Duration_360
Beat_3
Note_On_69
Note_Velocity_64
Note_Duration_300
Beat_4
Tempo_77
Beat_4
Note_On_61
Note_Velocity_68
Note_Duration_240
Beat_5
Note_On_66
Note_Velocity_72
Note_Duration_180
Beat_6
Note_On_68
Note_Velocity_72
Note_Duration_240
Beat_6
Note_On_73
Note_Velocity_76
Note_Duration_240
Beat_6
Note_On_37
Note_Velocity_72
Note_Duration_60
Beat_6
Note_On_49
Note_Velocity_72
Note_Duration_60
Beat_8
Tempo_85
Beat_8
Note_On_39
Note_Velocity_68
Note_Duration_960
Beat_8
Note_On_67
Note_Velocity_72
Note_Duration_480
Beat_8
Note_On_73
Note_Velocity_76
Note_Duration_480
Beat_10
Note_On_54
Note_Velocity_56
Note_Duration_780
Beat_10
Note_On_78
Note_Velocity_76
Note_Duration_780
Beat_12
Tempo_76
Beat_12
Note_On_58
Note_Velocity_64
Note_Duration_540
Beat_12
Note_On_63
Note_Velocity_72
Note_Duration_480
Beat_12
Note_On_69
Note_Velocity_68
Note_Duration_540
Beat_12
Note_On_73
Note_Velocity_68
Note_Duration_180
Beat_14
Note_On_73
Note_Velocity_64
Note_Duration_180
Bar_None
Beat_0
Chord_D#:dim
Beat_0
Tempo_80
Beat_0
Note_On_45
Note_Velocity_60
Note_Duration_480
Beat_0
Note_On_57
Note_Velocity_64
Note_Duration_360
Beat_0
Note_On_64
Note_Velocity_68
Note_Duration_60
Beat_1
Note_On_73
Note_Velocity_68
Note_Duration_180
Beat_3
Note_On_57
Note_Velocity_56
Note_Duration_60
Beat_3
Note_On_73
Note_Velocity_72
Note_Duration_60
Beat_4
Tempo_77
Beat_6
Note_On_33
Note_Velocity_68
Note_Duration_240
Beat_7
Note_On_69
Note_Velocity_64
Note_Duration_120
Beat_8
Tempo_81
Beat_8
Note_On_33
Note_Velocity_64
Note_Duration_480
Beat_8
Note_On_45
Note_Velocity_60
Note_Duration_480
Beat_9
Note_On_73
Note_Velocity_76
Note_Duration_900
Beat_10
Note_On_52
Note_Velocity_52
Note_Duration_720
Beat_10
Note_On_78
Note_Velocity_76
Note_Duration_780
Beat_12
Tempo_78
Beat_12
Note_On_57
Note_Velocity_64
Note_Duration_540
Beat_12
Note_On_64
Note_Velocity_72
Note_Duration_540
Beat_12
Note_On_45
Note_Velocity_60
Note_Duration_480
Beat_12
Note_On_73
Note_Velocity_72
Note_Duration_240
Beat_14
Note_On_61
Note_Velocity_72
Note_Duration_300
Beat_14
Note_On_73
Note_Velocity_64
Note_Duration_240
Bar_None
Beat_0
Chord_A:dom
Beat_0
Tempo_83
Beat_0
Note_On_33
Note_Velocity_68
Note_Duration_720
Beat_0
Note_On_45
Note_Velocity_68
Note_Duration_720
Beat_0
Note_On_71
Note_Velocity_72
Note_Duration_1020
Beat_1
Note_On_73
Note_Velocity_72
Note_Duration_840
Beat_3
Note_On_52
Note_Velocity_60
Note_Duration_360
Beat_4
Tempo_77
Beat_4
Note_On_57
Note_Velocity_64
Note_Duration_540
Beat_4
Note_On_64
Note_Velocity_72
Note_Duration_480
Beat_4
Note_On_52
Note_Velocity_60
Note_Duration_480
Beat_6
Note_On_45
Note_Velocity_64
Note_Duration_300
Beat_6
Note_On_69
Note_Velocity_64
Note_Duration_240
Beat_6
Note_On_81
Note_Velocity_76
Note_Duration_240
Beat_6
Note_On_76
Note_Velocity_64
Note_Duration_240
Beat_8
Chord_C#:min
Beat_8
Tempo_83
Beat_8
Note_On_39
Note_Velocity_68
Note_Duration_480
Beat_8
Note_On_79
Note_Velocity_76
Note_Duration_60
Beat_8
Note_On_67
Note_Velocity_68
Note_Duration_60
Beat_8
Note_On_70
Note_Velocity_64
Note_Duration_60
Beat_10
Note_On_73
Note_Velocity_72
Note_Duration_480
Beat_10
Note_On_79
Note_Velocity_72
Note_Duration_480
Beat_10
Note_On_51
Note_Velocity_56
Note_Duration_720
Beat_12
Tempo_77
Beat_12
Note_On_55
Note_Velocity_60
Note_Duration_540
Beat_12
Note_On_61
Note_Velocity_72
Note_Duration_540
Beat_12
Note_On_69
Note_Velocity_64
Note_Duration_540
Beat_12
Note_On_73
Note_Velocity_72
Note_Duration_480
Beat_14
Note_On_63
Note_Velocity_68
Note_Duration_300
Beat_14
Note_On_75
Note_Velocity_68
Note_Duration_300
Bar_None
Beat_0
Tempo_83
Beat_0
Note_On_45
Note_Velocity_64
Note_Duration_720
Beat_0
Note_On_52
Note_Velocity_64
Note_Duration_720
Beat_0
Note_On_69
Note_Velocity_64
Note_Duration_60
Beat_0
Note_On_73
Note_Velocity_72
Note_Duration_960
Beat_2
Note_On_81
Note_Velocity_76
Note_Duration_240
Beat_2
Note_On_57
Note_Velocity_56
Note_Duration_180
Beat_3
Note_On_69
Note_Velocity_72
Note_Duration_360
Beat_3
Note_On_81
Note_Velocity_76
Note_Duration_360
Beat_4
Tempo_75
Beat_4
Note_On_61
Note_Velocity_68
Note_Duration_240
Beat_4
Note_On_64
Note_Velocity_72
Note_Duration_240
Beat_4
Note_On_78
Note_Velocity_72
Note_Duration_240
Beat_6
Note_On_45
Note_Velocity_60
Note_Duration_300
Beat_6
Note_On_64
Note_Velocity_60
Note_Duration_240
Beat_6
Note_On_76
Note_Velocity_68
Note_Duration_240
Beat_6
Note_On_57
Note_Velocity_56
Note_Duration_240
Beat_7
Note_On_73
Note_Velocity_76
Note_Duration_120
Beat_8
Chord_C#:min
Beat_8
Tempo_81
Beat_8
Note_On_39
Note_Velocity_64
Note_Duration_1020
Beat_8
Note_On_79
Note_Velocity_76
Note_Duration_60
Beat_8
Note_On_67
Note_Velocity_68
Note_Duration_60
Beat_10
Note_On_78
Note_Velocity_76
Note_Duration_780
Beat_11
Note_On_59
Note_Velocity_68
Note_Duration_360
Beat_12
Tempo_75
Beat_12
Note_On_63
Note_Velocity_72
Note_Duration_480
Beat_12
Note_On_57
Note_Velocity_64
Note_Duration_480
Beat_12
Note_On_76
Note_Velocity_76
Note_Duration_480
Beat_14
Note_On_59
Note_Velocity_72
Note_Duration_300
Beat_14
Note_On_73
Note_Velocity_72
Note_Duration_240
Bar_None
Beat_0
Chord_A:dom
Beat_0
Tempo_80
Beat_0
Note_On_45
Note_Velocity_68
Note_Duration_720
Beat_0
Note_On_57
Note_Velocity_72
Note_Duration_480
Beat_0
Note_On_73
Note_Velocity_76
Note_Duration_960
Beat_1
Note_On_71
Note_Velocity_72
Note_Duration_840
Beat_2
Note_On_73
Note_Velocity_72
Note_Duration_180
Beat_3
Note_On_52
Note_Velocity_64
Note_Duration_300
Beat_3
Note_On_76
Note_Velocity_72
Note_Duration_240
Beat_4
Tempo_80
Beat_4
Note_On_57
Note_Velocity_68
Note_Duration_240
Beat_4
Note_On_64
Note_Velocity_76
Note_Duration_540
Beat_4
Note_On_78
Note_Velocity_76
Note_Duration_240
Beat_5
Note_On_76
Note_Velocity_72
Note_Duration_420
Beat_6
Note_On_52
Note_Velocity_56
Note_Duration_300
Beat_6
Note_On_69
Note_Velocity_60
Note_Duration_240
Beat_6
Note_On_81
Note_Velocity_80
Note_Duration_240
Beat_7
Note_On_40
Note_Velocity_60
Note_Duration_120
Beat_8
Tempo_76
Beat_8
Note_On_71
Note_Velocity_76
Note_Duration_480
Beat_8
Note_On_81
Note_Velocity_76
Note_Duration_1020
Beat_10
Note_On_52
Note_Velocity_60
Note_Duration_360
Beat_11
Note_On_59
Note_Velocity_68
Note_Duration_600
Beat_12
Tempo_75
Beat_12
Note_On_64
Note_Velocity_72
Note_Duration_480
Beat_12
Note_On_71
Note_Velocity_72
Note_Duration_480
Beat_14
Note_On_52
Note_Velocity_64
Note_Duration_300
