Bar_None
Beat_0
Chord_B:maj
Beat_0
Tempo_146
Beat_0
Note_On_78
Note_Velocity_76
Note_Duration_480
Beat_0
Note_On_47
Note_Velocity_60
Note_Duration_1680
Beat_0
Note_On_59
Note_Velocity_64
Note_Duration_60
Beat_0
Note_On_71
Note_Velocity_68
Note_Duration_960
Beat_0
Note_On_75
Note_Velocity_68
Note_Duration_900
Beat_2
Note_On_54
Note_Velocity_64
Note_Duration_240
Beat_4
Tempo_139
Beat_4
Note_On_78
Note_Velocity_76
Note_Duration_240
Beat_4
Note_On_54
Note_Velocity_64
Note_Duration_240
Beat_4
Note_On_59
Note_Velocity_64
Note_Duration_240
Beat_6
Note_On_66
Note_Velocity_68
Note_Duration_60
Beat_6
Note_On_78
Note_Velocity_72
Note_Duration_120
Beat_7
Note_On_78
Note_Velocity_56
Note_Duration_60
Beat_8
Chord_B:maj
Beat_8
Tempo_139
Beat_8
Note_On_71
Note_Velocity_72
Note_Duration_60
Beat_8
Note_On_75
Note_Velocity_68
Note_Duration_60
Beat_8
Note_On_59
Note_Velocity_52
Note_Duration_180
Beat_8
Note_On_83
Note_Velocity_72
Note_Duration_60
Beat_10
Note_On_54
Note_Velocity_60
Note_Duration_360
Beat_12
Tempo_142
Beat_12
Note_On_70
Note_Velocity_72
Note_Duration_300
Beat_12
Note_On_75
Note_Velocity_76
Note_Duration_300
Beat_12
Note_On_82
Note_Velocity_72
Note_Duration_1200
Beat_14
Note_On_46
Note_Velocity_68
Note_Duration_60
Bar_None
Beat_0
Chord_G#:min
Beat_0
Tempo_139
Beat_0
Note_On_42
Note_Velocity_60
Note_Duration_60
Beat_0
Note_On_61
Note_Velocity_68
Note_Duration_180
Beat_0
Note_On_64
Note_Velocity_68
Note_Duration_120
Beat_0
Note_On_68
Note_Velocity_68
Note_Duration_120
Beat_2
Note_On_54
Note_Velocity_64
Note_Duration_240
Beat_4
Tempo_146
Beat_4
Note_On_82
Note_Velocity_76
Note_Duration_240
Beat_4
Note_On_54
Note_Velocity_60
Note_Duration_240
Beat_5
Note_On_61
Note_Velocity_56
Note_Duration_120
Beat_6
Note_On_63
Note_Velocity_68
Note_Duration_60
Beat_6
Note_On_80
Note_Velocity_72
Note_Duration_60
Beat_7
Note_On_54
Note_Velocity_64
Note_Duration_120
Beat_7
Note_On_85
Note_Velocity_76
Note_Duration_120
Beat_8
Tempo_146
Beat_8
Note_On_54
Note_Velocity_64
Note_Duration_120
Beat_8
Note_On_80
Note_Velocity_72
Note_Duration_180
Beat_10
Note_On_46
Note_Velocity_68
Note_Duration_60
Beat_10
Note_On_76
Note_Velocity_76
Note_Duration_120
Beat_12
Tempo_142
Beat_12
Note_On_61
Note_Velocity_68
Note_Duration_60
Beat_12
Note_On_66
Note_Velocity_72
Note_Duration_60
Beat_12
Note_On_75
Note_Velocity_72
Note_Duration_60
Beat_14
Note_On_52
Note_Velocity_68
Note_Duration_120
Bar_None
Beat_0
Chord_F#:min
Beat_0
Tempo_139
Beat_0
Note_On_42
Note_Velocity_64
Note_Duration_60
Beat_0
Note_On_54
Note_Velocity_68
Note_Duration_480
Beat_0
Note_On_69
Note_Velocity_72
Note_Duration_60
Beat_0
Note_On_76
Note_Velocity_76
Note_Duration_780
Beat_4
Tempo_139
Beat_4
Note_On_54
Note_Velocity_64
Note_Duration_60
Beat_4
Note_On_57
Note_Velocity_60
Note_Duration_240
Beat_4
Note_On_85
Note_Velocity_80
Note_Duration_360
Beat_6
Note_On_54
Note_Velocity_60
Note_Duration_120
Beat_6
Note_On_57
Note_Velocity_60
Note_Duration_120
Beat_7
Note_On_81
Note_Velocity_72
Note_Duration_60
Beat_8
Tempo_142
Beat_8
Note_On_85
Note_Velocity_76
Note_Duration_60
Beat_8
Note_On_52
Note_Velocity_60
Note_Duration_60
Beat_8
Note_On_61
Note_Velocity_68
Note_Duration_60
Beat_8
Note_On_74
Note_Velocity_68
Note_Duration_60
Beat_8
Note_On_81
Note_Velocity_60
Note_Duration_60
Beat_10
Note_On_83
Note_Velocity_76
Note_Duration_60
Beat_12
Tempo_136
Beat_12
Note_On_47
Note_Velocity_60
Note_Duration_480
Beat_12
Note_On_83
Note_Velocity_76
Note_Duration_540
Beat_14
Note_On_78
Note_Velocity_80
Note_Duration_300
Bar_None
Beat_0
Chord_C#:min
Beat_0
Tempo_136
Beat_0
Note_On_76
Note_Velocity_76
Note_Duration_480
Beat_0
Note_On_45
Note_Velocity_60
Note_Duration_540
Beat_0
Note_On_57
Note_Velocity_56
Note_Duration_60
Beat_0
Note_On_69
Note_Velocity_68
Note_Duration_960
Beat_2
Note_On_54
Note_Velocity_64
Note_Duration_240
Beat_4
Tempo_142
Beat_4
Note_On_85
Note_Velocity_72
Note_Duration_60
Beat_4
Note_On_54
Note_Velocity_60
Note_Duration_60
Beat_4
Note_On_57
Note_Velocity_60
Note_Duration_60
Beat_6
Note_On_63
Note_Velocity_52
Note_Duration_60
Beat_6
Note_On_88
Note_Velocity_68
Note_Duration_60
Beat_7
Note_On_54
Note_Velocity_48
Note_Duration_120
Beat_8
Tempo_146
Beat_8
Note_On_54
Note_Velocity_64
Note_Duration_60
Beat_8
Note_On_81
Note_Velocity_72
Note_Duration_300
Beat_8
Note_On_85
Note_Velocity_72
Note_Duration_60
Beat_10
Note_On_47
Note_Velocity_64
Note_Duration_60
Beat_12
Tempo_142
Beat_12
Note_On_63
Note_Velocity_72
Note_Duration_60
Beat_12
Note_On_71
Note_Velocity_72
Note_Duration_60
Beat_12
Note_On_75
Note_Velocity_68
Note_Duration_60
Beat_14
Note_On_52
Note_Velocity_60
Note_Duration_120
Bar_None
Beat_0
Chord_F#:min
Beat_0
Tempo_142
Beat_0
Note_On_85
Note_Velocity_76
Note_Duration_60
Beat_0
Note_On_57
Note_Velocity_64
Note_Duration_60
Beat_0
Note_On_61
Note_Velocity_64
Note_Duration_60
Beat_0
Note_On_76
Note_Velocity_72
Note_Duration_60
Beat_2
Note_On_54
Note_Velocity_60
Note_Duration_240
Beat_2
Note_On_90
Note_Velocity_72
Note_Duration_60
Beat_4
Tempo_153
Beat_4
Note_On_88
Note_Velocity_68
Note_Duration_60
Beat_4
Note_On_85
Note_Velocity_72
Note_Duration_60
Beat_4
Note_On_54
Note_Velocity_64
Note_Duration_60
Beat_6
Note_On_47
Note_Velocity_68
Note_Duration_60
Beat_6
Note_On_76
Note_Velocity_76
Note_Duration_60
Beat_6
Note_On_88
Note_Velocity_72
Note_Duration_60
Beat_8
Tempo_150
Beat_8
Note_On_64
Note_Velocity_68
Note_Duration_60
Beat_8
Note_On_73
Note_Velocity_72
Note_Duration_60
Beat_8
Note_On_76
Note_Velocity_68
Note_Duration_60
Beat_8
Note_On_88
Note_Velocity_72
Note_Duration_60
Beat_10
Note_On_54
Note_Velocity_64
Note_Duration_120
Beat_12
Tempo_150
Beat_12
Note_On_61
Note_Velocity_68
Note_Duration_60
Beat_12
Note_On_64
Note_Velocity_68
Note_Duration_60
Beat_14
Note_On_56
Note_Velocity_60
Note_Duration_120
Bar_None
Beat_0
Chord_A:maj
Beat_0
Tempo_146
Beat_0
Note_On_57
Note_Velocity_68
Note_Duration_60
Beat_0
Note_On_64
Note_Velocity_72
Note_Duration_60
Beat_0
Note_On_93
Note_Velocity_76
Note_Duration_60
Beat_2
Note_On_57
Note_Velocity_64
Note_Duration_180
Beat_4
Tempo_142
Beat_4
Note_On_88
Note_Velocity_68
Note_Duration_60
Beat_4
Note_On_52
Note_Velocity_68
Note_Duration_60
Beat_4
Note_On_81
Note_Velocity_72
Note_Duration_60
Beat_6
Note_On_45
Note_Velocity_64
Note_Duration_60
Beat_6
Note_On_88
Note_Velocity_72
Note_Duration_60
Beat_7
Note_On_85
Note_Velocity_76
Note_Duration_120
Beat_8
Tempo_136
Beat_8
Note_On_85
Note_Velocity_76
Note_Duration_60
Beat_8
Note_On_57
Note_Velocity_60
Note_Duration_60
Beat_8
Note_On_64
Note_Velocity_68
Note_Duration_60
Beat_10
Note_On_56
Note_Velocity_64
Note_Duration_60
Beat_12
Tempo_142
Beat_12
Note_On_64
Note_Velocity_68
Note_Duration_60
Beat_12
Note_On_73
Note_Velocity_72
Note_Duration_60
Beat_14
Note_On_56
Note_Velocity_60
Note_Duration_120
Bar_None
Beat_0
Chord_F#:min
Beat_0
Tempo_150
Beat_0
Note_On_38
Note_Velocity_68
Note_Duration_180
Beat_2
Note_On_49
Note_Velocity_68
Note_Duration_240
Beat_2
Note_On_74
Note_Velocity_76
Note_Duration_360
Beat_2
Note_On_86
Note_Velocity_80
Note_Duration_360
Beat_3
Note_On_53
Note_Velocity_60
Note_Duration_180
Beat_4
Tempo_142
Beat_4
Note_On_56
Note_Velocity_60
Note_Duration_60
Beat_4
Note_On_85
Note_Velocity_80
Note_Duration_300
Beat_6
Note_On_42
Note_Velocity_64
Note_Duration_60
Beat_6
Note_On_54
Note_Velocity_60
Note_Duration_60
Beat_6
Note_On_86
Note_Velocity_76
Note_Duration_60
Beat_8
Tempo_142
Beat_8
Note_On_45
Note_Velocity_64
Note_Duration_60
Beat_8
Note_On_57
Note_Velocity_64
Note_Duration_240
Beat_8
Note_On_73
Note_Velocity_72
Note_Duration_240
Beat_8
Note_On_85
Note_Velocity_76
Note_Duration_240
Beat_10
Note_On_45
Note_Velocity_64
Note_Duration_60
Beat_10
Note_On_52
Note_Velocity_64
Note_Duration_60
Beat_10
Note_On_61
Note_Velocity_64
Note_Duration_60
Beat_10
Note_On_73
Note_Velocity_76
Note_Duration_60
Beat_10
Note_On_85
Note_Velocity_72
Note_Duration_60
Beat_12
Tempo_150
Beat_12
Note_On_85
Note_Velocity_76
Note_Duration_240
Beat_12
Note_On_57
Note_Velocity_64
Note_Duration_60
Beat_12
Note_On_73
Note_Velocity_72
Note_Duration_240
Beat_14
Note_On_54
Note_Velocity_64
Note_Duration_180
Beat_14
Note_On_66
Note_Velocity_64
Note_Duration_720
Beat_14
Note_On_71
Note_Velocity_72
Note_Duration_720
Beat_14
Note_On_78
Note_Velocity_72
Note_Duration_720
Bar_None
Beat_0
Chord_A:maj
Beat_0
Tempo_150
Beat_0
Note_On_45
Note_Velocity_56
Note_Duration_60
Beat_0
Note_On_52
Note_Velocity_56
Note_Duration_60
Beat_0
Note_On_57
Note_Velocity_60
Note_Duration_60
Beat_2
Note_On_52
Note_Velocity_68
Note_Duration_240
Beat_2
Note_On_88
Note_Velocity_68
Note_Duration_60
Beat_4
Tempo_150
Beat_4
Note_On_61
Note_Velocity_64
Note_Duration_60
Beat_4
Note_On_73
Note_Velocity_72
Note_Duration_60
Beat_4
Note_On_85
Note_Velocity_68
Note_Duration_60
Beat_6
Note_On_61
Note_Velocity_64
Note_Duration_60
Beat_6
Note_On_64
Note_Velocity_64
Note_Duration_120
Beat_6
Note_On_76
Note_Velocity_76
Note_Duration_120
Beat_6
Note_On_88
Note_Velocity_72
Note_Duration_120
Beat_8
Tempo_146
Beat_8
Note_On_45
Note_Velocity_64
Note_Duration_60
Beat_8
Note_On_61
Note_Velocity_64
Note_Duration_60
Beat_8
Note_On_76
Note_Velocity_76
Note_Duration_60
Beat_8
Note_On_88
Note_Velocity_76
Note_Duration_120
Beat_10
Note_On_52
Note_Velocity_68
Note_Duration_120
Beat_12
Tempo_146
Beat_12
Note_On_81
Note_Velocity_76
Note_Duration_300
Beat_12
Note_On_93
Note_Velocity_76
Note_Duration_480
Beat_12
Note_On_57
Note_Velocity_64
Note_Duration_60
Beat_14
Note_On_52
Note_Velocity_60
Note_Duration_120
Bar_None
Beat_0
Chord_A:maj
Beat_0
Tempo_139
Beat_0
Note_On_45
Note_Velocity_68
Note_Duration_60
Beat_0
Note_On_73
Note_Velocity_76
Note_Duration_480
Beat_0
Note_On_85
Note_Velocity_72
Note_Duration_180
Beat_2
Note_On_52
Note_Velocity_56
Note_Duration_240
Beat_2
Note_On_76
Note_Velocity_68
Note_Duration_180
Beat_2
Note_On_88
Note_Velocity_64
Note_Duration_180
Beat_4
Tempo_146
Beat_4
Note_On_59
Note_Velocity_56
Note_Duration_60
Beat_4
Note_On_61
Note_Velocity_60
Note_Duration_60
Beat_4
Note_On_73
Note_Velocity_72
Note_Duration_60
Beat_4
Note_On_85
Note_Velocity_72
Note_Duration_60
Beat_6
Note_On_40
Note_Velocity_64
Note_Duration_60
Beat_7
Note_On_74
Note_Velocity_72
Note_Duration_120
Beat_7
Note_On_86
Note_Velocity_76
Note_Duration_60
Beat_7
Note_On_85
Note_Velocity_72
Note_Duration_120
Beat_8
Tempo_142
Beat_8
Note_On_69
Note_Velocity_64
Note_Duration_60
Beat_8
Note_On_74
Note_Velocity_68
Note_Duration_120
Beat_8
Note_On_85
Note_Velocity_72
Note_Duration_60
Beat_9
Note_On_42
Note_Velocity_56
Note_Duration_120
Beat_10
Note_On_52
Note_Velocity_60
Note_Duration_60
Beat_10
Note_On_62
Note_Velocity_68
Note_Duration_60
Beat_12
Tempo_142
Beat_12
Note_On_59
Note_Velocity_64
Note_Duration_60
Beat_12
Note_On_62
Note_Velocity_72
Note_Duration_60
Beat_12
Note_On_64
Note_Velocity_68
Note_Duration_60
Beat_14
Note_On_64
Note_Velocity_64
Note_Duration_120
Beat_14
Note_On_32
Note_Velocity_52
Note_Duration_120
Bar_None
Beat_0
Chord_B:min
Beat_0
Tempo_142
Beat_0
Note_On_33
Note_Velocity_68
Note_Duration_60
Beat_0
Note_On_45
Note_Velocity_68
Note_Duration_240
Beat_1
Note_On_69
Note_Velocity_72
Note_Duration_60
Beat_1
Note_On_81
Note_Velocity_76
Note_Duration_60
Beat_2
Note_On_45
Note_Velocity_56
Note_Duration_120
Beat_2
Note_On_52
Note_Velocity_60
Note_Duration_120
Beat_2
Note_On_73
Note_Velocity_64
Note_Duration_60
Beat_2
Note_On_85
Note_Velocity_72
Note_Duration_60
Beat_3
Note_On_76
Note_Velocity_76
Note_Duration_120
Beat_3
Note_On_88
Note_Velocity_76
Note_Duration_120
Beat_4
Tempo_142
Beat_6
Note_On_52
Note_Velocity_64
Note_Duration_240
Beat_6
Note_On_73
Note_Velocity_72
Note_Duration_240
Beat_6
Note_On_85
Note_Velocity_68
Note_Duration_240
Beat_8
Tempo_142
Beat_8
Note_On_54
Note_Velocity_64
Note_Duration_120
Beat_8
Note_On_69
Note_Velocity_72
Note_Duration_60
Beat_8
Note_On_73
Note_Velocity_72
Note_Duration_60
Beat_8
Note_On_85
Note_Velocity_72
Note_Duration_60
Beat_10
Note_On_35
Note_Velocity_64
Note_Duration_120
Beat_10
Note_On_47
Note_Velocity_64
Note_Duration_120
Beat_10
Note_On_71
Note_Velocity_64
Note_Duration_120
Beat_10
Note_On_83
Note_Velocity_68
Note_Duration_120
Beat_12
Tempo_142
Beat_12
Note_On_71
Note_Velocity_68
Note_Duration_60
Beat_12
Note_On_83
Note_Velocity_68
Note_Duration_60
Beat_12
Note_On_74
Note_Velocity_64
Note_Duration_60
Beat_14
Note_On_69
Note_Velocity_60
Note_Duration_240
Beat_14
Note_On_81
Note_Velocity_72
Note_Duration_120
Beat_14
Note_On_52
Note_Velocity_60
Note_Duration_120
Beat_14
Note_On_76
Note_Velocity_60
Note_Duration_60
Bar_None
Beat_0
Chord_F#:min
Beat_0
Tempo_142
Beat_0
Note_On_57
Note_Velocity_68
Note_Duration_60
Beat_0
Note_On_45
Note_Velocity_68
Note_Duration_60
Beat_0
Note_On_69
Note_Velocity_68
Note_Duration_60
Beat_0
Note_On_81
Note_Velocity_72
Note_Duration_120
Beat_2
Note_On_52
Note_Velocity_64
Note_Duration_120
Beat_2
Note_On_76
Note_Velocity_72
Note_Duration_120
Beat_2
Note_On_88
Note_Velocity_68
Note_Duration_60
Beat_4
Tempo_142
Beat_4
Note_On_54
Note_Velocity_64
Note_Duration_120
Beat_4
Note_On_57
Note_Velocity_60
Note_Duration_60
Beat_4
Note_On_76
Note_Velocity_76
Note_Duration_120
Beat_4
Note_On_88
Note_Velocity_72
Note_Duration_120
Beat_6
Note_On_47
Note_Velocity_60
Note_Duration_60
Beat_6
Note_On_54
Note_Velocity_60
Note_Duration_60
Beat_6
Note_On_71
Note_Velocity_68
Note_Duration_60
Beat_6
Note_On_83
Note_Velocity_64
Note_Duration_60
Beat_7
Note_On_81
Note_Velocity_76
Note_Duration_60
Beat_8
Tempo_150
Beat_8
Note_On_45
Note_Velocity_68
Note_Duration_60
Beat_8
Note_On_57
Note_Velocity_68
Note_Duration_240
Beat_8
Note_On_81
Note_Velocity_72
Note_Duration_60
Beat_10
Note_On_52
Note_Velocity_64
Note_Duration_120
Beat_10
Note_On_57
Note_Velocity_64
Note_Duration_120
Beat_12
Tempo_139
Beat_12
Note_On_66
Note_Velocity_64
Note_Duration_60
Beat_12
Note_On_78
Note_Velocity_72
Note_Duration_60
Beat_12
Note_On_90
Note_Velocity_76
Note_Duration_60
Beat_14
Note_On_57
Note_Velocity_64
Note_Duration_120
Beat_14
Note_On_61
Note_Velocity_64
Note_Duration_60
Bar_None
Beat_0
Chord_D:maj
Beat_0
Tempo_150
Beat_0
Note_On_45
Note_Velocity_56
Note_Duration_60
Beat_0
Note_On_73
Note_Velocity_72
Note_Duration_60
Beat_0
Note_On_85
Note_Velocity_68
Note_Duration_60
Beat_1
Note_On_52
Note_Velocity_56
Note_Duration_60
Beat_1
Note_On_57
Note_Velocity_60
Note_Duration_180
Beat_1
Note_On_73
Note_Velocity_68
Note_Duration_60
Beat_1
Note_On_85
Note_Velocity_68
Note_Duration_60
Beat_3
Note_On_79
Note_Velocity_76
Note_Duration_60
Beat_3
Note_On_88
Note_Velocity_72
Note_Duration_120
Beat_3
Note_On_57
Note_Velocity_68
Note_Duration_60
Beat_3
Note_On_69
Note_Velocity_64
Note_Duration_60
Beat_3
Note_On_61
Note_Velocity_60
Note_Duration_60
Beat_4
Tempo_146
Beat_4
Note_On_73
Note_Velocity_76
Note_Duration_60
Beat_4
Note_On_85
Note_Velocity_68
Note_Duration_60
Beat_5
Note_On_62
Note_Velocity_64
Note_Duration_180
Beat_5
Note_On_81
Note_Velocity_72
Note_Duration_240
Beat_5
Note_On_93
Note_Velocity_76
Note_Duration_60
Beat_6
Note_On_66
Note_Velocity_68
Note_Duration_180
Beat_6
Note_On_73
Note_Velocity_76
Note_Duration_240
Beat_6
Note_On_97
Note_Velocity_76
Note_Duration_300
Beat_6
Note_On_73
Note_Velocity_72
Note_Duration_240
Beat_7
Note_On_93
Note_Velocity_72
Note_Duration_180
Beat_8
Tempo_136
Beat_8
Note_On_57
Note_Velocity_64
Note_Duration_120
Beat_8
Note_On_69
Note_Velocity_68
Note_Duration_120
Beat_8
Note_On_81
Note_Velocity_76
Note_Duration_60
Beat_8
Note_On_93
Note_Velocity_76
Note_Duration_120
Beat_9
Note_On_61
Note_Velocity_60
Note_Duration_60
Beat_10
Note_On_66
Note_Velocity_64
Note_Duration_60
Beat_10
Note_On_69
Note_Velocity_60
Note_Duration_60
Beat_10
Note_On_81
Note_Velocity_72
Note_Duration_60
Beat_10
Note_On_93
Note_Velocity_72
Note_Duration_120
Beat_11
Note_On_57
Note_Velocity_64
Note_Duration_60
Beat_12
Tempo_142
Beat_12
Note_On_59
Note_Velocity_60
Note_Duration_120
Beat_12
Note_On_71
Note_Velocity_68
Note_Duration_120
Beat_12
Note_On_83
Note_Velocity_68
Note_Duration_120
Beat_12
Note_On_95
Note_Velocity_72
Note_Duration_120
Beat_12
Note_On_62
Note_Velocity_64
Note_Duration_60
Beat_13
Note_On_71
Note_Velocity_56
Note_Duration_60
Beat_13
Note_On_64
Note_Velocity_60
Note_Duration_60
Beat_14
Note_On_71
Note_Velocity_64
Note_Duration_240
Beat_14
Note_On_81
Note_Velocity_68
Note_Duration_180
Beat_14
Note_On_93
Note_Velocity_72
Note_Duration_240
Beat_14
Note_On_57
Note_Velocity_56
Note_Duration_180
Beat_14
Note_On_88
Note_Velocity_56
Note_Duration_60
Bar_None
Beat_0
Chord_A:maj
Beat_0
Tempo_153
Beat_0
Note_On_33
Note_Velocity_64
Note_Duration_120
Beat_0
Note_On_45
Note_Velocity_68
Note_Duration_120
Beat_0
Note_On_73
Note_Velocity_76
Note_Duration_60
Beat_0
Note_On_85
Note_Velocity_68
Note_Duration_60
Beat_1
Note_On_52
Note_Velocity_56
Note_Duration_60
Beat_1
Note_On_57
Note_Velocity_60
Note_Duration_60
Beat_1
Note_On_69
Note_Velocity_72
Note_Duration_60
Beat_1
Note_On_81
Note_Velocity_72
Note_Duration_60
Beat_2
Note_On_49
Note_Velocity_60
Note_Duration_60
Beat_3
Note_On_45
Note_Velocity_64
Note_Duration_60
Beat_3
Note_On_52
Note_Velocity_64
Note_Duration_120
Beat_3
Note_On_57
Note_Velocity_60
Note_Duration_120
Beat_3
Note_On_73
Note_Velocity_72
Note_Duration_120
Beat_4
Tempo_139
Beat_6
Note_On_35
Note_Velocity_68
Note_Duration_60
Beat_7
Note_On_47
Note_Velocity_64
Note_Duration_60
Beat_7
Note_On_54
Note_Velocity_68
Note_Duration_60
Beat_7
Note_On_71
Note_Velocity_68
Note_Duration_60
Beat_8
Tempo_142
Beat_8
Note_On_83
Note_Velocity_68
Note_Duration_60
Beat_8
Note_On_59
Note_Velocity_56
Note_Duration_60
Beat_9
Note_On_83
Note_Velocity_76
Note_Duration_120
Beat_9
Note_On_54
Note_Velocity_56
Note_Duration_60
Beat_9
Note_On_71
Note_Velocity_64
Note_Duration_60
Beat_10
Note_On_57
Note_Velocity_64
Note_Duration_60
Beat_10
Note_On_81
Note_Velocity_72
Note_Duration_240
Beat_10
Note_On_69
Note_Velocity_64
Note_Duration_180
Beat_10
Note_On_73
Note_Velocity_72
Note_Duration_180
Beat_12
Tempo_142
Beat_12
Note_On_52
Note_Velocity_68
Note_Duration_120
Beat_12
Note_On_64
Note_Velocity_68
Note_Duration_120
Beat_12
Note_On_73
Note_Velocity_76
Note_Duration_120
Beat_12
Note_On_85
Note_Velocity_76
Note_Duration_120
Beat_14
Note_On_37
Note_Velocity_68
Note_Duration_60
Beat_14
Note_On_49
Note_Velocity_72
Note_Duration_60
Beat_14
Note_On_69
Note_Velocity_72
Note_Duration_60
Beat_14
Note_On_81
Note_Velocity_76
Note_Duration_60
Bar_None
Beat_0
Chord_A:dom
Beat_0
Tempo_142
Beat_0
Note_On_40
Note_Velocity_68
Note_Duration_60
Beat_0
Note_On_67
Note_Velocity_72
Note_Duration_60
Beat_0
Note_On_79
Note_Velocity_76
Note_Duration_60
Beat_1
Note_On_47
Note_Velocity_64
Note_Duration_60
Beat_1
Note_On_55
Note_Velocity_60
Note_Duration_60
Beat_2
Note_On_49
Note_Velocity_60
Note_Duration_60
Beat_3
Note_On_40
Note_Velocity_64
Note_Duration_60
Beat_3
Note_On_52
Note_Velocity_64
Note_Duration_60
Beat_3
Note_On_61
Note_Velocity_68
Note_Duration_60
Beat_3
Note_On_69
Note_Velocity_72
Note_Duration_60
Beat_4
Tempo_146
Beat_4
Note_On_57
Note_Velocity_64
Note_Duration_120
Beat_4
Note_On_71
Note_Velocity_68
Note_Duration_60
Beat_6
Note_On_45
Note_Velocity_60
Note_Duration_60
Beat_6
Note_On_52
Note_Velocity_64
Note_Duration_60
Beat_6
Note_On_55
Note_Velocity_56
Note_Duration_60
Beat_6
Note_On_57
Note_Velocity_52
Note_Duration_60
Beat_6
Note_On_61
Note_Velocity_60
Note_Duration_60
Beat_7
Note_On_79
Note_Velocity_72
Note_Duration_60
Beat_8
Chord_D:maj
Beat_8
Tempo_139
Beat_8
Note_On_57
Note_Velocity_60
Note_Duration_60
Beat_8
Note_On_69
Note_Velocity_68
Note_Duration_60
Beat_8
Note_On_73
Note_Velocity_72
Note_Duration_60
Beat_8
Note_On_85
Note_Velocity_72
Note_Duration_60
Beat_10
Note_On_38
Note_Velocity_60
Note_Duration_60
Beat_10
Note_On_47
Note_Velocity_68
Note_Duration_60
Beat_10
Note_On_50
Note_Velocity_60
Note_Duration_60
Beat_10
Note_On_69
Note_Velocity_68
Note_Duration_60
Beat_10
Note_On_81
Note_Velocity_68
Note_Duration_60
Beat_12
Tempo_139
Beat_12
Note_On_69
Note_Velocity_68
Note_Duration_60
Beat_12
Note_On_81
Note_Velocity_68
Note_Duration_120
Beat_12
Note_On_57
Note_Velocity_56
Note_Duration_180
Beat_14
Note_On_37
Note_Velocity_60
Note_Duration_60
Beat_14
Note_On_49
Note_Velocity_60
Note_Duration_60
Beat_14
Note_On_57
Note_Velocity_64
Note_Duration_60
Beat_14
Note_On_61
Note_Velocity_60
Note_Duration_60
Beat_15
Note_On_81
Note_Velocity_72
Note_Duration_60
Bar_None
Beat_0
Tempo_139
Beat_0
Note_On_45
Note_Velocity_60
Note_Duration_60
Beat_0
Note_On_52
Note_Velocity_64
Note_Duration_60
Beat_0
Note_On_67
Note_Velocity_72
Note_Duration_60
Beat_0
Note_On_79
Note_Velocity_76
Note_Duration_60
Beat_1
Note_On_47
Note_Velocity_64
Note_Duration_60
Beat_1
Note_On_55
Note_Velocity_64
Note_Duration_60
Beat_2
Note_On_73
Note_Velocity_76
Note_Duration_60
Beat_2
Note_On_85
Note_Velocity_76
Note_Duration_60
Beat_3
Note_On_37
Note_Velocity_64
Note_Duration_60
Beat_3
Note_On_49
Note_Velocity_68
Note_Duration_60
Beat_3
Note_On_69
Note_Velocity_72
Note_Duration_60
Beat_3
Note_On_81
Note_Velocity_72
Note_Duration_60
Beat_4
Tempo_142
Beat_4
Note_On_57
Note_Velocity_64
Note_Duration_120
Beat_4
Note_On_61
Note_Velocity_64
Note_Duration_120
Beat_4
Note_On_69
Note_Velocity_72
Note_Duration_60
Beat_4
Note_On_81
Note_Velocity_72
Note_Duration_60
Beat_5
Note_On_61
Note_Velocity_68
Note_Duration_60
Beat_5
Note_On_57
Note_Velocity_56
Note_Duration_60
Beat_5
Note_On_69
Note_Velocity_72
Note_Duration_60
Beat_5
Note_On_81
Note_Velocity_68
Note_Duration_60
Beat_6
Note_On_52
Note_Velocity_60
Note_Duration_60
Beat_6
Note_On_61
Note_Velocity_68
Note_Duration_60
Beat_6
Note_On_69
Note_Velocity_72
Note_Duration_60
Beat_6
Note_On_81
Note_Velocity_72
Note_Duration_60
Beat_7
Note_On_57
Note_Velocity_64
Note_Duration_60
Beat_7
Note_On_76
Note_Velocity_76
Note_Duration_60
Beat_7
Note_On_88
Note_Velocity_72
Note_Duration_60
Beat_8
Chord_B:min
Beat_8
Tempo_136
Beat_8
Note_On_57
Note_Velocity_56
Note_Duration_60
Beat_8
Note_On_73
Note_Velocity_76
Note_Duration_60
Beat_8
Note_On_85
Note_Velocity_68
Note_Duration_60
Beat_8
Note_On_61
Note_Velocity_60
Note_Duration_60
Beat_9
Note_On_57
Note_Velocity_56
Note_Duration_60
Beat_9
Note_On_76
Note_Velocity_76
Note_Duration_60
Beat_9
Note_On_88
Note_Velocity_76
Note_Duration_60
Beat_10
Note_On_45
Note_Velocity_64
Note_Duration_60
Beat_10
Note_On_52
Note_Velocity_60
Note_Duration_60
Beat_10
Note_On_69
Note_Velocity_68
Note_Duration_60
Beat_10
Note_On_81
Note_Velocity_64
Note_Duration_60
Beat_10
Note_On_85
Note_Velocity_72
Note_Duration_60
Beat_12
Tempo_136
Beat_12
Note_On_74
Note_Velocity_72
Note_Duration_60
Beat_12
Note_On_86
Note_Velocity_68
Note_Duration_60
Beat_12
Note_On_57
Note_Velocity_60
Note_Duration_120
Beat_12
Note_On_61
Note_Velocity_60
Note_Duration_120
Beat_13
Note_On_88
Note_Velocity_76
Note_Duration_120
Beat_13
Note_On_49
Note_Velocity_72
Note_Duration_60
Beat_13
Note_On_73
Note_Velocity_76
Note_Duration_60
Beat_13
Note_On_97
Note_Velocity_76
Note_Duration_180
Beat_14
Note_On_45
Note_Velocity_68
Note_Duration_60
Beat_14
Note_On_52
Note_Velocity_68
Note_Duration_60
Beat_14
Note_On_76
Note_Velocity_76
Note_Duration_60
Beat_14
Note_On_88
Note_Velocity_72
Note_Duration_60
Beat_14
Note_On_95
Note_Velocity_68
Note_Duration_60
Bar_None
Beat_0
Chord_A:dom
Beat_0
Tempo_136
Beat_0
Note_On_52
Note_Velocity_72
Note_Duration_60
Beat_0
Note_On_76
Note_Velocity_76
Note_Duration_60
Beat_0
Note_On_79
Note_Velocity_76
Note_Duration_60
Beat_0
Note_On_91
Note_Velocity_80
Note_Duration_60
Beat_1
Note_On_40
Note_Velocity_64
Note_Duration_60
Beat_1
Note_On_47
Note_Velocity_64
Note_Duration_60
Beat_1
Note_On_55
Note_Velocity_68
Note_Duration_60
Beat_2
Note_On_73
Note_Velocity_80
Note_Duration_60
Beat_2
Note_On_85
Note_Velocity_68
Note_Duration_60
Beat_2
Note_On_85
Note_Velocity_72
Note_Duration_60
Beat_3
Note_On_37
Note_Velocity_60
Note_Duration_60
Beat_3
Note_On_45
Note_Velocity_64
Note_Duration_60
Beat_3
Note_On_57
Note_Velocity_60
Note_Duration_120
Beat_4
Tempo_136
Beat_4
Note_On_69
Note_Velocity_72
Note_Duration_60
Beat_4
Note_On_81
Note_Velocity_72
Note_Duration_60
Beat_4
Note_On_61
Note_Velocity_60
Note_Duration_60
Beat_5
Note_On_49
Note_Velocity_60
Note_Duration_60
Beat_5
Note_On_57
Note_Velocity_56
Note_Duration_60
Beat_6
Note_On_69
Note_Velocity_76
Note_Duration_60
Beat_6
Note_On_81
Note_Velocity_72
Note_Duration_60
Beat_6
Note_On_45
Note_Velocity_60
Note_Duration_60
Beat_6
Note_On_57
Note_Velocity_60
Note_Duration_60
Beat_7
Note_On_61
Note_Velocity_68
Note_Duration_60
Beat_8
Chord_D:maj
Beat_8
Tempo_136
Beat_8
Note_On_69
Note_Velocity_76
Note_Duration_60
Beat_8
Note_On_81
Note_Velocity_76
Note_Duration_60
Beat_8
Note_On_57
Note_Velocity_64
Note_Duration_120
Beat_9
Note_On_62
Note_Velocity_56
Note_Duration_60
Beat_9
Note_On_78
Note_Velocity_76
Note_Duration_180
Beat_9
Note_On_90
Note_Velocity_76
Note_Duration_300
Beat_9
Note_On_71
Note_Velocity_72
Note_Duration_240
Beat_10
Note_On_91
Note_Velocity_76
Note_Duration_240
Beat_10
Note_On_95
Note_Velocity_80
Note_Duration_300
Beat_11
Note_On_102
Note_Velocity_72
Note_Duration_120
Beat_11
Note_On_105
Note_Velocity_72
Note_Duration_60
Beat_11
Note_On_102
Note_Velocity_72
Note_Duration_60
Beat_12
Tempo_142
Beat_12
Note_On_102
Note_Velocity_76
Note_Duration_180
Beat_12
Note_On_100
Note_Velocity_76
Note_Duration_180
Beat_12
Note_On_105
Note_Velocity_80
Note_Duration_240
Beat_13
Note_On_97
Note_Velocity_72
Note_Duration_180
Beat_13
Note_On_102
Note_Velocity_68
Note_Duration_120
Beat_13
Note_On_102
Note_Velocity_72
Note_Duration_300
Beat_14
Note_On_100
Note_Velocity_68
Note_Duration_240
Beat_15
Note_On_100
Note_Velocity_64
Note_Duration_120
Beat_15
Note_On_97
Note_Velocity_64
Note_Duration_240
