Bar_None
Beat_0
Chord_C#:min
Beat_0
Tempo_82
Beat_0
Note_On_44
Note_Velocity_48
Note_Duration_960
Beat_0
Note_On_51
Note_Velocity_48
Note_Duration_660
Beat_0
Note_On_54
Note_Velocity_52
Note_Duration_660
Beat_0
Note_On_64
Note_Velocity_52
Note_Duration_1440
Beat_0
Note_On_68
Note_Velocity_52
Note_Duration_60
Beat_4
Tempo_77
Beat_6
Note_On_54
Note_Velocity_56
Note_Duration_1260
Beat_8
Chord_C#:min
Beat_8
Tempo_80
Beat_8
Note_On_44
Note_Velocity_64
Note_Duration_960
Beat_8
Note_On_76
Note_Velocity_72
Note_Duration_1020
Beat_10
Note_On_73
Note_Velocity_76
Note_Duration_780
Beat_12
Tempo_76
Beat_12
Note_On_71
Note_Velocity_68
Note_Duration_540
Beat_14
Note_On_68
Note_Velocity_64
Note_Duration_300
Bar_None
Beat_0
Chord_C#:min
Beat_0
Tempo_80
Beat_0
Note_On_49
Note_Velocity_56
Note_Duration_960
Beat_0
Note_On_52
Note_Velocity_60
Note_Duration_1020
Beat_0
Note_On_56
Note_Velocity_64
Note_Duration_660
Beat_0
Note_On_73
Note_Velocity_72
Note_Duration_1140
Beat_4
Tempo_81
Beat_4
Note_On_71
Note_Velocity_76
Note_Duration_1440
Beat_6
Note_On_56
Note_Velocity_60
Note_Duration_300
Beat_8
Tempo_85
Beat_8
Note_On_49
Note_Velocity_64
Note_Duration_1020
Beat_8
Note_On_56
Note_Velocity_64
Note_Duration_960
Beat_8
Note_On_68
Note_Velocity_72
Note_Duration_480
Beat_10
Note_On_64
Note_Velocity_72
Note_Duration_780
Beat_12
Tempo_85
Beat_12
Note_On_68
Note_Velocity_80
Note_Duration_720
Beat_13
Note_On_66
Note_Velocity_68
Note_Duration_360
Bar_None
Beat_0
Chord_C#:min
Beat_0
Tempo_85
Beat_0
Note_On_52
Note_Velocity_60
Note_Duration_720
Beat_0
Note_On_56
Note_Velocity_64
Note_Duration_1440
Beat_0
Note_On_59
Note_Velocity_64
Note_Duration_720
Beat_0
Note_On_64
Note_Velocity_68
Note_Duration_1980
Beat_1
Note_On_68
Note_Velocity_72
Note_Duration_1800
Beat_2
Note_On_76
Note_Velocity_76
Note_Duration_1740
Beat_2
Note_On_85
Note_Velocity_80
Note_Duration_1440
Beat_4
Tempo_80
Beat_4
Note_On_83
Note_Velocity_80
Note_Duration_240
Beat_6
Note_On_52
Note_Velocity_48
Note_Duration_1260
Beat_6
Note_On_76
Note_Velocity_76
Note_Duration_240
Beat_8
Tempo_81
Beat_8
Note_On_76
Note_Velocity_76
Note_Duration_960
Beat_8
Note_On_61
Note_Velocity_60
Note_Duration_960
Beat_8
Note_On_76
Note_Velocity_72
Note_Duration_960
Beat_10
Note_On_73
Note_Velocity_76
Note_Duration_780
Beat_12
Tempo_77
Beat_12
Note_On_56
Note_Velocity_68
Note_Duration_480
Bar_None
Beat_0
Chord_A:maj
Beat_0
Tempo_85
Beat_0
Note_On_45
Note_Velocity_60
Note_Duration_720
Beat_0
Note_On_52
Note_Velocity_60
Note_Duration_1980
Beat_0
Note_On_57
Note_Velocity_64
Note_Duration_60
Beat_2
Note_On_76
Note_Velocity_72
Note_Duration_120
Beat_3
Note_On_76
Note_Velocity_56
Note_Duration_120
Beat_4
Tempo_86
Beat_4
Note_On_76
Note_Velocity_68
Note_Duration_180
Beat_6
Note_On_45
Note_Velocity_64
Note_Duration_1320
Beat_6
Note_On_76
Note_Velocity_68
Note_Duration_240
Beat_8
Tempo_85
Beat_8
Note_On_52
Note_Velocity_60
Note_Duration_1020
Beat_8
Note_On_76
Note_Velocity_72
Note_Duration_1020
Beat_10
Note_On_73
Note_Velocity_76
Note_Duration_840
Beat_12
Tempo_84
Beat_12
Note_On_57
Note_Velocity_60
Note_Duration_540
Bar_None
Beat_0
Chord_F#:min
Beat_0
Tempo_86
Beat_0
Note_On_45
Note_Velocity_64
Note_Duration_1440
Beat_0
Note_On_52
Note_Velocity_64
Note_Duration_720
Beat_0
Note_On_57
Note_Velocity_68
Note_Duration_60
Beat_0
Note_On_69
Note_Velocity_72
Note_Duration_1920
Beat_2
Note_On_76
Note_Velocity_76
Note_Duration_120
Beat_3
Note_On_76
Note_Velocity_60
Note_Duration_240
Beat_4
Tempo_86
Beat_4
Note_On_80
Note_Velocity_72
Note_Duration_240
Beat_5
Note_On_76
Note_Velocity_72
Note_Duration_240
Beat_6
Note_On_52
Note_Velocity_60
Note_Duration_1260
Beat_6
Note_On_80
Note_Velocity_72
Note_Duration_240
Beat_7
Note_On_76
Note_Velocity_60
Note_Duration_480
Beat_8
Tempo_85
Beat_8
Note_On_78
Note_Velocity_72
Note_Duration_960
Beat_8
Note_On_57
Note_Velocity_68
Note_Duration_960
Beat_10
Note_On_76
Note_Velocity_72
Note_Duration_240
Beat_12
Tempo_85
Beat_12
Note_On_45
Note_Velocity_64
Note_Duration_540
Beat_12
Note_On_76
Note_Velocity_76
Note_Duration_240
Beat_12
Note_On_51
Note_Velocity_64
Note_Duration_480
Beat_14
Note_On_76
Note_Velocity_68
Note_Duration_300
Bar_None
Beat_0
Chord_F#:min
Beat_0
Tempo_88
Beat_0
Note_On_52
Note_Velocity_60
Note_Duration_720
Beat_0
Note_On_56
Note_Velocity_64
Note_Duration_1440
Beat_0
Note_On_49
Note_Velocity_56
Note_Duration_1920
Beat_0
Note_On_56
Note_Velocity_60
Note_Duration_720
Beat_2
Note_On_76
Note_Velocity_72
Note_Duration_120
Beat_3
Note_On_76
Note_Velocity_72
Note_Duration_120
Beat_4
Tempo_84
Beat_4
Note_On_76
Note_Velocity_72
Note_Duration_180
Beat_6
Note_On_52
Note_Velocity_60
Note_Duration_1140
Beat_6
Note_On_76
Note_Velocity_68
Note_Duration_240
Beat_8
Tempo_88
Beat_8
Note_On_61
Note_Velocity_56
Note_Duration_960
Beat_8
Note_On_76
Note_Velocity_76
Note_Duration_1020
Beat_10
Note_On_73
Note_Velocity_76
Note_Duration_780
Beat_12
Tempo_86
Beat_12
Note_On_56
Note_Velocity_64
Note_Duration_480
Bar_None
Beat_0
Chord_A:maj
Beat_0
Tempo_85
Beat_0
Note_On_52
Note_Velocity_52
Note_Duration_720
Beat_0
Note_On_56
Note_Velocity_52
Note_Duration_1020
Beat_0
Note_On_45
Note_Velocity_52
Note_Duration_1500
Beat_0
Note_On_68
Note_Velocity_56
Note_Duration_960
Beat_4
Tempo_88
Beat_6
Note_On_73
Note_Velocity_64
Note_Duration_240
Beat_7
Note_On_76
Note_Velocity_64
Note_Duration_180
Beat_8
Chord_C#:min
Beat_8
Tempo_86
Beat_8
Note_On_52
Note_Velocity_56
Note_Duration_540
Beat_8
Note_On_73
Note_Velocity_76
Note_Duration_540
Beat_8
Note_On_56
Note_Velocity_64
Note_Duration_480
Beat_10
Note_On_76
Note_Velocity_72
Note_Duration_240
Beat_12
Tempo_84
Beat_12
Note_On_44
Note_Velocity_64
Note_Duration_540
Beat_12
Note_On_50
Note_Velocity_60
Note_Duration_480
Beat_12
Note_On_54
Note_Velocity_64
Note_Duration_480
Beat_12
Note_On_76
Note_Velocity_72
Note_Duration_240
Beat_14
Note_On_76
Note_Velocity_76
Note_Duration_240
Bar_None
Beat_0
Tempo_83
Beat_0
Note_On_78
Note_Velocity_80
Note_Duration_240
Beat_2
Note_On_78
Note_Velocity_72
Note_Duration_180
Beat_2
Note_On_54
Note_Velocity_64
Note_Duration_240
Beat_3
Note_On_76
Note_Velocity_68
Note_Duration_180
Beat_4
Tempo_84
Beat_4
Note_On_54
Note_Velocity_60
Note_Duration_1440
Beat_4
Note_On_57
Note_Velocity_68
Note_Duration_1500
Beat_4
Note_On_78
Note_Velocity_76
Note_Duration_180
Beat_5
Note_On_76
Note_Velocity_72
Note_Duration_300
Beat_7
Note_On_73
Note_Velocity_68
Note_Duration_1080
Beat_8
Chord_F#:min
Beat_8
Tempo_83
Beat_8
Note_On_76
Note_Velocity_64
Note_Duration_1020
Beat_8
Note_On_64
Note_Velocity_56
Note_Duration_960
Beat_12
Tempo_83
Bar_None
Beat_0
Chord_C#:min
Beat_0
Tempo_85
Beat_0
Note_On_54
Note_Velocity_52
Note_Duration_1980
Beat_0
Note_On_52
Note_Velocity_52
Note_Duration_1920
Beat_0
Note_On_45
Note_Velocity_52
Note_Duration_60
Beat_1
Note_On_76
Note_Velocity_76
Note_Duration_60
Beat_2
Note_On_76
Note_Velocity_72
Note_Duration_60
Beat_3
Note_On_76
Note_Velocity_76
Note_Duration_120
Beat_4
Tempo_85
Beat_4
Note_On_76
Note_Velocity_76
Note_Duration_1500
Beat_6
Note_On_47
Note_Velocity_64
Note_Duration_1260
Beat_6
Note_On_78
Note_Velocity_76
Note_Duration_900
Beat_8
Tempo_86
Beat_8
Note_On_54
Note_Velocity_68
Note_Duration_1020
Beat_8
Note_On_75
Note_Velocity_76
Note_Duration_1020
Beat_10
Note_On_73
Note_Velocity_80
Note_Duration_660
Beat_12
Tempo_89
Beat_12
Note_On_71
Note_Velocity_72
Note_Duration_600
Beat_12
Note_On_35
Note_Velocity_56
Note_Duration_60
Beat_14
Note_On_78
Note_Velocity_76
Note_Duration_360
Bar_None
Beat_0
Chord_C#:min
Beat_0
Tempo_86
Beat_0
Note_On_49
Note_Velocity_60
Note_Duration_720
Beat_0
Note_On_52
Note_Velocity_52
Note_Duration_1860
Beat_0
Note_On_56
Note_Velocity_60
Note_Duration_720
Beat_0
Note_On_68
Note_Velocity_68
Note_Duration_60
Beat_3
Note_On_76
Note_Velocity_72
Note_Duration_60
Beat_4
Tempo_88
Beat_4
Note_On_76
Note_Velocity_72
Note_Duration_1380
Beat_6
Note_On_56
Note_Velocity_64
Note_Duration_1260
Beat_6
Note_On_68
Note_Velocity_76
Note_Duration_1260
Beat_8
Tempo_83
Beat_8
Note_On_61
Note_Velocity_64
Note_Duration_480
Beat_8
Note_On_66
Note_Velocity_68
Note_Duration_480
Beat_10
Note_On_64
Note_Velocity_64
Note_Duration_780
Beat_12
Tempo_86
Beat_12
Note_On_61
Note_Velocity_64
Note_Duration_420
Beat_12
Note_On_66
Note_Velocity_68
Note_Duration_540
Beat_12
Note_On_49
Note_Velocity_48
Note_Duration_60
Beat_14
Note_On_66
Note_Velocity_64
Note_Duration_300
Bar_None
Beat_0
Chord_A:maj
Beat_0
Tempo_90
Beat_0
Note_On_52
Note_Velocity_60
Note_Duration_1980
Beat_0
Note_On_56
Note_Velocity_56
Note_Duration_2040
Beat_0
Note_On_49
Note_Velocity_52
Note_Duration_1980
Beat_0
Note_On_64
Note_Velocity_52
Note_Duration_960
Beat_4
Tempo_85
Beat_8
Tempo_93
Beat_12
Tempo_95
Beat_15
Note_On_56
Note_Velocity_52
Note_Duration_2040
Bar_None
Beat_0
Chord_A:maj
Beat_0
Tempo_98
Beat_0
Note_On_61
Note_Velocity_56
Note_Duration_2160
Beat_0
Note_On_66
Note_Velocity_60
Note_Duration_2520
Beat_1
Note_On_69
Note_Velocity_60
Note_Duration_300
Beat_4
Tempo_107
Beat_4
Note_On_68
Note_Velocity_56
Note_Duration_1560
Beat_8
Tempo_103
Beat_12
Tempo_113
Bar_None
Beat_0
Chord_A:maj
Beat_0
Tempo_111
Beat_0
Note_On_56
Note_Velocity_52
Note_Duration_1320
Beat_1
Note_On_59
Note_Velocity_60
Note_Duration_1380
Beat_1
Note_On_61
Note_Velocity_64
Note_Duration_1440
Beat_1
Note_On_66
Note_Velocity_64
Note_Duration_960
Beat_1
Note_On_68
Note_Velocity_64
Note_Duration_300
Beat_4
Tempo_107
Beat_4
Note_On_68
Note_Velocity_52
Note_Duration_180
Beat_6
Note_On_68
Note_Velocity_60
Note_Duration_300
Beat_8
Tempo_111
Beat_8
Note_On_64
Note_Velocity_52
Note_Duration_480
Beat_9
Note_On_66
Note_Velocity_56
Note_Duration_300
Beat_11
Note_On_52
Note_Velocity_48
Note_Duration_2520
Beat_12
Tempo_107
Beat_12
Note_On_56
Note_Velocity_60
Note_Duration_2160
Beat_12
Note_On_61
Note_Velocity_60
Note_Duration_1560
Beat_12
Note_On_64
Note_Velocity_60
Note_Duration_1680
Beat_12
Note_On_66
Note_Velocity_68
Note_Duration_3840
Bar_None
Beat_0
Chord_C#:min
Beat_0
Tempo_113
Beat_4
Tempo_130
Beat_7
Note_On_56
Note_Velocity_52
Note_Duration_1080
Beat_8
Tempo_130
Beat_12
Tempo_130
Bar_None
Beat_0
Chord_A:maj
Beat_0
Tempo_122
Beat_0
Note_On_52
Note_Velocity_52
Note_Duration_1440
Beat_0
Note_On_56
Note_Velocity_48
Note_Duration_2040
Beat_0
Note_On_64
Note_Velocity_52
Note_Duration_420
Beat_0
Note_On_68
Note_Velocity_52
Note_Duration_960
Beat_0
Note_On_73
Note_Velocity_64
Note_Duration_300
Beat_3
Note_On_73
Note_Velocity_76
Note_Duration_420
Beat_4
Tempo_130
Beat_6
Note_On_73
Note_Velocity_80
Note_Duration_480
Beat_8
Chord_C#:min
Beat_8
Tempo_127
Beat_8
Note_On_61
Note_Velocity_64
Note_Duration_480
Beat_8
Note_On_68
Note_Velocity_72
Note_Duration_480
Beat_10
Note_On_73
Note_Velocity_80
Note_Duration_720
Beat_12
Tempo_122
Beat_12
Note_On_47
Note_Velocity_56
Note_Duration_540
Beat_12
Note_On_52
Note_Velocity_56
Note_Duration_1440
Beat_12
Note_On_68
Note_Velocity_60
Note_Duration_420
Bar_None
Beat_0
Tempo_133
Beat_0
Note_On_73
Note_Velocity_76
Note_Duration_1020
Beat_4
Tempo_127
Beat_8
Chord_A:maj
Beat_8
Tempo_125
Beat_8
Note_On_52
Note_Velocity_68
Note_Duration_1080
Beat_8
Note_On_71
Note_Velocity_72
Note_Duration_1080
Beat_12
Tempo_130
Beat_12
Note_On_64
Note_Velocity_64
Note_Duration_600
Beat_12
Note_On_73
Note_Velocity_76
Note_Duration_480
