Bar_None
Beat_0
Chord_G#:min
Beat_0
Note_On_51
Note_Velocity_36
Note_Duration_660
Beat_0
Note_On_42
Note_Velocity_32
Note_Duration_1380
Beat_0
Note_On_71
Note_Velocity_48
Note_Duration_780
Beat_0
Note_On_51
Note_Velocity_20
Note_Duration_60
Beat_1
Note_On_68
Note_Velocity_48
Note_Duration_1380
Beat_2
Note_On_63
Note_Velocity_52
Note_Duration_60
Beat_3
Note_On_59
Note_Velocity_52
Note_Duration_60
Beat_4
Note_On_51
Note_Velocity_48
Note_Duration_60
Beat_5
Note_On_47
Note_Velocity_40
Note_Duration_600
Beat_6
Note_On_51
Note_Velocity_48
Note_Duration_300
Beat_7
Note_On_54
Note_Velocity_44
Note_Duration_540
Beat_8
Chord_F#:dim
Beat_8
Note_On_59
Note_Velocity_56
Note_Duration_960
Beat_9
Note_On_66
Note_Velocity_52
Note_Duration_300
Beat_10
Note_On_69
Note_Velocity_52
Note_Duration_660
Beat_11
Note_On_72
Note_Velocity_48
Note_Duration_120
Beat_12
Note_On_75
Note_Velocity_76
Note_Duration_120
Beat_13
Note_On_44
Note_Velocity_48
Note_Duration_780
Beat_14
Note_On_78
Note_Velocity_88
Note_Duration_780
Bar_None
Beat_0
Chord_G#:min
Beat_0
Note_On_51
Note_Velocity_36
Note_Duration_1200
Beat_0
Note_On_76
Note_Velocity_80
Note_Duration_2100
Beat_1
Note_On_56
Note_Velocity_36
Note_Duration_60
Beat_2
Note_On_58
Note_Velocity_60
Note_Duration_60
Beat_3
Note_On_64
Note_Velocity_60
Note_Duration_60
Beat_4
Note_On_68
Note_Velocity_56
Note_Duration_300
Beat_5
Note_On_70
Note_Velocity_76
Note_Duration_720
Beat_6
Note_On_73
Note_Velocity_72
Note_Duration_120
Beat_6
Note_On_49
Note_Velocity_56
Note_Duration_1320
Beat_7
Note_On_52
Note_Velocity_44
Note_Duration_60
Beat_8
Chord_A#:dim
Beat_8
Note_On_52
Note_Velocity_56
Note_Duration_1020
Beat_9
Note_On_56
Note_Velocity_68
Note_Duration_660
Beat_10
Note_On_61
Note_Velocity_60
Note_Duration_420
Beat_11
Note_On_68
Note_Velocity_72
Note_Duration_300
Beat_12
Note_On_70
Note_Velocity_80
Note_Duration_180
Beat_13
Note_On_73
Note_Velocity_80
Note_Duration_60
Beat_13
Note_On_46
Note_Velocity_68
Note_Duration_1200
Beat_15
Note_On_55
Note_Velocity_48
Note_Duration_480
Bar_None
Beat_0
Chord_C#:dim
Beat_0
Note_On_61
Note_Velocity_60
Note_Duration_1320
Beat_1
Note_On_68
Note_Velocity_60
Note_Duration_240
Beat_1
Note_On_67
Note_Velocity_76
Note_Duration_300
Beat_2
Note_On_70
Note_Velocity_80
Note_Duration_180
Beat_2
Note_On_73
Note_Velocity_80
Note_Duration_180
Beat_2
Note_On_52
Note_Velocity_64
Note_Duration_1440
Beat_4
Note_On_56
Note_Velocity_48
Note_Duration_240
Beat_5
Note_On_58
Note_Velocity_72
Note_Duration_720
Beat_6
Note_On_76
Note_Velocity_84
Note_Duration_180
Beat_6
Note_On_64
Note_Velocity_64
Note_Duration_960
Beat_7
Note_On_75
Note_Velocity_80
Note_Duration_180
Beat_8
Note_On_76
Note_Velocity_76
Note_Duration_180
Beat_8
Note_On_68
Note_Velocity_72
Note_Duration_720
Beat_10
Note_On_73
Note_Velocity_84
Note_Duration_360
Beat_11
Note_On_61
Note_Velocity_68
Note_Duration_180
Beat_12
Note_On_75
Note_Velocity_88
Note_Duration_1020
Bar_None
Beat_0
Chord_A:maj
Beat_0
Note_On_52
Note_Velocity_60
Note_Duration_120
Beat_1
Note_On_52
Note_Velocity_60
Note_Duration_60
Beat_2
Note_On_47
Note_Velocity_64
Note_Duration_60
Beat_2
Note_On_76
Note_Velocity_84
Note_Duration_720
Beat_3
Note_On_73
Note_Velocity_80
Note_Duration_180
Beat_3
Note_On_52
Note_Velocity_72
Note_Duration_180
Beat_4
Note_On_57
Note_Velocity_80
Note_Duration_120
Beat_5
Note_On_73
Note_Velocity_88
Note_Duration_120
Beat_6
Note_On_68
Note_Velocity_84
Note_Duration_1320
Beat_6
Note_On_52
Note_Velocity_80
Note_Duration_720
Beat_8
Note_On_75
Note_Velocity_84
Note_Duration_180
Beat_8
Note_On_73
Note_Velocity_80
Note_Duration_180
Beat_9
Note_On_52
Note_Velocity_76
Note_Duration_1020
Beat_10
Note_On_57
Note_Velocity_72
Note_Duration_540
Beat_11
Note_On_76
Note_Velocity_92
Note_Duration_180
Beat_12
Note_On_73
Note_Velocity_84
Note_Duration_360
Beat_14
Note_On_76
Note_Velocity_84
Note_Duration_120
Beat_15
Note_On_80
Note_Velocity_80
Note_Duration_60
Bar_None
Beat_0
Chord_E:maj
Beat_0
Note_On_51
Note_Velocity_92
Note_Duration_1920
Beat_0
Note_On_51
Note_Velocity_64
Note_Duration_720
Beat_0
Note_On_44
Note_Velocity_72
Note_Duration_1920
Beat_0
Note_On_80
Note_Velocity_88
Note_Duration_60
Beat_1
Note_On_78
Note_Velocity_88
Note_Duration_120
Beat_2
Note_On_76
Note_Velocity_76
Note_Duration_60
Beat_2
Note_On_73
Note_Velocity_72
Note_Duration_60
Beat_3
Note_On_51
Note_Velocity_92
Note_Duration_960
Beat_3
Note_On_48
Note_Velocity_84
Note_Duration_960
Beat_4
Note_On_81
Note_Velocity_84
Note_Duration_240
Beat_5
Note_On_54
Note_Velocity_80
Note_Duration_120
Beat_6
Note_On_75
Note_Velocity_88
Note_Duration_240
Beat_6
Note_On_54
Note_Velocity_76
Note_Duration_540
Beat_7
Note_On_57
Note_Velocity_84
Note_Duration_480
Beat_8
Note_On_78
Note_Velocity_84
Note_Duration_240
Beat_8
Note_On_72
Note_Velocity_72
Note_Duration_720
Beat_9
Note_On_75
Note_Velocity_88
Note_Duration_240
Beat_10
Note_On_76
Note_Velocity_84
Note_Duration_240
Beat_10
Note_On_75
Note_Velocity_80
Note_Duration_240
Beat_11
Note_On_51
Note_Velocity_76
Note_Duration_480
Beat_12
Note_On_48
Note_Velocity_76
Note_Duration_480
Beat_12
Note_On_80
Note_Velocity_96
Note_Duration_240
Beat_13
Note_On_78
Note_Velocity_88
Note_Duration_120
Beat_14
Note_On_76
Note_Velocity_84
Note_Duration_120
Beat_15
Note_On_80
Note_Velocity_84
Note_Duration_120
Bar_None
Beat_0
Chord_F#:dom
Beat_0
Note_On_49
Note_Velocity_76
Note_Duration_1860
Beat_0
Note_On_52
Note_Velocity_76
Note_Duration_1680
Beat_0
Note_On_56
Note_Velocity_84
Note_Duration_1920
Beat_0
Note_On_76
Note_Velocity_84
Note_Duration_120
Beat_1
Note_On_78
Note_Velocity_88
Note_Duration_60
Beat_2
Note_On_76
Note_Velocity_76
Note_Duration_60
Beat_2
Note_On_73
Note_Velocity_80
Note_Duration_60
Beat_3
Note_On_76
Note_Velocity_80
Note_Duration_120
Beat_3
Note_On_73
Note_Velocity_72
Note_Duration_60
Beat_4
Note_On_78
Note_Velocity_80
Note_Duration_120
Beat_5
Note_On_76
Note_Velocity_80
Note_Duration_60
Beat_5
Note_On_76
Note_Velocity_80
Note_Duration_60
Beat_6
Note_On_76
Note_Velocity_76
Note_Duration_60
Beat_6
Note_On_73
Note_Velocity_60
Note_Duration_180
Beat_7
Note_On_80
Note_Velocity_80
Note_Duration_120
Beat_8
Note_On_80
Note_Velocity_88
Note_Duration_120
Beat_8
Note_On_73
Note_Velocity_76
Note_Duration_1620
Beat_9
Note_On_61
Note_Velocity_80
Note_Duration_180
Beat_10
Note_On_64
Note_Velocity_76
Note_Duration_2100
Beat_10
Note_On_61
Note_Velocity_72
Note_Duration_2100
Beat_11
Note_On_57
Note_Velocity_76
Note_Duration_2040
Beat_12
Note_On_66
Note_Velocity_84
Note_Duration_480
Beat_12
Note_On_69
Note_Velocity_72
Note_Duration_300
Beat_15
Note_On_73
Note_Velocity_84
Note_Duration_180
Bar_None
Beat_0
Chord_A:maj
Beat_0
Note_On_76
Note_Velocity_72
Note_Duration_540
Beat_0
Note_On_64
Note_Velocity_52
Note_Duration_1500
Beat_3
Note_On_52
Note_Velocity_36
Note_Duration_240
Beat_5
Note_On_57
Note_Velocity_52
Note_Duration_180
Beat_6
Note_On_61
Note_Velocity_56
Note_Duration_180
Beat_7
Note_On_73
Note_Velocity_60
Note_Duration_180
Beat_8
Chord_E:dom
Beat_8
Note_On_74
Note_Velocity_76
Note_Duration_120
Beat_8
Note_On_50
Note_Velocity_48
Note_Duration_240
Beat_8
Note_On_44
Note_Velocity_52
Note_Duration_240
Beat_10
Note_On_73
Note_Velocity_88
Note_Duration_120
Beat_11
Note_On_76
Note_Velocity_88
Note_Duration_240
Beat_12
Note_On_47
Note_Velocity_64
Note_Duration_180
Beat_12
Note_On_50
Note_Velocity_72
Note_Duration_240
Beat_13
Note_On_73
Note_Velocity_88
Note_Duration_240
Beat_14
Note_On_76
Note_Velocity_92
Note_Duration_240
Beat_15
Note_On_52
Note_Velocity_72
Note_Duration_1560
Bar_None
Beat_0
Note_On_57
Note_Velocity_68
Note_Duration_3840
Beat_1
Note_On_78
Note_Velocity_80
Note_Duration_180
Beat_2
Note_On_76
Note_Velocity_72
Note_Duration_240
Beat_3
Note_On_74
Note_Velocity_76
Note_Duration_180
Beat_4
Note_On_78
Note_Velocity_64
Note_Duration_180
Beat_5
Note_On_81
Note_Velocity_68
Note_Duration_60
Beat_5
Note_On_76
Note_Velocity_60
Note_Duration_60
Beat_7
Note_On_78
Note_Velocity_56
Note_Duration_1320
Beat_8
Chord_F#:dom
Beat_8
Note_On_88
Note_Velocity_60
Note_Duration_1080
Bar_None
Beat_0
Chord_F#:dim
Beat_1
Note_On_54
Note_Velocity_52
Note_Duration_3840
Beat_1
Note_On_51
Note_Velocity_36
Note_Duration_1320
Beat_1
Note_On_60
Note_Velocity_52
Note_Duration_3840
Beat_2
Note_On_72
Note_Velocity_60
Note_Duration_60
Beat_3
Note_On_72
Note_Velocity_76
Note_Duration_60
Beat_4
Note_On_75
Note_Velocity_76
Note_Duration_60
Beat_5
Note_On_78
Note_Velocity_76
Note_Duration_120
Beat_6
Note_On_80
Note_Velocity_80
Note_Duration_60
Beat_6
Note_On_72
Note_Velocity_76
Note_Duration_900
Beat_7
Note_On_78
Note_Velocity_80
Note_Duration_120
Beat_8
Note_On_80
Note_Velocity_76
Note_Duration_180
Beat_9
Note_On_81
Note_Velocity_76
Note_Duration_120
Beat_10
Note_On_78
Note_Velocity_80
Note_Duration_60
Beat_11
Note_On_44
Note_Velocity_56
Note_Duration_600
Beat_12
Note_On_76
Note_Velocity_76
Note_Duration_120
Beat_12
Note_On_52
Note_Velocity_52
Note_Duration_600
Beat_13
Note_On_75
Note_Velocity_72
Note_Duration_420
Beat_14
Note_On_54
Note_Velocity_52
Note_Duration_360
Bar_None
Beat_0
Chord_C#:min
Beat_0
Note_On_57
Note_Velocity_48
Note_Duration_720
Beat_0
Note_On_66
Note_Velocity_60
Note_Duration_420
Beat_1
Note_On_69
Note_Velocity_60
Note_Duration_60
Beat_3
Note_On_64
Note_Velocity_48
Note_Duration_1380
Beat_3
Note_On_69
Note_Velocity_52
Note_Duration_1860
Beat_4
Note_On_49
Note_Velocity_72
Note_Duration_1380
Beat_6
Note_On_52
Note_Velocity_36
Note_Duration_420
Beat_6
Note_On_56
Note_Velocity_64
Note_Duration_420
Beat_8
Note_On_59
Note_Velocity_72
Note_Duration_780
Beat_8
Note_On_64
Note_Velocity_68
Note_Duration_480
Beat_10
Note_On_68
Note_Velocity_68
Note_Duration_180
Beat_12
Note_On_64
Note_Velocity_72
Note_Duration_660
Beat_12
Note_On_56
Note_Velocity_52
Note_Duration_240
Beat_12
Note_On_52
Note_Velocity_44
Note_Duration_1260
Beat_13
Note_On_66
Note_Velocity_56
Note_Duration_60
Beat_14
Note_On_66
Note_Velocity_52
Note_Duration_360
Beat_15
Note_On_61
Note_Velocity_52
Note_Duration_60
Bar_None
Beat_0
Chord_A:maj
Beat_0
Note_On_49
Note_Velocity_60
Note_Duration_2040
Beat_1
Note_On_64
Note_Velocity_68
Note_Duration_2040
Beat_1
Note_On_52
Note_Velocity_52
Note_Duration_480
Beat_2
Note_On_56
Note_Velocity_56
Note_Duration_1560
Beat_15
Note_On_56
Note_Velocity_40
Note_Duration_240
Bar_None
Beat_0
Chord_A:maj
Beat_0
Note_On_61
Note_Velocity_56
Note_Duration_300
Beat_1
Note_On_52
Note_Velocity_40
Note_Duration_1320
Beat_1
Note_On_45
Note_Velocity_44
Note_Duration_2340
Beat_1
Note_On_66
Note_Velocity_60
Note_Duration_1080
Beat_4
Note_On_68
Note_Velocity_60
Note_Duration_240
Beat_5
Note_On_69
Note_Velocity_56
Note_Duration_540
Beat_9
Note_On_71
Note_Velocity_52
Note_Duration_300
Beat_11
Note_On_73
Note_Velocity_56
Note_Duration_240
Bar_None
Beat_0
Chord_E:aug
Beat_1
Note_On_54
Note_Velocity_28
Note_Duration_1320
Beat_1
Note_On_63
Note_Velocity_52
Note_Duration_420
Beat_1
Note_On_66
Note_Velocity_52
Note_Duration_300
Beat_1
Note_On_60
Note_Velocity_36
Note_Duration_240
Beat_1
Note_On_44
Note_Velocity_48
Note_Duration_3240
Beat_1
Note_On_32
Note_Velocity_52
Note_Duration_3840
Beat_1
Note_On_44
Note_Velocity_48
Note_Duration_1200
Beat_1
Note_On_56
Note_Velocity_36
Note_Duration_360
Beat_9
Note_On_64
Note_Velocity_60
Note_Duration_240
Beat_9
Note_On_54
Note_Velocity_36
Note_Duration_180
Beat_9
Note_On_61
Note_Velocity_56
Note_Duration_300
Beat_11
Note_On_64
Note_Velocity_64
Note_Duration_420
Beat_11
Note_On_54
Note_Velocity_52
Note_Duration_300
Beat_11
Note_On_60
Note_Velocity_40
Note_Duration_180
Beat_11
Note_On_44
Note_Velocity_56
Note_Duration_3840
Beat_12
Note_On_68
Note_Velocity_60
Note_Duration_1380
Bar_None
Beat_0
Chord_C#:min
Beat_7
Note_On_64
Note_Velocity_52
Note_Duration_1080
Bar_None
Beat_0
Chord_A:maj
Beat_0
Note_On_62
Note_Velocity_52
Note_Duration_420
Beat_0
Note_On_52
Note_Velocity_48
Note_Duration_240
Beat_0
Note_On_68
Note_Velocity_52
Note_Duration_120
Beat_3
Note_On_68
Note_Velocity_64
Note_Duration_420
Beat_3
Note_On_52
Note_Velocity_44
Note_Duration_300
Beat_3
Note_On_56
Note_Velocity_36
Note_Duration_480
Beat_6
Note_On_49
Note_Velocity_76
Note_Duration_300
Beat_8
Chord_C#:min
Beat_8
Note_On_50
Note_Velocity_80
Note_Duration_180
Beat_8
Note_On_71
Note_Velocity_76
Note_Duration_240
Beat_9
Note_On_45
Note_Velocity_80
Note_Duration_1920
Beat_10
Note_On_49
Note_Velocity_76
Note_Duration_480
Beat_10
Note_On_52
Note_Velocity_76
Note_Duration_480
Beat_11
Note_On_73
Note_Velocity_80
Note_Duration_180
Beat_12
Note_On_71
Note_Velocity_80
Note_Duration_420
Beat_12
Note_On_54
Note_Velocity_60
Note_Duration_240
Beat_13
Note_On_56
Note_Velocity_60
Note_Duration_120
Beat_15
Note_On_57
Note_Velocity_56
Note_Duration_1440
Bar_None
Beat_3
Note_On_73
Note_Velocity_80
Note_Duration_600
Beat_8
Chord_A:maj
Beat_8
Note_On_71
Note_Velocity_80
Note_Duration_1080
Beat_12
Note_On_52
Note_Velocity_32
Note_Duration_1020
