Bar_None
Beat_0
Chord_G#:min
Beat_0
Tempo_75
Beat_0
Note_On_44
Note_Velocity_48
Note_Duration_1260
Beat_0
Note_On_51
Note_Velocity_52
Note_Duration_1440
Beat_0
Note_On_54
Note_Velocity_56
Note_Duration_60
Beat_0
Note_On_64
Note_Velocity_52
Note_Duration_960
Beat_0
Note_On_68
Note_Velocity_64
Note_Duration_1380
Beat_0
Note_On_70
Note_Velocity_64
Note_Duration_960
Beat_0
Note_On_78
Note_Velocity_68
Note_Duration_660
Beat_4
Tempo_76
Beat_6
Note_On_78
Note_Velocity_76
Note_Duration_1260
Beat_8
Chord_G#:min
Beat_8
Tempo_76
Beat_8
Note_On_69
Note_Velocity_72
Note_Duration_960
Beat_8
Note_On_72
Note_Velocity_68
Note_Duration_960
Beat_8
Note_On_44
Note_Velocity_56
Note_Duration_960
Beat_8
Note_On_54
Note_Velocity_52
Note_Duration_60
Beat_10
Note_On_51
Note_Velocity_48
Note_Duration_780
Beat_12
Tempo_76
Beat_12
Note_On_54
Note_Velocity_68
Note_Duration_540
Beat_12
Note_On_73
Note_Velocity_72
Note_Duration_540
Beat_14
Note_On_66
Note_Velocity_68
Note_Duration_300
Bar_None
Beat_0
Chord_G#:min
Beat_0
Tempo_77
Beat_0
Note_On_37
Note_Velocity_60
Note_Duration_1200
Beat_0
Note_On_49
Note_Velocity_60
Note_Duration_1320
Beat_0
Note_On_68
Note_Velocity_64
Note_Duration_480
Beat_0
Note_On_71
Note_Velocity_72
Note_Duration_1920
Beat_4
Tempo_83
Beat_4
Note_On_68
Note_Velocity_56
Note_Duration_960
Beat_4
Note_On_73
Note_Velocity_76
Note_Duration_300
Beat_6
Note_On_52
Note_Velocity_56
Note_Duration_720
Beat_6
Note_On_56
Note_Velocity_64
Note_Duration_480
Beat_8
Tempo_80
Beat_8
Note_On_73
Note_Velocity_76
Note_Duration_1140
Beat_8
Note_On_68
Note_Velocity_60
Note_Duration_960
Beat_10
Note_On_56
Note_Velocity_68
Note_Duration_720
Beat_12
Tempo_81
Beat_12
Note_On_52
Note_Velocity_56
Note_Duration_480
Beat_13
Note_On_59
Note_Velocity_64
Note_Duration_660
Bar_None
Beat_0
Chord_C#:min
Beat_0
Tempo_77
Beat_0
Note_On_52
Note_Velocity_64
Note_Duration_1980
Beat_0
Note_On_56
Note_Velocity_64
Note_Duration_1440
Beat_0
Note_On_64
Note_Velocity_60
Note_Duration_960
Beat_0
Note_On_68
Note_Velocity_68
Note_Duration_1920
Beat_1
Note_On_73
Note_Velocity_76
Note_Duration_360
Beat_2
Note_On_71
Note_Velocity_60
Note_Duration_1740
Beat_2
Note_On_76
Note_Velocity_60
Note_Duration_240
Beat_4
Tempo_78
Beat_4
Note_On_73
Note_Velocity_76
Note_Duration_240
Beat_6
Note_On_59
Note_Velocity_60
Note_Duration_720
Beat_6
Note_On_73
Note_Velocity_80
Note_Duration_1260
Beat_8
Tempo_78
Beat_8
Note_On_76
Note_Velocity_72
Note_Duration_960
Beat_8
Note_On_64
Note_Velocity_48
Note_Duration_960
Beat_10
Note_On_80
Note_Velocity_80
Note_Duration_780
Beat_12
Tempo_75
Beat_12
Note_On_56
Note_Velocity_60
Note_Duration_480
Bar_None
Beat_0
Chord_C#:min
Beat_0
Tempo_82
Beat_0
Note_On_45
Note_Velocity_60
Note_Duration_1920
Beat_0
Note_On_52
Note_Velocity_60
Note_Duration_720
Beat_0
Note_On_57
Note_Velocity_64
Note_Duration_1980
Beat_2
Note_On_73
Note_Velocity_68
Note_Duration_120
Beat_3
Note_On_73
Note_Velocity_72
Note_Duration_1560
Beat_4
Tempo_77
Beat_4
Note_On_76
Note_Velocity_72
Note_Duration_120
Beat_5
Note_On_76
Note_Velocity_64
Note_Duration_1320
Beat_6
Note_On_52
Note_Velocity_56
Note_Duration_720
Beat_6
Note_On_80
Note_Velocity_76
Note_Duration_1260
Beat_8
Tempo_80
Beat_8
Note_On_78
Note_Velocity_80
Note_Duration_1020
Beat_8
Note_On_68
Note_Velocity_72
Note_Duration_960
Beat_10
Note_On_56
Note_Velocity_64
Note_Duration_840
Beat_12
Tempo_81
Beat_12
Note_On_52
Note_Velocity_68
Note_Duration_540
Bar_None
Beat_0
Chord_C#:min
Beat_0
Tempo_76
Beat_0
Note_On_44
Note_Velocity_60
Note_Duration_1440
Beat_0
Note_On_51
Note_Velocity_60
Note_Duration_720
Beat_0
Note_On_54
Note_Velocity_64
Note_Duration_60
Beat_0
Note_On_76
Note_Velocity_72
Note_Duration_240
Beat_2
Note_On_76
Note_Velocity_72
Note_Duration_240
Beat_4
Tempo_77
Beat_4
Note_On_76
Note_Velocity_72
Note_Duration_960
Beat_6
Note_On_51
Note_Velocity_64
Note_Duration_1260
Beat_6
Note_On_75
Note_Velocity_76
Note_Duration_1200
Beat_8
Tempo_101
Beat_8
Note_On_56
Note_Velocity_64
Note_Duration_960
Beat_8
Note_On_75
Note_Velocity_76
Note_Duration_960
Beat_10
Note_On_78
Note_Velocity_76
Note_Duration_720
Beat_12
Tempo_75
Beat_12
Note_On_44
Note_Velocity_64
Note_Duration_540
Beat_12
Note_On_76
Note_Velocity_72
Note_Duration_240
Beat_14
Note_On_76
Note_Velocity_68
Note_Duration_240
Bar_None
Beat_0
Chord_C#:min
Beat_0
Tempo_76
Beat_0
Note_On_52
Note_Velocity_60
Note_Duration_720
Beat_0
Note_On_56
Note_Velocity_64
Note_Duration_1920
Beat_0
Note_On_76
Note_Velocity_72
Note_Duration_240
Beat_0
Note_On_45
Note_Velocity_60
Note_Duration_1920
Beat_2
Note_On_76
Note_Velocity_76
Note_Duration_120
Beat_3
Note_On_76
Note_Velocity_60
Note_Duration_1620
Beat_4
Tempo_77
Beat_4
Note_On_80
Note_Velocity_80
Note_Duration_1440
Beat_6
Note_On_52
Note_Velocity_56
Note_Duration_1680
Beat_6
Note_On_73
Note_Velocity_76
Note_Duration_1140
Beat_6
Note_On_57
Note_Velocity_56
Note_Duration_2160
Beat_8
Tempo_76
Beat_8
Note_On_64
Note_Velocity_68
Note_Duration_2880
Beat_8
Note_On_78
Note_Velocity_76
Note_Duration_1920
Beat_10
Note_On_80
Note_Velocity_72
Note_Duration_1200
Beat_12
Tempo_76
Beat_12
Note_On_61
Note_Velocity_72
Note_Duration_480
Bar_None
Beat_0
Chord_C#:min
Beat_0
Tempo_103
Beat_0
Note_On_56
Note_Velocity_56
Note_Duration_1500
Beat_0
Note_On_61
Note_Velocity_52
Note_Duration_1020
Beat_0
Note_On_49
Note_Velocity_52
Note_Duration_960
Beat_4
Tempo_75
Beat_6
Note_On_52
Note_Velocity_56
Note_Duration_720
Beat_7
Note_On_73
Note_Velocity_60
Note_Duration_540
Beat_8
Chord_C#:min
Beat_8
Tempo_77
Beat_8
Note_On_76
Note_Velocity_64
Note_Duration_540
Beat_8
Note_On_49
Note_Velocity_52
Note_Duration_540
Beat_8
Note_On_80
Note_Velocity_72
Note_Duration_540
Beat_10
Note_On_78
Note_Velocity_76
Note_Duration_240
Beat_12
Tempo_75
Beat_12
Note_On_40
Note_Velocity_64
Note_Duration_480
Beat_12
Note_On_47
Note_Velocity_64
Note_Duration_480
Beat_12
Note_On_52
Note_Velocity_64
Note_Duration_480
Beat_12
Note_On_68
Note_Velocity_72
Note_Duration_480
Beat_12
Note_On_76
Note_Velocity_72
Note_Duration_240
Beat_14
Note_On_76
Note_Velocity_72
Note_Duration_240
Bar_None
Beat_0
Tempo_77
Beat_0
Note_On_42
Note_Velocity_68
Note_Duration_1980
Beat_0
Note_On_52
Note_Velocity_64
Note_Duration_1680
Beat_1
Note_On_76
Note_Velocity_64
Note_Duration_240
Beat_2
Note_On_78
Note_Velocity_72
Note_Duration_240
Beat_4
Tempo_84
Beat_4
Note_On_73
Note_Velocity_72
Note_Duration_1500
Beat_4
Note_On_76
Note_Velocity_72
Note_Duration_180
Beat_5
Note_On_76
Note_Velocity_60
Note_Duration_1320
Beat_8
Chord_F#:min
Beat_8
Tempo_83
Beat_8
Note_On_54
Note_Velocity_56
Note_Duration_1020
Beat_8
Note_On_57
Note_Velocity_60
Note_Duration_1080
Beat_8
Note_On_78
Note_Velocity_76
Note_Duration_1020
Beat_12
Tempo_82
Bar_None
Beat_0
Chord_F#:dim
Beat_0
Tempo_77
Beat_0
Note_On_54
Note_Velocity_52
Note_Duration_60
Beat_0
Note_On_49
Note_Velocity_52
Note_Duration_900
Beat_1
Note_On_57
Note_Velocity_52
Note_Duration_1500
Beat_1
Note_On_76
Note_Velocity_72
Note_Duration_60
Beat_2
Note_On_75
Note_Velocity_76
Note_Duration_1740
Beat_3
Note_On_76
Note_Velocity_76
Note_Duration_1560
Beat_4
Tempo_76
Beat_4
Note_On_78
Note_Velocity_76
Note_Duration_840
Beat_6
Note_On_52
Note_Velocity_52
Note_Duration_1260
Beat_6
Note_On_80
Note_Velocity_76
Note_Duration_1260
Beat_8
Tempo_76
Beat_8
Note_On_81
Note_Velocity_80
Note_Duration_1020
Beat_8
Note_On_69
Note_Velocity_76
Note_Duration_1020
Beat_10
Note_On_78
Note_Velocity_76
Note_Duration_480
Beat_12
Tempo_74
Beat_12
Note_On_44
Note_Velocity_56
Note_Duration_480
Beat_12
Note_On_75
Note_Velocity_72
Note_Duration_540
Beat_14
Note_On_78
Note_Velocity_80
Note_Duration_360
Bar_None
Beat_0
Chord_C#:min
Beat_0
Tempo_77
Beat_0
Note_On_49
Note_Velocity_60
Note_Duration_1200
Beat_0
Note_On_56
Note_Velocity_64
Note_Duration_1440
Beat_0
Note_On_64
Note_Velocity_64
Note_Duration_960
Beat_0
Note_On_76
Note_Velocity_72
Note_Duration_1920
Beat_3
Note_On_61
Note_Velocity_64
Note_Duration_1380
Beat_3
Note_On_73
Note_Velocity_72
Note_Duration_1380
Beat_4
Tempo_78
Beat_4
Note_On_66
Note_Velocity_72
Note_Duration_720
Beat_6
Note_On_52
Note_Velocity_60
Note_Duration_720
Beat_6
Note_On_68
Note_Velocity_72
Note_Duration_1260
Beat_8
Tempo_103
Beat_8
Note_On_64
Note_Velocity_68
Note_Duration_720
Beat_8
Note_On_71
Note_Velocity_76
Note_Duration_900
Beat_10
Note_On_49
Note_Velocity_52
Note_Duration_780
Beat_12
Tempo_105
Beat_12
Note_On_52
Note_Velocity_64
Note_Duration_480
Beat_12
Note_On_56
Note_Velocity_68
Note_Duration_420
Beat_12
Note_On_64
Note_Velocity_68
Note_Duration_480
Beat_12
Note_On_78
Note_Velocity_76
Note_Duration_420
Beat_14
Note_On_61
Note_Velocity_72
Note_Duration_300
Beat_14
Note_On_69
Note_Velocity_76
Note_Duration_240
Bar_None
Beat_0
Chord_A:maj
Beat_0
Tempo_105
Beat_0
Note_On_49
Note_Velocity_60
Note_Duration_1980
Beat_0
Note_On_52
Note_Velocity_56
Note_Duration_2040
Beat_0
Note_On_57
Note_Velocity_60
Note_Duration_2040
Beat_0
Note_On_80
Note_Velocity_76
Note_Duration_2040
Beat_4
Tempo_107
Beat_8
Tempo_105
Beat_12
Tempo_109
Beat_15
Note_On_61
Note_Velocity_52
Note_Duration_240
Bar_None
Beat_0
Chord_A:maj
Beat_0
Tempo_103
Beat_0
Note_On_57
Note_Velocity_56
Note_Duration_3000
Beat_0
Note_On_45
Note_Velocity_60
Note_Duration_2460
Beat_0
Note_On_61
Note_Velocity_60
Note_Duration_2100
Beat_0
Note_On_66
Note_Velocity_60
Note_Duration_2220
Beat_1
Note_On_68
Note_Velocity_64
Note_Duration_2040
Beat_4
Tempo_107
Beat_4
Note_On_68
Note_Velocity_60
Note_Duration_1560
Beat_8
Tempo_103
Beat_12
Tempo_107
Bar_None
Beat_0
Chord_A:maj
Beat_0
Tempo_109
Beat_0
Note_On_52
Note_Velocity_52
Note_Duration_1440
Beat_1
Note_On_56
Note_Velocity_52
Note_Duration_1320
Beat_1
Note_On_59
Note_Velocity_52
Note_Duration_3240
Beat_1
Note_On_61
Note_Velocity_56
Note_Duration_1260
Beat_1
Note_On_64
Note_Velocity_56
Note_Duration_300
Beat_4
Tempo_101
Beat_4
Note_On_64
Note_Velocity_60
Note_Duration_960
Beat_6
Note_On_66
Note_Velocity_60
Note_Duration_960
Beat_8
Tempo_107
Beat_8
Note_On_64
Note_Velocity_60
Note_Duration_360
Beat_9
Note_On_68
Note_Velocity_60
Note_Duration_300
Beat_11
Note_On_61
Note_Velocity_48
Note_Duration_2520
Beat_11
Note_On_64
Note_Velocity_52
Note_Duration_2580
Beat_12
Tempo_107
Beat_12
Note_On_52
Note_Velocity_48
Note_Duration_2520
Beat_12
Note_On_57
Note_Velocity_44
Note_Duration_2100
Beat_12
Note_On_66
Note_Velocity_64
Note_Duration_1200
Bar_None
Beat_0
Chord_C#:min
Beat_0
Tempo_107
Beat_4
Tempo_105
Beat_7
Note_On_56
Note_Velocity_52
Note_Duration_1080
Beat_8
Tempo_111
Beat_12
Tempo_115
Bar_None
Beat_0
Chord_A:maj
Beat_0
Tempo_101
Beat_0
Note_On_61
Note_Velocity_52
Note_Duration_1440
Beat_0
Note_On_64
Note_Velocity_48
Note_Duration_1980
Beat_0
Note_On_68
Note_Velocity_64
Note_Duration_960
Beat_0
Note_On_50
Note_Velocity_56
Note_Duration_1440
Beat_0
Note_On_52
Note_Velocity_52
Note_Duration_420
Beat_3
Note_On_69
Note_Velocity_60
Note_Duration_2400
Beat_4
Tempo_113
Beat_6
Note_On_71
Note_Velocity_76
Note_Duration_300
Beat_8
Chord_C#:min
Beat_8
Tempo_103
Beat_8
Note_On_56
Note_Velocity_64
Note_Duration_960
Beat_8
Note_On_68
Note_Velocity_76
Note_Duration_300
Beat_8
Note_On_73
Note_Velocity_76
Note_Duration_1920
Beat_10
Note_On_73
Note_Velocity_80
Note_Duration_1440
Beat_12
Tempo_103
Beat_12
Note_On_47
Note_Velocity_60
Note_Duration_480
Beat_12
Note_On_50
Note_Velocity_60
Note_Duration_480
Beat_12
Note_On_68
Note_Velocity_64
Note_Duration_480
Bar_None
Beat_0
Tempo_107
Beat_4
Tempo_101
Beat_8
Chord_A:maj
Beat_8
Tempo_103
Beat_8
Note_On_52
Note_Velocity_68
Note_Duration_1080
Beat_12
Tempo_105
Beat_12
Note_On_73
Note_Velocity_80
Note_Duration_600
