Bar_None
Beat_0
Chord_A:min
Beat_0
Tempo_64
Beat_0
Note_On_67
Note_Velocity_56
Note_Duration_360
Beat_0
Note_On_71
Note_Velocity_56
Note_Duration_240
Beat_0
Note_On_60
Note_Velocity_44
Note_Duration_300
Beat_0
Note_On_76
Note_Velocity_72
Note_Duration_240
Beat_2
Note_On_71
Note_Velocity_56
Note_Duration_1200
Beat_2
Note_On_47
Note_Velocity_48
Note_Duration_1320
Beat_2
Note_On_76
Note_Velocity_56
Note_Duration_120
Beat_2
Note_On_81
Note_Velocity_72
Note_Duration_1200
Beat_4
Tempo_61
Beat_4
Note_On_54
Note_Velocity_52
Note_Duration_1020
Beat_6
Note_On_59
Note_Velocity_44
Note_Duration_960
Beat_8
Tempo_57
Beat_11
Note_On_67
Note_Velocity_40
Note_Duration_840
Beat_12
Tempo_63
Beat_12
Note_On_52
Note_Velocity_44
Note_Duration_1020
Beat_12
Note_On_71
Note_Velocity_56
Note_Duration_1020
Beat_12
Note_On_78
Note_Velocity_68
Note_Duration_1020
Beat_15
Note_On_59
Note_Velocity_40
Note_Duration_600
Bar_None
Beat_0
Chord_E:min
Beat_0
Tempo_60
Beat_1
Note_On_64
Note_Velocity_44
Note_Duration_960
Beat_2
Note_On_67
Note_Velocity_44
Note_Duration_660
Beat_4
Tempo_65
Beat_4
Note_On_59
Note_Velocity_40
Note_Duration_540
Beat_4
Note_On_74
Note_Velocity_56
Note_Duration_540
Beat_6
Note_On_52
Note_Velocity_40
Note_Duration_300
Beat_6
Note_On_71
Note_Velocity_44
Note_Duration_300
Beat_8
Tempo_66
Beat_8
Note_On_67
Note_Velocity_44
Note_Duration_1740
Beat_8
Note_On_52
Note_Velocity_40
Note_Duration_480
Beat_8
Note_On_71
Note_Velocity_48
Note_Duration_240
Beat_9
Note_On_74
Note_Velocity_56
Note_Duration_600
Beat_10
Note_On_59
Note_Velocity_52
Note_Duration_960
Beat_12
Tempo_63
Beat_12
Note_On_64
Note_Velocity_48
Note_Duration_480
Beat_13
Note_On_71
Note_Velocity_56
Note_Duration_60
Beat_13
Note_On_71
Note_Velocity_44
Note_Duration_900
Beat_14
Note_On_74
Note_Velocity_56
Note_Duration_960
Beat_14
Note_On_83
Note_Velocity_68
Note_Duration_960
Bar_None
Beat_0
Chord_E:min
Beat_0
Tempo_65
Beat_0
Note_On_64
Note_Velocity_44
Note_Duration_780
Beat_0
Note_On_81
Note_Velocity_72
Note_Duration_720
Beat_2
Note_On_59
Note_Velocity_40
Note_Duration_540
Beat_2
Note_On_79
Note_Velocity_60
Note_Duration_480
Beat_4
Tempo_71
Beat_5
Note_On_71
Note_Velocity_48
Note_Duration_180
Beat_6
Note_On_74
Note_Velocity_56
Note_Duration_780
Beat_6
Note_On_47
Note_Velocity_40
Note_Duration_780
Beat_6
Note_On_81
Note_Velocity_68
Note_Duration_780
Beat_8
Chord_E:min
Beat_8
Tempo_76
Beat_8
Note_On_54
Note_Velocity_52
Note_Duration_600
Beat_10
Note_On_59
Note_Velocity_44
Note_Duration_300
Beat_12
Tempo_78
Beat_12
Note_On_48
Note_Velocity_48
Note_Duration_780
Beat_12
Note_On_76
Note_Velocity_52
Note_Duration_2460
Beat_12
Note_On_79
Note_Velocity_64
Note_Duration_1200
Beat_14
Note_On_55
Note_Velocity_44
Note_Duration_540
Bar_None
Beat_0
Tempo_76
Beat_0
Note_On_60
Note_Velocity_40
Note_Duration_300
Beat_2
Note_On_45
Note_Velocity_52
Note_Duration_780
Beat_4
Tempo_69
Beat_4
Note_On_52
Note_Velocity_52
Note_Duration_540
Beat_6
Note_On_60
Note_Velocity_56
Note_Duration_240
Beat_8
Chord_A:min
Beat_8
Tempo_58
Beat_8
Note_On_48
Note_Velocity_56
Note_Duration_480
Beat_8
Note_On_60
Note_Velocity_56
Note_Duration_1020
Beat_10
Note_On_50
Note_Velocity_40
Note_Duration_780
Beat_10
Note_On_62
Note_Velocity_44
Note_Duration_780
Beat_12
Tempo_66
Beat_12
Note_On_48
Note_Velocity_44
Note_Duration_540
Beat_15
Note_On_67
Note_Velocity_44
Note_Duration_780
Bar_None
Beat_0
Chord_E:min
Beat_0
Tempo_74
Beat_0
Note_On_71
Note_Velocity_56
Note_Duration_960
Beat_0
Note_On_52
Note_Velocity_44
Note_Duration_180
Beat_0
Note_On_78
Note_Velocity_72
Note_Duration_1140
Beat_2
Note_On_59
Note_Velocity_44
Note_Duration_660
Beat_4
Tempo_73
Beat_4
Note_On_64
Note_Velocity_48
Note_Duration_1320
Beat_6
Note_On_67
Note_Velocity_52
Note_Duration_660
Beat_8
Tempo_68
Beat_8
Note_On_59
Note_Velocity_44
Note_Duration_540
Beat_8
Note_On_74
Note_Velocity_72
Note_Duration_540
Beat_9
Note_On_52
Note_Velocity_44
Note_Duration_300
Beat_9
Note_On_71
Note_Velocity_56
Note_Duration_240
Beat_11
Note_On_67
Note_Velocity_44
Note_Duration_660
Beat_12
Tempo_72
Beat_12
Note_On_71
Note_Velocity_56
Note_Duration_780
Beat_12
Note_On_52
Note_Velocity_40
Note_Duration_120
Beat_12
Note_On_74
Note_Velocity_64
Note_Duration_1260
Beat_14
Note_On_59
Note_Velocity_44
Note_Duration_1440
Beat_14
Note_On_76
Note_Velocity_60
Note_Duration_780
Bar_None
Beat_0
Chord_E:min
Beat_0
Tempo_78
Beat_0
Note_On_64
Note_Velocity_44
Note_Duration_480
Beat_1
Note_On_67
Note_Velocity_52
Note_Duration_660
Beat_2
Note_On_71
Note_Velocity_68
Note_Duration_960
Beat_4
Tempo_85
Beat_4
Note_On_64
Note_Velocity_52
Note_Duration_720
Beat_4
Note_On_69
Note_Velocity_60
Note_Duration_720
Beat_6
Note_On_52
Note_Velocity_44
Note_Duration_420
Beat_6
Note_On_67
Note_Velocity_56
Note_Duration_420
Beat_8
Chord_B:min
Beat_8
Tempo_81
Beat_9
Note_On_62
Note_Velocity_44
Note_Duration_900
Beat_9
Note_On_66
Note_Velocity_56
Note_Duration_840
Beat_10
Note_On_47
Note_Velocity_44
Note_Duration_840
Beat_10
Note_On_69
Note_Velocity_60
Note_Duration_780
Beat_12
Tempo_80
Beat_12
Note_On_54
Note_Velocity_52
Note_Duration_540
Beat_14
Note_On_59
Note_Velocity_56
Note_Duration_300
Bar_None
Beat_0
Chord_E:min
Beat_0
Tempo_75
Beat_0
Note_On_48
Note_Velocity_48
Note_Duration_780
Beat_0
Note_On_64
Note_Velocity_56
Note_Duration_1500
Beat_0
Note_On_67
Note_Velocity_56
Note_Duration_1500
Beat_2
Note_On_55
Note_Velocity_40
Note_Duration_540
Beat_4
Tempo_75
Beat_4
Note_On_60
Note_Velocity_44
Note_Duration_300
Beat_6
Note_On_45
Note_Velocity_56
Note_Duration_720
Beat_8
Tempo_71
Beat_8
Note_On_52
Note_Velocity_52
Note_Duration_480
Beat_10
Note_On_60
Note_Velocity_52
Note_Duration_240
Beat_12
Tempo_61
Beat_12
Note_On_48
Note_Velocity_48
Note_Duration_480
Beat_12
Note_On_60
Note_Velocity_52
Note_Duration_480
Beat_14
Note_On_50
Note_Velocity_40
Note_Duration_780
Beat_14
Note_On_62
Note_Velocity_52
Note_Duration_780
Bar_None
Beat_0
Chord_E:min
Beat_0
Tempo_70
Beat_0
Note_On_48
Note_Velocity_56
Note_Duration_540
Beat_0
Note_On_60
Note_Velocity_56
Note_Duration_540
Beat_4
Tempo_65
Beat_4
Note_On_67
Note_Velocity_44
Note_Duration_720
Beat_4
Note_On_71
Note_Velocity_56
Note_Duration_780
Beat_4
Note_On_78
Note_Velocity_76
Note_Duration_720
Beat_4
Note_On_40
Note_Velocity_52
Note_Duration_1440
Beat_6
Note_On_47
Note_Velocity_56
Note_Duration_840
Beat_8
Tempo_68
Beat_8
Note_On_52
Note_Velocity_56
Note_Duration_420
Beat_10
Note_On_55
Note_Velocity_64
Note_Duration_780
Beat_10
Note_On_67
Note_Velocity_68
Note_Duration_660
Beat_10
Note_On_74
Note_Velocity_68
Note_Duration_120
Beat_11
Note_On_52
Note_Velocity_44
Note_Duration_600
Beat_12
Tempo_78
Beat_13
Note_On_47
Note_Velocity_52
Note_Duration_360
Beat_14
Note_On_71
Note_Velocity_56
Note_Duration_240
Beat_15
Note_On_67
Note_Velocity_52
Note_Duration_1740
Bar_None
Beat_0
Chord_E:min
Beat_0
Tempo_77
Beat_0
Note_On_40
Note_Velocity_48
Note_Duration_900
Beat_0
Note_On_74
Note_Velocity_68
Note_Duration_660
Beat_2
Note_On_47
Note_Velocity_52
Note_Duration_960
Beat_2
Note_On_76
Note_Velocity_72
Note_Duration_1440
Beat_4
Tempo_74
Beat_4
Note_On_52
Note_Velocity_60
Note_Duration_480
Beat_5
Note_On_71
Note_Velocity_72
Note_Duration_420
Beat_6
Note_On_55
Note_Velocity_60
Note_Duration_1020
Beat_6
Note_On_74
Note_Velocity_72
Note_Duration_960
Beat_6
Note_On_83
Note_Velocity_68
Note_Duration_960
Beat_8
Chord_E:min
Beat_8
Tempo_82
Beat_8
Note_On_81
Note_Velocity_76
Note_Duration_720
Beat_8
Note_On_52
Note_Velocity_60
Note_Duration_720
Beat_8
Note_On_71
Note_Velocity_64
Note_Duration_600
Beat_10
Note_On_47
Note_Velocity_56
Note_Duration_420
Beat_10
Note_On_79
Note_Velocity_76
Note_Duration_420
Beat_12
Tempo_77
Beat_13
Note_On_71
Note_Velocity_56
Note_Duration_120
Beat_14
Note_On_74
Note_Velocity_56
Note_Duration_840
Beat_14
Note_On_47
Note_Velocity_44
Note_Duration_780
Beat_14
Note_On_81
Note_Velocity_72
Note_Duration_780
Bar_None
Beat_0
Chord_E:min
Beat_0
Tempo_83
Beat_0
Note_On_54
Note_Velocity_52
Note_Duration_540
Beat_2
Note_On_59
Note_Velocity_56
Note_Duration_300
Beat_4
Tempo_77
Beat_4
Note_On_48
Note_Velocity_60
Note_Duration_780
Beat_4
Note_On_76
Note_Velocity_64
Note_Duration_780
Beat_4
Note_On_79
Note_Velocity_76
Note_Duration_780
Beat_4
Note_On_60
Note_Velocity_56
Note_Duration_120
Beat_6
Note_On_55
Note_Velocity_60
Note_Duration_540
Beat_8
Tempo_75
Beat_8
Note_On_60
Note_Velocity_68
Note_Duration_300
Beat_10
Note_On_45
Note_Velocity_60
Note_Duration_780
Beat_12
Tempo_73
Beat_12
Note_On_52
Note_Velocity_64
Note_Duration_540
Beat_14
Note_On_60
Note_Velocity_72
Note_Duration_240
Bar_None
Beat_0
Chord_A:min
Beat_0
Tempo_83
Beat_0
Note_On_48
Note_Velocity_64
Note_Duration_600
Beat_0
Note_On_60
Note_Velocity_60
Note_Duration_960
Beat_2
Note_On_50
Note_Velocity_56
Note_Duration_660
Beat_4
Tempo_76
Beat_5
Note_On_48
Note_Velocity_60
Note_Duration_420
Beat_6
Note_On_67
Note_Velocity_72
Note_Duration_240
Beat_8
Chord_E:min
Beat_8
Tempo_81
Beat_8
Note_On_71
Note_Velocity_68
Note_Duration_1260
Beat_8
Note_On_40
Note_Velocity_48
Note_Duration_1440
Beat_8
Note_On_78
Note_Velocity_76
Note_Duration_1440
Beat_10
Note_On_47
Note_Velocity_56
Note_Duration_900
Beat_12
Tempo_75
Beat_12
Note_On_52
Note_Velocity_56
Note_Duration_420
Beat_14
Note_On_74
Note_Velocity_72
Note_Duration_720
Beat_14
Note_On_55
Note_Velocity_48
Note_Duration_720
Beat_14
Note_On_67
Note_Velocity_60
Note_Duration_600
Bar_None
Beat_0
Tempo_73
Beat_0
Note_On_52
Note_Velocity_56
Note_Duration_540
Beat_2
Note_On_47
Note_Velocity_52
Note_Duration_300
Beat_2
Note_On_71
Note_Velocity_68
Note_Duration_120
Beat_3
Note_On_67
Note_Velocity_56
Note_Duration_1800
Beat_4
Tempo_77
Beat_4
Note_On_71
Note_Velocity_52
Note_Duration_420
Beat_4
Note_On_40
Note_Velocity_44
Note_Duration_840
Beat_4
Note_On_74
Note_Velocity_72
Note_Duration_660
Beat_6
Note_On_47
Note_Velocity_48
Note_Duration_1020
Beat_6
Note_On_76
Note_Velocity_72
Note_Duration_1440
Beat_8
Chord_E:min
Beat_8
Tempo_73
Beat_8
Note_On_52
Note_Velocity_68
Note_Duration_480
Beat_9
Note_On_71
Note_Velocity_56
Note_Duration_120
Beat_9
Note_On_71
Note_Velocity_56
Note_Duration_780
Beat_10
Note_On_74
Note_Velocity_72
Note_Duration_960
Beat_10
Note_On_55
Note_Velocity_48
Note_Duration_1020
Beat_10
Note_On_83
Note_Velocity_68
Note_Duration_960
Beat_12
Tempo_89
Beat_12
Note_On_52
Note_Velocity_56
Note_Duration_720
Beat_12
Note_On_81
Note_Velocity_72
Note_Duration_720
Beat_15
Note_On_47
Note_Velocity_56
Note_Duration_360
Bar_None
Beat_0
Chord_B:min
Beat_0
Tempo_78
Beat_0
Note_On_71
Note_Velocity_64
Note_Duration_180
Beat_0
Note_On_79
Note_Velocity_76
Note_Duration_240
Beat_1
Note_On_71
Note_Velocity_52
Note_Duration_60
Beat_2
Note_On_74
Note_Velocity_56
Note_Duration_840
Beat_2
Note_On_47
Note_Velocity_44
Note_Duration_780
Beat_2
Note_On_81
Note_Velocity_72
Note_Duration_780
Beat_4
Tempo_81
Beat_4
Note_On_54
Note_Velocity_52
Note_Duration_540
Beat_6
Note_On_59
Note_Velocity_60
Note_Duration_360
Beat_8
Chord_E:min
Beat_8
Tempo_82
Beat_8
Note_On_72
Note_Velocity_56
Note_Duration_1320
Beat_8
Note_On_76
Note_Velocity_64
Note_Duration_1440
Beat_8
Note_On_79
Note_Velocity_72
Note_Duration_1500
Beat_8
Note_On_48
Note_Velocity_60
Note_Duration_720
Beat_8
Note_On_60
Note_Velocity_56
Note_Duration_120
Beat_10
Note_On_55
Note_Velocity_56
Note_Duration_480
Beat_12
Tempo_76
Beat_12
Note_On_60
Note_Velocity_72
Note_Duration_300
Beat_14
Note_On_45
Note_Velocity_60
Note_Duration_720
Bar_None
Beat_0
Tempo_75
Beat_0
Note_On_52
Note_Velocity_68
Note_Duration_540
Beat_2
Note_On_57
Note_Velocity_76
Note_Duration_300
Beat_3
Note_On_72
Note_Velocity_72
Note_Duration_120
Beat_4
Tempo_69
Beat_4
Note_On_48
Note_Velocity_68
Note_Duration_480
Beat_4
Note_On_60
Note_Velocity_68
Note_Duration_60
Beat_4
Note_On_72
Note_Velocity_68
Note_Duration_240
Beat_4
Note_On_76
Note_Velocity_68
Note_Duration_900
Beat_6
Note_On_81
Note_Velocity_76
Note_Duration_600
Beat_6
Note_On_50
Note_Velocity_52
Note_Duration_600
Beat_6
Note_On_72
Note_Velocity_72
Note_Duration_240
Beat_8
Chord_E:min
Beat_8
Tempo_77
Beat_8
Note_On_48
Note_Velocity_60
Note_Duration_360
Beat_8
Note_On_60
Note_Velocity_68
Note_Duration_360
Beat_8
Note_On_72
Note_Velocity_72
Note_Duration_360
Beat_8
Note_On_79
Note_Velocity_72
Note_Duration_420
Beat_10
Note_On_67
Note_Velocity_56
Note_Duration_120
Beat_11
Note_On_71
Note_Velocity_68
Note_Duration_1560
Beat_11
Note_On_40
Note_Velocity_48
Note_Duration_1620
Beat_11
Note_On_78
Note_Velocity_76
Note_Duration_480
Beat_12
Tempo_72
Beat_14
Note_On_47
Note_Velocity_48
Note_Duration_900
Beat_14
Note_On_81
Note_Velocity_76
Note_Duration_1320
Beat_15
Note_On_78
Note_Velocity_76
Note_Duration_1080
Beat_15
Note_On_52
Note_Velocity_56
Note_Duration_420
Bar_None
Beat_0
Tempo_76
Beat_1
Note_On_76
Note_Velocity_72
Note_Duration_480
Beat_1
Note_On_55
Note_Velocity_56
Note_Duration_840
Beat_1
Note_On_67
Note_Velocity_60
Note_Duration_720
Beat_3
Note_On_52
Note_Velocity_56
Note_Duration_1020
Beat_3
Note_On_74
Note_Velocity_72
Note_Duration_600
Beat_4
Tempo_75
Beat_5
Note_On_47
Note_Velocity_48
Note_Duration_360
Beat_5
Note_On_76
Note_Velocity_72
Note_Duration_300
Beat_7
Note_On_67
Note_Velocity_56
Note_Duration_1500
Beat_8
Chord_E:min
Beat_8
Tempo_75
Beat_8
Note_On_71
Note_Velocity_56
Note_Duration_780
Beat_8
Note_On_76
Note_Velocity_72
Note_Duration_1500
Beat_8
Note_On_40
Note_Velocity_44
Note_Duration_120
Beat_10
Note_On_47
Note_Velocity_52
Note_Duration_900
Beat_12
Tempo_76
Beat_12
Note_On_52
Note_Velocity_56
Note_Duration_480
Beat_14
Note_On_55
Note_Velocity_44
Note_Duration_780
Beat_14
Note_On_71
Note_Velocity_56
Note_Duration_120
Beat_15
Note_On_71
Note_Velocity_52
Note_Duration_120
Bar_None
Beat_0
Tempo_71
Beat_0
Note_On_52
Note_Velocity_56
Note_Duration_540
Beat_0
Note_On_71
Note_Velocity_64
Note_Duration_480
Beat_0
Note_On_83
Note_Velocity_68
Note_Duration_600
Beat_2
Note_On_47
Note_Velocity_56
Note_Duration_1020
Beat_2
Note_On_69
Note_Velocity_72
Note_Duration_360
Beat_2
Note_On_81
Note_Velocity_72
Note_Duration_360
Beat_4
Tempo_74
Beat_4
Note_On_67
Note_Velocity_56
Note_Duration_300
Beat_4
Note_On_71
Note_Velocity_60
Note_Duration_540
Beat_4
Note_On_79
Note_Velocity_72
Note_Duration_540
Beat_6
Note_On_54
Note_Velocity_56
Note_Duration_480
Beat_8
Chord_A:min
Beat_8
Tempo_77
Beat_8
Note_On_59
Note_Velocity_68
Note_Duration_240
Beat_9
Note_On_67
Note_Velocity_68
Note_Duration_180
Beat_9
Note_On_79
Note_Velocity_76
Note_Duration_180
Beat_10
Note_On_48
Note_Velocity_60
Note_Duration_780
Beat_10
Note_On_71
Note_Velocity_68
Note_Duration_720
Beat_10
Note_On_83
Note_Velocity_68
Note_Duration_720
Beat_12
Tempo_76
Beat_12
Note_On_55
Note_Velocity_56
Note_Duration_540
Beat_12
Note_On_81
Note_Velocity_72
Note_Duration_540
Beat_12
Note_On_69
Note_Velocity_72
Note_Duration_540
Beat_14
Note_On_79
Note_Velocity_76
Note_Duration_300
Beat_14
Note_On_67
Note_Velocity_72
Note_Duration_300
