Bar_None
Beat_0
Chord_E:maj
Beat_0
Tempo_81
Beat_0
Note_On_40
Note_Velocity_36
Note_Duration_360
Beat_3
Note_On_52
Note_Velocity_48
Note_Duration_840
Beat_3
Note_On_66
Note_Velocity_44
Note_Duration_960
Beat_3
Note_On_57
Note_Velocity_40
Note_Duration_660
Beat_3
Note_On_64
Note_Velocity_36
Note_Duration_1020
Beat_3
Note_On_80
Note_Velocity_60
Note_Duration_2820
Beat_4
Tempo_81
Beat_5
Note_On_78
Note_Velocity_60
Note_Duration_300
Beat_7
Note_On_76
Note_Velocity_56
Note_Duration_240
Beat_8
Chord_A:maj
Beat_8
Tempo_81
Beat_8
Note_On_45
Note_Velocity_36
Note_Duration_240
Beat_8
Note_On_76
Note_Velocity_44
Note_Duration_1920
Beat_10
Note_On_52
Note_Velocity_40
Note_Duration_1860
Beat_10
Note_On_59
Note_Velocity_48
Note_Duration_840
Beat_10
Note_On_61
Note_Velocity_44
Note_Duration_960
Beat_10
Note_On_64
Note_Velocity_44
Note_Duration_960
Beat_10
Note_On_74
Note_Velocity_52
Note_Duration_480
Beat_12
Tempo_84
Beat_14
Note_On_73
Note_Velocity_52
Note_Duration_2340
Bar_None
Beat_0
Tempo_84
Beat_0
Note_On_73
Note_Velocity_48
Note_Duration_180
Beat_3
Note_On_61
Note_Velocity_40
Note_Duration_360
Beat_3
Note_On_64
Note_Velocity_40
Note_Duration_1260
Beat_4
Tempo_83
Beat_4
Note_On_81
Note_Velocity_60
Note_Duration_240
Beat_6
Note_On_81
Note_Velocity_60
Note_Duration_120
Beat_8
Chord_A:maj
Beat_8
Tempo_84
Beat_8
Note_On_81
Note_Velocity_60
Note_Duration_960
Beat_10
Note_On_59
Note_Velocity_44
Note_Duration_1260
Beat_10
Note_On_52
Note_Velocity_40
Note_Duration_780
Beat_10
Note_On_61
Note_Velocity_44
Note_Duration_960
Beat_10
Note_On_64
Note_Velocity_52
Note_Duration_960
Beat_12
Tempo_83
Beat_14
Note_On_73
Note_Velocity_52
Note_Duration_240
Bar_None
Beat_0
Chord_F#:min
Beat_0
Tempo_80
Beat_0
Note_On_74
Note_Velocity_52
Note_Duration_240
Beat_0
Note_On_81
Note_Velocity_64
Note_Duration_1020
Beat_2
Note_On_57
Note_Velocity_44
Note_Duration_240
Beat_2
Note_On_61
Note_Velocity_44
Note_Duration_240
Beat_2
Note_On_64
Note_Velocity_44
Note_Duration_360
Beat_4
Tempo_80
Beat_4
Note_On_45
Note_Velocity_36
Note_Duration_2220
Beat_4
Note_On_73
Note_Velocity_56
Note_Duration_540
Beat_4
Note_On_80
Note_Velocity_64
Note_Duration_540
Beat_6
Note_On_57
Note_Velocity_40
Note_Duration_1920
Beat_6
Note_On_61
Note_Velocity_44
Note_Duration_720
Beat_6
Note_On_64
Note_Velocity_40
Note_Duration_720
Beat_8
Tempo_83
Beat_8
Note_On_76
Note_Velocity_56
Note_Duration_240
Beat_10
Note_On_76
Note_Velocity_56
Note_Duration_1740
Beat_12
Tempo_86
Beat_12
Note_On_61
Note_Velocity_48
Note_Duration_540
Beat_12
Note_On_64
Note_Velocity_52
Note_Duration_1200
Bar_None
Beat_0
Chord_A:maj
Beat_0
Tempo_76
Beat_0
Note_On_71
Note_Velocity_60
Note_Duration_1200
Beat_0
Note_On_80
Note_Velocity_64
Note_Duration_1980
Beat_4
Tempo_84
Beat_4
Note_On_52
Note_Velocity_40
Note_Duration_960
Beat_4
Note_On_59
Note_Velocity_36
Note_Duration_960
Beat_8
Tempo_80
Beat_8
Note_On_73
Note_Velocity_56
Note_Duration_1020
Beat_10
Note_On_45
Note_Velocity_36
Note_Duration_720
Beat_10
Note_On_52
Note_Velocity_40
Note_Duration_720
Beat_10
Note_On_71
Note_Velocity_52
Note_Duration_780
Beat_12
Tempo_85
Bar_None
Beat_0
Chord_A:maj
Beat_0
Tempo_78
Beat_0
Note_On_45
Note_Velocity_32
Note_Duration_300
Beat_0
Note_On_52
Note_Velocity_40
Note_Duration_300
Beat_0
Note_On_57
Note_Velocity_44
Note_Duration_300
Beat_2
Note_On_52
Note_Velocity_36
Note_Duration_1020
Beat_2
Note_On_59
Note_Velocity_36
Note_Duration_1020
Beat_2
Note_On_62
Note_Velocity_40
Note_Duration_960
Beat_2
Note_On_74
Note_Velocity_48
Note_Duration_1020
Beat_4
Tempo_81
Beat_8
Chord_D:min
Beat_8
Tempo_83
Beat_10
Note_On_34
Note_Velocity_40
Note_Duration_960
Beat_10
Note_On_46
Note_Velocity_40
Note_Duration_960
Beat_10
Note_On_60
Note_Velocity_44
Note_Duration_120
Beat_12
Tempo_80
Beat_14
Note_On_74
Note_Velocity_48
Note_Duration_480
Beat_14
Note_On_86
Note_Velocity_56
Note_Duration_1440
Bar_None
Beat_0
Tempo_83
Beat_0
Note_On_58
Note_Velocity_48
Note_Duration_780
Beat_0
Note_On_79
Note_Velocity_64
Note_Duration_480
Beat_4
Tempo_80
Beat_4
Note_On_60
Note_Velocity_44
Note_Duration_1260
Beat_4
Note_On_72
Note_Velocity_60
Note_Duration_960
Beat_4
Note_On_79
Note_Velocity_60
Note_Duration_240
Beat_6
Note_On_55
Note_Velocity_40
Note_Duration_1260
Beat_6
Note_On_64
Note_Velocity_52
Note_Duration_1260
Beat_6
Note_On_67
Note_Velocity_44
Note_Duration_960
Beat_8
Chord_F:maj
Beat_8
Tempo_82
Beat_10
Note_On_81
Note_Velocity_64
Note_Duration_780
Beat_12
Tempo_84
Beat_12
Note_On_72
Note_Velocity_52
Note_Duration_240
Beat_14
Note_On_72
Note_Velocity_56
Note_Duration_240
Bar_None
Beat_0
Tempo_78
Beat_0
Note_On_55
Note_Velocity_40
Note_Duration_1320
Beat_0
Note_On_60
Note_Velocity_52
Note_Duration_1020
Beat_0
Note_On_72
Note_Velocity_64
Note_Duration_1080
Beat_2
Note_On_62
Note_Velocity_48
Note_Duration_840
Beat_2
Note_On_69
Note_Velocity_56
Note_Duration_1080
Beat_4
Tempo_77
Beat_4
Note_On_67
Note_Velocity_44
Note_Duration_240
Beat_4
Note_On_79
Note_Velocity_68
Note_Duration_240
Beat_6
Note_On_72
Note_Velocity_60
Note_Duration_300
Beat_6
Note_On_79
Note_Velocity_60
Note_Duration_300
Beat_8
Chord_A:min
Beat_8
Tempo_81
Beat_8
Note_On_69
Note_Velocity_64
Note_Duration_1140
Beat_8
Note_On_81
Note_Velocity_68
Note_Duration_1080
Beat_10
Note_On_84
Note_Velocity_64
Note_Duration_60
Beat_12
Tempo_77
Beat_12
Note_On_57
Note_Velocity_52
Note_Duration_1200
Beat_12
Note_On_72
Note_Velocity_64
Note_Duration_240
Beat_12
Note_On_84
Note_Velocity_72
Note_Duration_1920
Beat_14
Note_On_72
Note_Velocity_68
Note_Duration_240
Beat_14
Note_On_76
Note_Velocity_56
Note_Duration_360
Bar_None
Beat_0
Chord_D:min
Beat_0
Tempo_80
Beat_0
Note_On_60
Note_Velocity_52
Note_Duration_1440
Beat_0
Note_On_72
Note_Velocity_64
Note_Duration_720
Beat_0
Note_On_76
Note_Velocity_60
Note_Duration_1440
Beat_0
Note_On_65
Note_Velocity_56
Note_Duration_720
Beat_4
Tempo_84
Beat_4
Note_On_74
Note_Velocity_56
Note_Duration_720
Beat_6
Note_On_57
Note_Velocity_48
Note_Duration_1260
Beat_6
Note_On_72
Note_Velocity_60
Note_Duration_240
Beat_8
Chord_G:dim
Beat_8
Tempo_82
Beat_8
Note_On_72
Note_Velocity_60
Note_Duration_960
Beat_10
Note_On_62
Note_Velocity_56
Note_Duration_780
Beat_10
Note_On_65
Note_Velocity_60
Note_Duration_960
Beat_10
Note_On_74
Note_Velocity_60
Note_Duration_240
Beat_12
Tempo_82
Beat_12
Note_On_74
Note_Velocity_64
Note_Duration_600
Beat_12
Note_On_84
Note_Velocity_72
Note_Duration_1500
Beat_14
Note_On_70
Note_Velocity_56
Note_Duration_240
Bar_None
Beat_0
Tempo_81
Beat_0
Note_On_58
Note_Velocity_52
Note_Duration_300
Beat_0
Note_On_72
Note_Velocity_68
Note_Duration_960
Beat_0
Note_On_55
Note_Velocity_48
Note_Duration_360
Beat_2
Note_On_65
Note_Velocity_56
Note_Duration_720
Beat_2
Note_On_58
Note_Velocity_52
Note_Duration_480
Beat_4
Tempo_80
Beat_4
Note_On_48
Note_Velocity_48
Note_Duration_540
Beat_4
Note_On_72
Note_Velocity_64
Note_Duration_540
Beat_6
Note_On_58
Note_Velocity_52
Note_Duration_300
Beat_6
Note_On_76
Note_Velocity_64
Note_Duration_300
Beat_8
Chord_F:maj
Beat_8
Tempo_81
Beat_8
Note_On_43
Note_Velocity_52
Note_Duration_1320
Beat_10
Note_On_55
Note_Velocity_48
Note_Duration_480
Beat_12
Tempo_75
Beat_12
Note_On_76
Note_Velocity_60
Note_Duration_480
Beat_12
Note_On_84
Note_Velocity_64
Note_Duration_960
Beat_14
Note_On_55
Note_Velocity_44
Note_Duration_960
Beat_15
Note_On_70
Note_Velocity_56
Note_Duration_360
Beat_15
Note_On_76
Note_Velocity_60
Note_Duration_1080
Bar_None
Beat_0
Tempo_77
Beat_0
Note_On_59
Note_Velocity_52
Note_Duration_720
Beat_0
Note_On_76
Note_Velocity_60
Note_Duration_1200
Beat_4
Tempo_76
Beat_4
Note_On_64
Note_Velocity_44
Note_Duration_720
Beat_6
Note_On_52
Note_Velocity_44
Note_Duration_1200
Beat_6
Note_On_59
Note_Velocity_44
Note_Duration_300
Beat_8
Chord_D:min
Beat_8
Tempo_76
Beat_8
Note_On_77
Note_Velocity_60
Note_Duration_300
Beat_10
Note_On_33
Note_Velocity_56
Note_Duration_780
Beat_10
Note_On_45
Note_Velocity_52
Note_Duration_780
Beat_10
Note_On_60
Note_Velocity_52
Note_Duration_780
Beat_10
Note_On_72
Note_Velocity_64
Note_Duration_480
Beat_10
Note_On_79
Note_Velocity_64
Note_Duration_480
Beat_12
Tempo_82
Beat_12
Note_On_69
Note_Velocity_64
Note_Duration_540
Beat_12
Note_On_81
Note_Velocity_76
Note_Duration_480
Beat_14
Note_On_72
Note_Velocity_60
Note_Duration_300
Bar_None
Beat_0
Tempo_84
Beat_0
Note_On_45
Note_Velocity_48
Note_Duration_1260
Beat_0
Note_On_57
Note_Velocity_48
Note_Duration_1260
Beat_0
Note_On_72
Note_Velocity_60
Note_Duration_1200
Beat_0
Note_On_81
Note_Velocity_60
Note_Duration_1260
Beat_4
Tempo_83
Beat_4
Note_On_52
Note_Velocity_48
Note_Duration_960
Beat_6
Note_On_64
Note_Velocity_52
Note_Duration_780
Beat_8
Chord_D:min
Beat_8
Tempo_84
Beat_8
Note_On_67
Note_Velocity_52
Note_Duration_300
Beat_10
Note_On_38
Note_Velocity_60
Note_Duration_780
Beat_10
Note_On_50
Note_Velocity_60
Note_Duration_780
Beat_10
Note_On_72
Note_Velocity_64
Note_Duration_480
Beat_12
Tempo_80
Beat_12
Note_On_53
Note_Velocity_44
Note_Duration_540
Beat_12
Note_On_76
Note_Velocity_60
Note_Duration_540
Beat_14
Note_On_72
Note_Velocity_64
Note_Duration_240
Bar_None
Beat_0
Chord_D:min
Beat_0
Tempo_82
Beat_0
Note_On_45
Note_Velocity_52
Note_Duration_1200
Beat_0
Note_On_55
Note_Velocity_48
Note_Duration_480
Beat_0
Note_On_72
Note_Velocity_60
Note_Duration_1440
Beat_2
Note_On_53
Note_Velocity_52
Note_Duration_1020
Beat_4
Tempo_84
Beat_4
Note_On_60
Note_Velocity_52
Note_Duration_780
Beat_4
Note_On_74
Note_Velocity_64
Note_Duration_1200
Beat_6
Note_On_72
Note_Velocity_60
Note_Duration_240
Beat_8
Tempo_82
Beat_8
Note_On_72
Note_Velocity_64
Note_Duration_1020
Beat_10
Note_On_45
Note_Velocity_48
Note_Duration_780
Beat_10
Note_On_52
Note_Velocity_48
Note_Duration_780
Beat_10
Note_On_67
Note_Velocity_56
Note_Duration_780
Beat_12
Tempo_78
Beat_12
Note_On_57
Note_Velocity_48
Note_Duration_540
Beat_12
Note_On_69
Note_Velocity_60
Note_Duration_540
Beat_13
Note_On_60
Note_Velocity_44
Note_Duration_660
Beat_14
Note_On_65
Note_Velocity_48
Note_Duration_1200
Bar_None
Beat_0
Chord_F:maj
Beat_0
Tempo_81
Beat_0
Note_On_40
Note_Velocity_56
Note_Duration_1020
Beat_2
Note_On_52
Note_Velocity_52
Note_Duration_780
Beat_4
Tempo_82
Beat_4
Note_On_76
Note_Velocity_60
Note_Duration_480
Beat_4
Note_On_67
Note_Velocity_44
Note_Duration_540
Beat_4
Note_On_55
Note_Velocity_52
Note_Duration_480
Beat_6
Note_On_74
Note_Velocity_64
Note_Duration_300
Beat_8
Tempo_82
Beat_8
Note_On_43
Note_Velocity_64
Note_Duration_1320
Beat_10
Note_On_55
Note_Velocity_48
Note_Duration_1500
Beat_12
Tempo_81
Beat_12
Note_On_76
Note_Velocity_64
Note_Duration_780
Beat_12
Note_On_88
Note_Velocity_64
Note_Duration_780
Beat_14
Note_On_69
Note_Velocity_48
Note_Duration_360
Beat_15
Note_On_70
Note_Velocity_52
Note_Duration_360
Beat_15
Note_On_74
Note_Velocity_56
Note_Duration_360
Bar_None
Beat_0
Chord_E:min
Beat_0
Tempo_77
Beat_0
Note_On_59
Note_Velocity_48
Note_Duration_720
Beat_0
Note_On_79
Note_Velocity_68
Note_Duration_1200
Beat_3
Note_On_64
Note_Velocity_52
Note_Duration_360
Beat_3
Note_On_71
Note_Velocity_56
Note_Duration_360
Beat_4
Tempo_81
Beat_6
Note_On_59
Note_Velocity_48
Note_Duration_720
Beat_6
Note_On_64
Note_Velocity_56
Note_Duration_540
Beat_6
Note_On_69
Note_Velocity_64
Note_Duration_240
Beat_8
Chord_F:maj
Beat_8
Tempo_75
Beat_8
Note_On_69
Note_Velocity_60
Note_Duration_300
Beat_10
Note_On_41
Note_Velocity_60
Note_Duration_780
Beat_10
Note_On_76
Note_Velocity_64
Note_Duration_480
Beat_10
Note_On_52
Note_Velocity_52
Note_Duration_720
Beat_12
Tempo_77
Beat_12
Note_On_60
Note_Velocity_52
Note_Duration_540
Beat_12
Note_On_79
Note_Velocity_60
Note_Duration_480
Beat_14
Note_On_76
Note_Velocity_64
Note_Duration_240
Beat_14
Note_On_64
Note_Velocity_56
Note_Duration_240
Bar_None
Beat_0
Tempo_78
Beat_0
Note_On_38
Note_Velocity_48
Note_Duration_1200
Beat_0
Note_On_72
Note_Velocity_60
Note_Duration_1200
Beat_0
Note_On_76
Note_Velocity_60
Note_Duration_1200
Beat_2
Note_On_53
Note_Velocity_48
Note_Duration_720
Beat_4
Tempo_78
Beat_4
Note_On_57
Note_Velocity_44
Note_Duration_240
Beat_4
Note_On_67
Note_Velocity_52
Note_Duration_720
Beat_6
Note_On_57
Note_Velocity_52
Note_Duration_780
Beat_6
Note_On_60
Note_Velocity_48
Note_Duration_660
Beat_8
Chord_D:min
Beat_8
Tempo_76
Beat_8
Note_On_53
Note_Velocity_44
Note_Duration_300
Beat_8
Note_On_69
Note_Velocity_48
Note_Duration_960
Beat_10
Note_On_41
Note_Velocity_48
Note_Duration_780
Beat_10
Note_On_53
Note_Velocity_48
Note_Duration_480
Beat_12
Tempo_78
Beat_12
Note_On_60
Note_Velocity_48
Note_Duration_540
Beat_14
Note_On_53
Note_Velocity_48
Note_Duration_240
Beat_14
Note_On_76
Note_Velocity_56
Note_Duration_300
Bar_None
Beat_0
Chord_C:maj
Beat_0
Tempo_76
Beat_0
Note_On_43
Note_Velocity_48
Note_Duration_1260
Beat_0
Note_On_74
Note_Velocity_56
Note_Duration_240
Beat_0
Note_On_65
Note_Velocity_52
Note_Duration_720
Beat_2
Note_On_50
Note_Velocity_40
Note_Duration_540
Beat_2
Note_On_74
Note_Velocity_60
Note_Duration_180
Beat_4
Tempo_77
Beat_4
Note_On_59
Note_Velocity_52
Note_Duration_780
Beat_4
Note_On_74
Note_Velocity_56
Note_Duration_720
Beat_6
Note_On_65
Note_Velocity_56
Note_Duration_240
Beat_6
Note_On_72
Note_Velocity_60
Note_Duration_540
Beat_8
Tempo_81
Beat_8
Note_On_65
Note_Velocity_52
Note_Duration_360
Beat_10
Note_On_48
Note_Velocity_48
Note_Duration_1260
Beat_10
Note_On_60
Note_Velocity_48
Note_Duration_1440
Beat_12
Tempo_80
Beat_12
Note_On_55
Note_Velocity_36
Note_Duration_480
Beat_12
Note_On_72
Note_Velocity_56
Note_Duration_1500
