Bar_None
Beat_0
Chord_E:min
Beat_0
Tempo_71
Beat_0
Note_On_76
Note_Velocity_48
Note_Duration_360
Beat_3
Note_On_52
Note_Velocity_40
Note_Duration_2820
Beat_3
Note_On_55
Note_Velocity_32
Note_Duration_960
Beat_3
Note_On_59
Note_Velocity_36
Note_Duration_840
Beat_4
Tempo_93
Beat_5
Note_On_60
Note_Velocity_44
Note_Duration_660
Beat_8
Chord_A:min
Beat_8
Tempo_95
Beat_8
Note_On_67
Note_Velocity_48
Note_Duration_300
Beat_10
Note_On_57
Note_Velocity_44
Note_Duration_1980
Beat_10
Note_On_53
Note_Velocity_36
Note_Duration_60
Beat_10
Note_On_64
Note_Velocity_36
Note_Duration_2820
Beat_12
Tempo_98
Beat_14
Note_On_79
Note_Velocity_60
Note_Duration_960
Bar_None
Beat_0
Tempo_100
Beat_0
Note_On_72
Note_Velocity_52
Note_Duration_360
Beat_3
Note_On_72
Note_Velocity_48
Note_Duration_120
Beat_4
Tempo_98
Beat_4
Note_On_72
Note_Velocity_60
Note_Duration_1260
Beat_6
Note_On_79
Note_Velocity_60
Note_Duration_960
Beat_8
Chord_A:min
Beat_8
Tempo_101
Beat_8
Note_On_60
Note_Velocity_40
Note_Duration_240
Beat_10
Note_On_52
Note_Velocity_48
Note_Duration_1920
Beat_10
Note_On_60
Note_Velocity_40
Note_Duration_960
Beat_10
Note_On_62
Note_Velocity_44
Note_Duration_1200
Beat_12
Tempo_101
Beat_14
Note_On_79
Note_Velocity_48
Note_Duration_240
Bar_None
Beat_0
Chord_A:min
Beat_0
Tempo_96
Beat_0
Note_On_79
Note_Velocity_64
Note_Duration_240
Beat_0
Note_On_43
Note_Velocity_36
Note_Duration_1260
Beat_2
Note_On_60
Note_Velocity_44
Note_Duration_1680
Beat_2
Note_On_79
Note_Velocity_64
Note_Duration_1020
Beat_4
Tempo_101
Beat_4
Note_On_62
Note_Velocity_36
Note_Duration_2700
Beat_4
Note_On_77
Note_Velocity_52
Note_Duration_720
Beat_6
Note_On_76
Note_Velocity_56
Note_Duration_540
Beat_6
Note_On_64
Note_Velocity_40
Note_Duration_540
Beat_8
Tempo_98
Beat_8
Note_On_74
Note_Velocity_60
Note_Duration_2220
Beat_10
Note_On_57
Note_Velocity_40
Note_Duration_1920
Beat_12
Tempo_101
Beat_12
Note_On_72
Note_Velocity_56
Note_Duration_960
Bar_None
Beat_0
Chord_A:min
Beat_0
Tempo_101
Beat_0
Note_On_60
Note_Velocity_36
Note_Duration_1200
Beat_0
Note_On_71
Note_Velocity_52
Note_Duration_1200
Beat_4
Tempo_100
Beat_4
Note_On_72
Note_Velocity_56
Note_Duration_1740
Beat_8
Tempo_96
Beat_8
Note_On_76
Note_Velocity_60
Note_Duration_960
Beat_10
Note_On_50
Note_Velocity_40
Note_Duration_720
Beat_10
Note_On_57
Note_Velocity_44
Note_Duration_1020
Beat_10
Note_On_60
Note_Velocity_36
Note_Duration_960
Beat_12
Tempo_100
Bar_None
Beat_0
Chord_A:min
Beat_0
Tempo_101
Beat_0
Note_On_50
Note_Velocity_32
Note_Duration_300
Beat_0
Note_On_76
Note_Velocity_48
Note_Duration_300
Beat_2
Note_On_52
Note_Velocity_40
Note_Duration_1020
Beat_2
Note_On_60
Note_Velocity_44
Note_Duration_1020
Beat_2
Note_On_74
Note_Velocity_56
Note_Duration_1020
Beat_2
Note_On_62
Note_Velocity_36
Note_Duration_960
Beat_4
Tempo_98
Beat_8
Chord_F:maj
Beat_8
Tempo_93
Beat_10
Note_On_41
Note_Velocity_40
Note_Duration_1920
Beat_10
Note_On_53
Note_Velocity_40
Note_Duration_480
Beat_12
Tempo_98
Beat_14
Note_On_79
Note_Velocity_56
Note_Duration_960
Beat_14
Note_On_67
Note_Velocity_44
Note_Duration_960
Bar_None
Beat_0
Tempo_101
Beat_0
Note_On_57
Note_Velocity_44
Note_Duration_1260
Beat_0
Note_On_72
Note_Velocity_60
Note_Duration_480
Beat_4
Tempo_98
Beat_4
Note_On_60
Note_Velocity_40
Note_Duration_780
Beat_4
Note_On_72
Note_Velocity_52
Note_Duration_780
Beat_6
Note_On_79
Note_Velocity_64
Note_Duration_960
Beat_6
Note_On_67
Note_Velocity_48
Note_Duration_960
Beat_8
Chord_F:maj
Beat_8
Tempo_96
Beat_10
Note_On_40
Note_Velocity_40
Note_Duration_1020
Beat_12
Tempo_100
Beat_14
Note_On_79
Note_Velocity_56
Note_Duration_240
Beat_14
Note_On_67
Note_Velocity_48
Note_Duration_240
Bar_None
Beat_0
Tempo_98
Beat_0
Note_On_55
Note_Velocity_40
Note_Duration_1320
Beat_0
Note_On_79
Note_Velocity_60
Note_Duration_240
Beat_0
Note_On_67
Note_Velocity_48
Note_Duration_180
Beat_2
Note_On_67
Note_Velocity_52
Note_Duration_1080
Beat_2
Note_On_79
Note_Velocity_64
Note_Duration_1080
Beat_2
Note_On_60
Note_Velocity_52
Note_Duration_1080
Beat_4
Tempo_101
Beat_4
Note_On_69
Note_Velocity_64
Note_Duration_840
Beat_4
Note_On_81
Note_Velocity_68
Note_Duration_840
Beat_6
Note_On_72
Note_Velocity_68
Note_Duration_240
Beat_6
Note_On_84
Note_Velocity_68
Note_Duration_240
Beat_8
Chord_A:min
Beat_8
Tempo_103
Beat_8
Note_On_72
Note_Velocity_56
Note_Duration_360
Beat_8
Note_On_84
Note_Velocity_68
Note_Duration_360
Beat_10
Note_On_43
Note_Velocity_44
Note_Duration_2820
Beat_12
Tempo_100
Beat_12
Note_On_69
Note_Velocity_56
Note_Duration_2040
Beat_12
Note_On_81
Note_Velocity_68
Note_Duration_2040
Beat_14
Note_On_55
Note_Velocity_44
Note_Duration_2160
Bar_None
Beat_0
Chord_G:min
Beat_0
Tempo_101
Beat_0
Note_On_58
Note_Velocity_48
Note_Duration_1440
Beat_0
Note_On_65
Note_Velocity_56
Note_Duration_1560
Beat_0
Note_On_72
Note_Velocity_60
Note_Duration_960
Beat_4
Tempo_105
Beat_4
Note_On_74
Note_Velocity_64
Note_Duration_720
Beat_6
Note_On_62
Note_Velocity_52
Note_Duration_1500
Beat_8
Chord_D:min
Beat_8
Tempo_100
Beat_8
Note_On_72
Note_Velocity_60
Note_Duration_600
Beat_10
Note_On_74
Note_Velocity_60
Note_Duration_240
Beat_10
Note_On_76
Note_Velocity_64
Note_Duration_960
Beat_12
Tempo_98
Beat_12
Note_On_58
Note_Velocity_56
Note_Duration_720
Beat_12
Note_On_74
Note_Velocity_64
Note_Duration_780
Beat_14
Note_On_72
Note_Velocity_60
Note_Duration_240
Bar_None
Beat_0
Tempo_103
Beat_0
Note_On_55
Note_Velocity_52
Note_Duration_300
Beat_0
Note_On_72
Note_Velocity_68
Note_Duration_300
Beat_0
Note_On_77
Note_Velocity_68
Note_Duration_540
Beat_2
Note_On_48
Note_Velocity_52
Note_Duration_960
Beat_2
Note_On_58
Note_Velocity_56
Note_Duration_960
Beat_4
Tempo_100
Beat_4
Note_On_76
Note_Velocity_68
Note_Duration_720
Beat_6
Note_On_55
Note_Velocity_48
Note_Duration_480
Beat_6
Note_On_74
Note_Velocity_64
Note_Duration_480
Beat_8
Chord_F:maj
Beat_8
Tempo_105
Beat_8
Note_On_72
Note_Velocity_64
Note_Duration_540
Beat_10
Note_On_41
Note_Velocity_44
Note_Duration_1920
Beat_12
Tempo_98
Beat_12
Note_On_69
Note_Velocity_60
Note_Duration_360
Beat_12
Note_On_76
Note_Velocity_60
Note_Duration_360
Beat_14
Note_On_57
Note_Velocity_48
Note_Duration_720
Beat_15
Note_On_69
Note_Velocity_60
Note_Duration_1320
Beat_15
Note_On_76
Note_Velocity_64
Note_Duration_1080
Bar_None
Beat_0
Tempo_103
Beat_0
Note_On_60
Note_Velocity_44
Note_Duration_720
Beat_0
Note_On_64
Note_Velocity_52
Note_Duration_1200
Beat_4
Tempo_100
Beat_4
Note_On_57
Note_Velocity_44
Note_Duration_720
Beat_6
Note_On_60
Note_Velocity_44
Note_Duration_480
Beat_8
Chord_D:min
Beat_8
Tempo_101
Beat_8
Note_On_76
Note_Velocity_60
Note_Duration_300
Beat_10
Note_On_40
Note_Velocity_44
Note_Duration_780
Beat_10
Note_On_74
Note_Velocity_60
Note_Duration_780
Beat_10
Note_On_38
Note_Velocity_44
Note_Duration_60
Beat_10
Note_On_67
Note_Velocity_52
Note_Duration_720
Beat_12
Tempo_96
Beat_12
Note_On_76
Note_Velocity_64
Note_Duration_600
Beat_14
Note_On_55
Note_Velocity_44
Note_Duration_300
Bar_None
Beat_0
Tempo_101
Beat_0
Note_On_45
Note_Velocity_48
Note_Duration_1260
Beat_0
Note_On_64
Note_Velocity_48
Note_Duration_1260
Beat_0
Note_On_67
Note_Velocity_48
Note_Duration_1260
Beat_0
Note_On_72
Note_Velocity_60
Note_Duration_960
Beat_4
Tempo_103
Beat_4
Note_On_52
Note_Velocity_52
Note_Duration_780
Beat_6
Note_On_60
Note_Velocity_60
Note_Duration_540
Beat_8
Chord_D:min
Beat_8
Tempo_98
Beat_8
Note_On_72
Note_Velocity_60
Note_Duration_300
Beat_10
Note_On_38
Note_Velocity_44
Note_Duration_780
Beat_10
Note_On_69
Note_Velocity_60
Note_Duration_780
Beat_10
Note_On_77
Note_Velocity_64
Note_Duration_780
Beat_12
Tempo_98
Beat_12
Note_On_53
Note_Velocity_60
Note_Duration_480
Beat_14
Note_On_57
Note_Velocity_48
Note_Duration_300
Beat_14
Note_On_76
Note_Velocity_64
Note_Duration_300
Bar_None
Beat_0
Chord_A:min
Beat_0
Tempo_100
Beat_0
Note_On_43
Note_Velocity_52
Note_Duration_480
Beat_0
Note_On_53
Note_Velocity_48
Note_Duration_1200
Beat_0
Note_On_74
Note_Velocity_60
Note_Duration_480
Beat_0
Note_On_67
Note_Velocity_52
Note_Duration_1200
Beat_2
Note_On_72
Note_Velocity_64
Note_Duration_720
Beat_4
Tempo_101
Beat_4
Note_On_43
Note_Velocity_48
Note_Duration_780
Beat_4
Note_On_74
Note_Velocity_64
Note_Duration_780
Beat_6
Note_On_59
Note_Velocity_48
Note_Duration_540
Beat_8
Tempo_101
Beat_8
Note_On_72
Note_Velocity_60
Note_Duration_240
Beat_10
Note_On_45
Note_Velocity_48
Note_Duration_1020
Beat_10
Note_On_55
Note_Velocity_48
Note_Duration_1020
Beat_10
Note_On_71
Note_Velocity_56
Note_Duration_1020
Beat_12
Tempo_98
Beat_12
Note_On_69
Note_Velocity_60
Note_Duration_780
Beat_12
Note_On_52
Note_Velocity_44
Note_Duration_480
Beat_13
Note_On_67
Note_Velocity_52
Note_Duration_660
Beat_14
Note_On_60
Note_Velocity_60
Note_Duration_540
Bar_None
Beat_0
Chord_F:maj
Beat_0
Tempo_103
Beat_0
Note_On_52
Note_Velocity_52
Note_Duration_300
Beat_2
Note_On_77
Note_Velocity_60
Note_Duration_1020
Beat_4
Tempo_98
Beat_4
Note_On_43
Note_Velocity_56
Note_Duration_780
Beat_4
Note_On_70
Note_Velocity_64
Note_Duration_780
Beat_4
Note_On_76
Note_Velocity_64
Note_Duration_780
Beat_6
Note_On_74
Note_Velocity_64
Note_Duration_480
Beat_8
Tempo_100
Beat_8
Note_On_72
Note_Velocity_64
Note_Duration_2160
Beat_10
Note_On_41
Note_Velocity_44
Note_Duration_1980
Beat_12
Tempo_98
Beat_12
Note_On_67
Note_Velocity_56
Note_Duration_360
Beat_12
Note_On_76
Note_Velocity_64
Note_Duration_360
Beat_14
Note_On_57
Note_Velocity_48
Note_Duration_1500
Beat_15
Note_On_67
Note_Velocity_60
Note_Duration_1320
Beat_15
Note_On_76
Note_Velocity_64
Note_Duration_1080
Bar_None
Beat_0
Chord_F:maj
Beat_0
Tempo_101
Beat_0
Note_On_60
Note_Velocity_56
Note_Duration_720
Beat_3
Note_On_64
Note_Velocity_52
Note_Duration_360
Beat_4
Tempo_101
Beat_6
Note_On_60
Note_Velocity_52
Note_Duration_540
Beat_6
Note_On_64
Note_Velocity_48
Note_Duration_540
Beat_8
Chord_A:min
Beat_8
Tempo_101
Beat_8
Note_On_76
Note_Velocity_60
Note_Duration_300
Beat_10
Note_On_40
Note_Velocity_48
Note_Duration_300
Beat_10
Note_On_74
Note_Velocity_64
Note_Duration_780
Beat_10
Note_On_67
Note_Velocity_56
Note_Duration_720
Beat_12
Tempo_103
Beat_12
Note_On_76
Note_Velocity_64
Note_Duration_480
Beat_14
Note_On_55
Note_Velocity_48
Note_Duration_240
Beat_14
Note_On_59
Note_Velocity_48
Note_Duration_240
Bar_None
Beat_0
Tempo_100
Beat_0
Note_On_45
Note_Velocity_48
Note_Duration_1200
Beat_0
Note_On_55
Note_Velocity_48
Note_Duration_1200
Beat_0
Note_On_72
Note_Velocity_60
Note_Duration_960
Beat_0
Note_On_67
Note_Velocity_48
Note_Duration_660
Beat_4
Tempo_100
Beat_4
Note_On_52
Note_Velocity_48
Note_Duration_480
Beat_6
Note_On_60
Note_Velocity_52
Note_Duration_540
Beat_8
Chord_D:min
Beat_8
Tempo_101
Beat_8
Note_On_52
Note_Velocity_44
Note_Duration_240
Beat_8
Note_On_72
Note_Velocity_60
Note_Duration_240
Beat_10
Note_On_38
Note_Velocity_48
Note_Duration_780
Beat_10
Note_On_65
Note_Velocity_52
Note_Duration_720
Beat_12
Tempo_100
Beat_12
Note_On_53
Note_Velocity_44
Note_Duration_540
Beat_14
Note_On_57
Note_Velocity_44
Note_Duration_300
Beat_14
Note_On_76
Note_Velocity_60
Note_Duration_300
Bar_None
Beat_0
Chord_C:maj
Beat_0
Tempo_101
Beat_0
Note_On_43
Note_Velocity_48
Note_Duration_1260
Beat_0
Note_On_65
Note_Velocity_56
Note_Duration_1260
Beat_0
Note_On_74
Note_Velocity_60
Note_Duration_720
Beat_2
Note_On_72
Note_Velocity_68
Note_Duration_240
Beat_4
Tempo_100
Beat_4
Note_On_50
Note_Velocity_36
Note_Duration_720
Beat_4
Note_On_72
Note_Velocity_52
Note_Duration_720
Beat_6
Note_On_59
Note_Velocity_40
Note_Duration_540
Beat_6
Note_On_74
Note_Velocity_56
Note_Duration_240
Beat_8
Tempo_101
Beat_8
Note_On_74
Note_Velocity_60
Note_Duration_1980
Beat_10
Note_On_48
Note_Velocity_40
Note_Duration_1680
Beat_10
Note_On_60
Note_Velocity_40
Note_Duration_60
Beat_12
Tempo_88
Beat_12
Note_On_72
Note_Velocity_52
Note_Duration_1740
Beat_12
Note_On_55
Note_Velocity_32
Note_Duration_1440
