Bar_None
Beat_0
Chord_E:maj
Beat_0
Tempo_125
Beat_0
Note_On_33
Note_Velocity_64
Note_Duration_3840
Beat_3
Note_On_52
Note_Velocity_48
Note_Duration_960
Beat_3
Note_On_64
Note_Velocity_48
Note_Duration_3540
Beat_3
Note_On_59
Note_Velocity_40
Note_Duration_900
Beat_4
Tempo_130
Beat_8
Tempo_127
Beat_8
Note_On_78
Note_Velocity_60
Note_Duration_2880
Beat_10
Note_On_52
Note_Velocity_44
Note_Duration_2640
Beat_10
Note_On_71
Note_Velocity_56
Note_Duration_2760
Beat_10
Note_On_80
Note_Velocity_60
Note_Duration_2820
Beat_12
Tempo_133
Beat_14
Note_On_61
Note_Velocity_44
Note_Duration_960
Bar_None
Beat_0
Chord_A:maj
Beat_0
Tempo_136
Beat_3
Note_On_71
Note_Velocity_48
Note_Duration_2040
Beat_4
Tempo_130
Beat_8
Tempo_130
Beat_8
Note_On_78
Note_Velocity_52
Note_Duration_2280
Beat_10
Note_On_52
Note_Velocity_40
Note_Duration_1200
Beat_10
Note_On_80
Note_Velocity_60
Note_Duration_1920
Beat_12
Tempo_130
Beat_14
Note_On_61
Note_Velocity_40
Note_Duration_960
Bar_None
Beat_0
Chord_C#:min
Beat_0
Tempo_130
Beat_0
Note_On_76
Note_Velocity_64
Note_Duration_240
Beat_2
Note_On_76
Note_Velocity_52
Note_Duration_540
Beat_2
Note_On_45
Note_Velocity_40
Note_Duration_3840
Beat_4
Tempo_133
Beat_4
Note_On_52
Note_Velocity_44
Note_Duration_780
Beat_4
Note_On_75
Note_Velocity_56
Note_Duration_2700
Beat_6
Note_On_59
Note_Velocity_36
Note_Duration_720
Beat_6
Note_On_81
Note_Velocity_60
Note_Duration_1680
Beat_8
Tempo_130
Beat_8
Note_On_80
Note_Velocity_64
Note_Duration_2940
Beat_10
Note_On_61
Note_Velocity_48
Note_Duration_1260
Beat_12
Tempo_136
Beat_12
Note_On_64
Note_Velocity_44
Note_Duration_1200
Bar_None
Beat_0
Chord_C#:min
Beat_0
Tempo_133
Beat_0
Note_On_71
Note_Velocity_52
Note_Duration_1200
Beat_0
Note_On_74
Note_Velocity_60
Note_Duration_1200
Beat_4
Tempo_133
Beat_4
Note_On_76
Note_Velocity_56
Note_Duration_720
Beat_8
Tempo_133
Beat_8
Note_On_59
Note_Velocity_36
Note_Duration_960
Beat_10
Note_On_71
Note_Velocity_44
Note_Duration_720
Beat_10
Note_On_76
Note_Velocity_52
Note_Duration_1740
Beat_12
Tempo_139
Bar_None
Beat_0
Chord_A:maj
Beat_0
Tempo_127
Beat_0
Note_On_52
Note_Velocity_40
Note_Duration_300
Beat_0
Note_On_76
Note_Velocity_48
Note_Duration_300
Beat_2
Note_On_50
Note_Velocity_44
Note_Duration_1020
Beat_2
Note_On_74
Note_Velocity_56
Note_Duration_1020
Beat_2
Note_On_65
Note_Velocity_44
Note_Duration_1020
Beat_4
Tempo_127
Beat_8
Chord_D:min
Beat_8
Tempo_130
Beat_10
Note_On_41
Note_Velocity_40
Note_Duration_960
Beat_10
Note_On_77
Note_Velocity_56
Note_Duration_1440
Beat_12
Tempo_133
Beat_14
Note_On_53
Note_Velocity_44
Note_Duration_960
Beat_14
Note_On_79
Note_Velocity_56
Note_Duration_480
Bar_None
Beat_0
Tempo_136
Beat_0
Note_On_57
Note_Velocity_40
Note_Duration_780
Beat_0
Note_On_74
Note_Velocity_64
Note_Duration_1260
Beat_4
Tempo_130
Beat_4
Note_On_60
Note_Velocity_48
Note_Duration_240
Beat_4
Note_On_84
Note_Velocity_60
Note_Duration_960
Beat_6
Note_On_69
Note_Velocity_48
Note_Duration_1200
Beat_6
Note_On_81
Note_Velocity_60
Note_Duration_1020
Beat_8
Chord_A:min
Beat_8
Tempo_127
Beat_10
Note_On_45
Note_Velocity_44
Note_Duration_780
Beat_12
Tempo_127
Beat_14
Note_On_52
Note_Velocity_52
Note_Duration_240
Beat_14
Note_On_76
Note_Velocity_56
Note_Duration_240
Bar_None
Beat_0
Tempo_130
Beat_0
Note_On_55
Note_Velocity_52
Note_Duration_1320
Beat_0
Note_On_72
Note_Velocity_64
Note_Duration_240
Beat_0
Note_On_79
Note_Velocity_68
Note_Duration_240
Beat_2
Note_On_60
Note_Velocity_40
Note_Duration_1080
Beat_2
Note_On_72
Note_Velocity_64
Note_Duration_240
Beat_2
Note_On_79
Note_Velocity_64
Note_Duration_240
Beat_4
Tempo_130
Beat_4
Note_On_64
Note_Velocity_44
Note_Duration_840
Beat_4
Note_On_72
Note_Velocity_64
Note_Duration_480
Beat_4
Note_On_79
Note_Velocity_68
Note_Duration_240
Beat_6
Note_On_67
Note_Velocity_56
Note_Duration_180
Beat_6
Note_On_79
Note_Velocity_60
Note_Duration_300
Beat_8
Chord_A:min
Beat_8
Tempo_133
Beat_8
Note_On_72
Note_Velocity_68
Note_Duration_120
Beat_8
Note_On_81
Note_Velocity_72
Note_Duration_1200
Beat_10
Note_On_40
Note_Velocity_48
Note_Duration_60
Beat_12
Tempo_133
Beat_12
Note_On_52
Note_Velocity_56
Note_Duration_840
Beat_12
Note_On_72
Note_Velocity_72
Note_Duration_2100
Beat_12
Note_On_79
Note_Velocity_72
Note_Duration_1980
Beat_14
Note_On_60
Note_Velocity_52
Note_Duration_2040
Bar_None
Beat_0
Chord_C:maj
Beat_0
Tempo_133
Beat_0
Note_On_58
Note_Velocity_48
Note_Duration_1440
Beat_0
Note_On_72
Note_Velocity_60
Note_Duration_720
Beat_0
Note_On_77
Note_Velocity_64
Note_Duration_1440
Beat_4
Tempo_136
Beat_4
Note_On_62
Note_Velocity_52
Note_Duration_960
Beat_6
Note_On_72
Note_Velocity_56
Note_Duration_240
Beat_8
Chord_F:maj
Beat_8
Tempo_130
Beat_8
Note_On_72
Note_Velocity_60
Note_Duration_240
Beat_10
Note_On_72
Note_Velocity_60
Note_Duration_960
Beat_12
Tempo_130
Beat_12
Note_On_58
Note_Velocity_52
Note_Duration_780
Beat_12
Note_On_74
Note_Velocity_60
Note_Duration_660
Beat_14
Note_On_77
Note_Velocity_64
Note_Duration_600
Bar_None
Beat_0
Tempo_130
Beat_0
Note_On_55
Note_Velocity_44
Note_Duration_300
Beat_0
Note_On_76
Note_Velocity_56
Note_Duration_360
Beat_2
Note_On_48
Note_Velocity_48
Note_Duration_540
Beat_2
Note_On_74
Note_Velocity_52
Note_Duration_960
Beat_4
Tempo_133
Beat_4
Note_On_77
Note_Velocity_64
Note_Duration_960
Beat_6
Note_On_55
Note_Velocity_48
Note_Duration_720
Beat_6
Note_On_76
Note_Velocity_60
Note_Duration_1020
Beat_8
Chord_F:maj
Beat_8
Tempo_127
Beat_8
Note_On_76
Note_Velocity_64
Note_Duration_540
Beat_10
Note_On_58
Note_Velocity_52
Note_Duration_840
Beat_12
Tempo_127
Beat_12
Note_On_53
Note_Velocity_52
Note_Duration_540
Beat_12
Note_On_77
Note_Velocity_68
Note_Duration_2220
Beat_14
Note_On_76
Note_Velocity_56
Note_Duration_960
Beat_15
Note_On_69
Note_Velocity_52
Note_Duration_1560
Beat_15
Note_On_76
Note_Velocity_52
Note_Duration_1080
Bar_None
Beat_0
Tempo_133
Beat_0
Note_On_60
Note_Velocity_44
Note_Duration_720
Beat_4
Tempo_133
Beat_4
Note_On_57
Note_Velocity_44
Note_Duration_1200
Beat_6
Note_On_52
Note_Velocity_44
Note_Duration_720
Beat_8
Chord_A:min
Beat_8
Tempo_133
Beat_8
Note_On_76
Note_Velocity_52
Note_Duration_300
Beat_10
Note_On_40
Note_Velocity_44
Note_Duration_780
Beat_10
Note_On_67
Note_Velocity_48
Note_Duration_780
Beat_10
Note_On_72
Note_Velocity_60
Note_Duration_780
Beat_10
Note_On_76
Note_Velocity_60
Note_Duration_780
Beat_12
Tempo_133
Beat_12
Note_On_52
Note_Velocity_52
Note_Duration_540
Beat_14
Note_On_59
Note_Velocity_52
Note_Duration_300
Bar_None
Beat_0
Tempo_133
Beat_0
Note_On_45
Note_Velocity_48
Note_Duration_1260
Beat_0
Note_On_60
Note_Velocity_48
Note_Duration_1260
Beat_0
Note_On_69
Note_Velocity_60
Note_Duration_1260
Beat_0
Note_On_72
Note_Velocity_60
Note_Duration_960
Beat_4
Tempo_133
Beat_4
Note_On_52
Note_Velocity_48
Note_Duration_780
Beat_6
Note_On_67
Note_Velocity_52
Note_Duration_480
Beat_8
Chord_D:min
Beat_8
Tempo_133
Beat_8
Note_On_72
Note_Velocity_64
Note_Duration_300
Beat_10
Note_On_38
Note_Velocity_44
Note_Duration_780
Beat_10
Note_On_65
Note_Velocity_52
Note_Duration_780
Beat_10
Note_On_72
Note_Velocity_64
Note_Duration_780
Beat_12
Tempo_130
Beat_12
Note_On_53
Note_Velocity_48
Note_Duration_540
Beat_14
Note_On_76
Note_Velocity_60
Note_Duration_300
Bar_None
Beat_0
Chord_A:min
Beat_0
Tempo_130
Beat_0
Note_On_45
Note_Velocity_52
Note_Duration_1200
Beat_0
Note_On_72
Note_Velocity_60
Note_Duration_480
Beat_0
Note_On_67
Note_Velocity_52
Note_Duration_1200
Beat_2
Note_On_53
Note_Velocity_48
Note_Duration_960
Beat_4
Tempo_127
Beat_4
Note_On_72
Note_Velocity_60
Note_Duration_720
Beat_6
Note_On_59
Note_Velocity_48
Note_Duration_780
Beat_8
Tempo_125
Beat_8
Note_On_74
Note_Velocity_64
Note_Duration_540
Beat_10
Note_On_45
Note_Velocity_48
Note_Duration_1020
Beat_10
Note_On_67
Note_Velocity_48
Note_Duration_1020
Beat_10
Note_On_72
Note_Velocity_64
Note_Duration_780
Beat_12
Tempo_127
Beat_12
Note_On_53
Note_Velocity_48
Note_Duration_540
Beat_13
Note_On_64
Note_Velocity_44
Note_Duration_480
Beat_14
Note_On_59
Note_Velocity_48
Note_Duration_240
Bar_None
Beat_0
Chord_F:maj
Beat_0
Tempo_127
Beat_0
Note_On_41
Note_Velocity_44
Note_Duration_780
Beat_2
Note_On_67
Note_Velocity_52
Note_Duration_1020
Beat_4
Tempo_133
Beat_4
Note_On_72
Note_Velocity_64
Note_Duration_300
Beat_4
Note_On_48
Note_Velocity_56
Note_Duration_780
Beat_6
Note_On_58
Note_Velocity_52
Note_Duration_780
Beat_8
Tempo_127
Beat_8
Note_On_74
Note_Velocity_64
Note_Duration_480
Beat_10
Note_On_72
Note_Velocity_60
Note_Duration_360
Beat_12
Tempo_127
Beat_12
Note_On_74
Note_Velocity_60
Note_Duration_360
Beat_14
Note_On_76
Note_Velocity_56
Note_Duration_1320
Beat_15
Note_On_69
Note_Velocity_52
Note_Duration_1560
Beat_15
Note_On_77
Note_Velocity_56
Note_Duration_1080
Bar_None
Beat_0
Chord_A:min
Beat_0
Tempo_133
Beat_0
Note_On_60
Note_Velocity_48
Note_Duration_720
Beat_3
Note_On_74
Note_Velocity_64
Note_Duration_540
Beat_4
Tempo_133
Beat_6
Note_On_60
Note_Velocity_52
Note_Duration_540
Beat_6
Note_On_64
Note_Velocity_56
Note_Duration_360
Beat_8
Chord_A:min
Beat_8
Tempo_133
Beat_8
Note_On_64
Note_Velocity_56
Note_Duration_300
Beat_8
Note_On_76
Note_Velocity_60
Note_Duration_300
Beat_10
Note_On_40
Note_Velocity_56
Note_Duration_780
Beat_10
Note_On_67
Note_Velocity_52
Note_Duration_720
Beat_10
Note_On_79
Note_Velocity_64
Note_Duration_720
Beat_12
Tempo_130
Beat_12
Note_On_52
Note_Velocity_52
Note_Duration_540
Beat_14
Note_On_56
Note_Velocity_52
Note_Duration_240
Beat_14
Note_On_76
Note_Velocity_60
Note_Duration_240
Bar_None
Beat_0
Tempo_133
Beat_0
Note_On_45
Note_Velocity_48
Note_Duration_1200
Beat_0
Note_On_64
Note_Velocity_52
Note_Duration_1200
Beat_0
Note_On_67
Note_Velocity_48
Note_Duration_1200
Beat_0
Note_On_76
Note_Velocity_60
Note_Duration_960
Beat_4
Tempo_133
Beat_4
Note_On_52
Note_Velocity_48
Note_Duration_780
Beat_6
Note_On_55
Note_Velocity_44
Note_Duration_240
Beat_8
Chord_D:min
Beat_8
Tempo_133
Beat_8
Note_On_57
Note_Velocity_48
Note_Duration_240
Beat_8
Note_On_72
Note_Velocity_60
Note_Duration_720
Beat_10
Note_On_41
Note_Velocity_40
Note_Duration_480
Beat_10
Note_On_67
Note_Velocity_48
Note_Duration_660
Beat_12
Tempo_133
Beat_12
Note_On_53
Note_Velocity_44
Note_Duration_540
Beat_14
Note_On_45
Note_Velocity_52
Note_Duration_300
Beat_14
Note_On_72
Note_Velocity_60
Note_Duration_240
Bar_None
Beat_0
Chord_D:min
Beat_0
Tempo_136
Beat_0
Note_On_43
Note_Velocity_56
Note_Duration_1260
Beat_0
Note_On_65
Note_Velocity_60
Note_Duration_720
Beat_0
Note_On_72
Note_Velocity_68
Note_Duration_480
Beat_2
Note_On_50
Note_Velocity_48
Note_Duration_1020
Beat_4
Tempo_127
Beat_4
Note_On_72
Note_Velocity_72
Note_Duration_720
Beat_4
Note_On_55
Note_Velocity_52
Note_Duration_720
Beat_6
Note_On_60
Note_Velocity_52
Note_Duration_540
Beat_6
Note_On_65
Note_Velocity_56
Note_Duration_720
Beat_8
Tempo_133
Beat_8
Note_On_74
Note_Velocity_56
Note_Duration_240
Beat_10
Note_On_41
Note_Velocity_40
Note_Duration_120
Beat_10
Note_On_72
Note_Velocity_56
Note_Duration_780
Beat_12
Tempo_130
Beat_12
Note_On_50
Note_Velocity_36
Note_Duration_1740
Beat_12
Note_On_74
Note_Velocity_60
Note_Duration_1680
Beat_14
Note_On_53
Note_Velocity_40
Note_Duration_1440
