Bar_None
Beat_0
Chord_A:min
Beat_3
Note_On_52
Note_Velocity_32
Note_Duration_840
Beat_3
Note_On_79
Note_Velocity_48
Note_Duration_300
Beat_3
Note_On_67
Note_Velocity_36
Note_Duration_2820
Beat_5
Note_On_76
Note_Velocity_44
Note_Duration_180
Beat_8
Chord_A:maj
Beat_10
Note_On_56
Note_Velocity_40
Note_Duration_2820
Beat_10
Note_On_76
Note_Velocity_40
Note_Duration_60
Beat_10
Note_On_61
Note_Velocity_32
Note_Duration_960
Beat_10
Note_On_71
Note_Velocity_40
Note_Duration_3660
Beat_10
Note_On_59
Note_Velocity_36
Note_Duration_960
Beat_14
Note_On_57
Note_Velocity_36
Note_Duration_360
Bar_None
Beat_3
Note_On_71
Note_Velocity_48
Note_Duration_240
Beat_4
Note_On_69
Note_Velocity_40
Note_Duration_120
Beat_6
Note_On_72
Note_Velocity_52
Note_Duration_360
Beat_8
Chord_A:dom
Beat_9
Note_On_52
Note_Velocity_36
Note_Duration_1200
Beat_10
Note_On_62
Note_Velocity_44
Note_Duration_2040
Beat_10
Note_On_69
Note_Velocity_24
Note_Duration_1260
Beat_10
Note_On_61
Note_Velocity_24
Note_Duration_960
Bar_None
Beat_0
Chord_D:maj
Beat_0
Note_On_73
Note_Velocity_36
Note_Duration_240
Beat_2
Note_On_74
Note_Velocity_44
Note_Duration_300
Beat_2
Note_On_62
Note_Velocity_28
Note_Duration_540
Beat_4
Note_On_76
Note_Velocity_40
Note_Duration_360
Beat_4
Note_On_61
Note_Velocity_36
Note_Duration_540
Beat_6
Note_On_78
Note_Velocity_56
Note_Duration_720
Beat_6
Note_On_62
Note_Velocity_28
Note_Duration_540
Beat_8
Note_On_76
Note_Velocity_52
Note_Duration_300
Beat_10
Note_On_73
Note_Velocity_44
Note_Duration_240
Beat_12
Note_On_74
Note_Velocity_56
Note_Duration_840
Beat_12
Note_On_57
Note_Velocity_36
Note_Duration_1920
Bar_None
Beat_0
Chord_A:min
Beat_4
Note_On_71
Note_Velocity_52
Note_Duration_960
Beat_8
Note_On_71
Note_Velocity_56
Note_Duration_1140
Beat_10
Note_On_60
Note_Velocity_36
Note_Duration_1680
Beat_10
Note_On_57
Note_Velocity_28
Note_Duration_720
Bar_None
Beat_0
Chord_F:maj
Beat_2
Note_On_48
Note_Velocity_28
Note_Duration_300
Beat_2
Note_On_53
Note_Velocity_32
Note_Duration_300
Beat_2
Note_On_65
Note_Velocity_40
Note_Duration_1020
Beat_2
Note_On_69
Note_Velocity_40
Note_Duration_960
Beat_2
Note_On_60
Note_Velocity_24
Note_Duration_960
Beat_8
Chord_F:maj
Beat_10
Note_On_53
Note_Velocity_32
Note_Duration_120
Beat_10
Note_On_50
Note_Velocity_36
Note_Duration_60
Beat_14
Note_On_45
Note_Velocity_44
Note_Duration_1920
Beat_14
Note_On_77
Note_Velocity_48
Note_Duration_1440
Bar_None
Beat_0
Note_On_57
Note_Velocity_48
Note_Duration_780
Beat_4
Note_On_67
Note_Velocity_44
Note_Duration_960
Beat_4
Note_On_72
Note_Velocity_40
Note_Duration_240
Beat_6
Note_On_74
Note_Velocity_40
Note_Duration_1260
Beat_6
Note_On_58
Note_Velocity_36
Note_Duration_420
Beat_8
Chord_F:maj
Beat_10
Note_On_69
Note_Velocity_52
Note_Duration_780
Beat_14
Note_On_72
Note_Velocity_60
Note_Duration_240
Bar_None
Beat_0
Note_On_69
Note_Velocity_52
Note_Duration_1080
Beat_0
Note_On_60
Note_Velocity_28
Note_Duration_300
Beat_2
Note_On_55
Note_Velocity_36
Note_Duration_360
Beat_2
Note_On_64
Note_Velocity_40
Note_Duration_300
Beat_2
Note_On_60
Note_Velocity_24
Note_Duration_360
Beat_4
Note_On_69
Note_Velocity_44
Note_Duration_240
Beat_4
Note_On_67
Note_Velocity_48
Note_Duration_840
Beat_6
Note_On_72
Note_Velocity_68
Note_Duration_240
Beat_6
Note_On_60
Note_Velocity_40
Note_Duration_120
Beat_8
Chord_A:min
Beat_8
Note_On_74
Note_Velocity_56
Note_Duration_180
Beat_10
Note_On_72
Note_Velocity_52
Note_Duration_180
Beat_12
Note_On_81
Note_Velocity_60
Note_Duration_240
Beat_12
Note_On_55
Note_Velocity_40
Note_Duration_2100
Beat_14
Note_On_79
Note_Velocity_64
Note_Duration_60
Bar_None
Beat_0
Chord_G:min
Beat_0
Note_On_74
Note_Velocity_48
Note_Duration_1440
Beat_0
Note_On_62
Note_Velocity_28
Note_Duration_720
Beat_4
Note_On_65
Note_Velocity_36
Note_Duration_1500
Beat_6
Note_On_58
Note_Velocity_36
Note_Duration_600
Beat_8
Chord_G:dim
Beat_8
Note_On_73
Note_Velocity_52
Note_Duration_240
Beat_10
Note_On_58
Note_Velocity_56
Note_Duration_240
Beat_10
Note_On_74
Note_Velocity_60
Note_Duration_240
Beat_12
Note_On_72
Note_Velocity_56
Note_Duration_960
Beat_14
Note_On_57
Note_Velocity_48
Note_Duration_900
Bar_None
Beat_0
Note_On_58
Note_Velocity_52
Note_Duration_540
Beat_0
Note_On_64
Note_Velocity_44
Note_Duration_300
Beat_2
Note_On_69
Note_Velocity_48
Note_Duration_300
Beat_2
Note_On_76
Note_Velocity_64
Note_Duration_360
Beat_4
Note_On_77
Note_Velocity_68
Note_Duration_360
Beat_6
Note_On_55
Note_Velocity_48
Note_Duration_840
Beat_8
Chord_F:maj
Beat_10
Note_On_72
Note_Velocity_52
Note_Duration_300
Beat_12
Note_On_57
Note_Velocity_48
Note_Duration_600
Beat_14
Note_On_76
Note_Velocity_56
Note_Duration_720
Beat_15
Note_On_58
Note_Velocity_52
Note_Duration_1080
Beat_15
Note_On_60
Note_Velocity_40
Note_Duration_960
Bar_None
Beat_0
Note_On_69
Note_Velocity_44
Note_Duration_480
Beat_4
Note_On_65
Note_Velocity_44
Note_Duration_720
Beat_6
Note_On_62
Note_Velocity_52
Note_Duration_780
Beat_8
Chord_A:min
Beat_8
Note_On_52
Note_Velocity_44
Note_Duration_300
Beat_10
Note_On_72
Note_Velocity_60
Note_Duration_60
Beat_10
Note_On_57
Note_Velocity_44
Note_Duration_60
Beat_10
Note_On_74
Note_Velocity_64
Note_Duration_1200
Beat_12
Note_On_76
Note_Velocity_60
Note_Duration_600
Bar_None
Beat_0
Note_On_60
Note_Velocity_48
Note_Duration_1260
Beat_0
Note_On_52
Note_Velocity_36
Note_Duration_780
Beat_4
Note_On_72
Note_Velocity_44
Note_Duration_300
Beat_6
Note_On_65
Note_Velocity_48
Note_Duration_960
Beat_8
Chord_D:min
Beat_10
Note_On_52
Note_Velocity_24
Note_Duration_540
Beat_10
Note_On_55
Note_Velocity_40
Note_Duration_660
Beat_10
Note_On_72
Note_Velocity_52
Note_Duration_180
Beat_14
Note_On_72
Note_Velocity_60
Note_Duration_300
Bar_None
Beat_0
Chord_A:min
Beat_0
Note_On_74
Note_Velocity_60
Note_Duration_480
Beat_0
Note_On_43
Note_Velocity_48
Note_Duration_540
Beat_2
Note_On_72
Note_Velocity_52
Note_Duration_240
Beat_4
Note_On_74
Note_Velocity_64
Note_Duration_780
Beat_4
Note_On_43
Note_Velocity_44
Note_Duration_1200
Beat_7
Note_On_53
Note_Velocity_36
Note_Duration_1020
Beat_8
Note_On_59
Note_Velocity_52
Note_Duration_480
Beat_10
Note_On_62
Note_Velocity_52
Note_Duration_540
Beat_10
Note_On_67
Note_Velocity_52
Note_Duration_180
Beat_10
Note_On_72
Note_Velocity_48
Note_Duration_540
Beat_12
Note_On_52
Note_Velocity_48
Note_Duration_60
Beat_13
Note_On_71
Note_Velocity_56
Note_Duration_780
Beat_14
Note_On_67
Note_Velocity_48
Note_Duration_660
Bar_None
Beat_0
Chord_C:dom
Beat_2
Note_On_74
Note_Velocity_64
Note_Duration_360
Beat_4
Note_On_72
Note_Velocity_60
Note_Duration_300
Beat_4
Note_On_40
Note_Velocity_44
Note_Duration_180
Beat_8
Note_On_73
Note_Velocity_56
Note_Duration_300
Beat_10
Note_On_48
Note_Velocity_36
Note_Duration_1320
Beat_12
Note_On_70
Note_Velocity_52
Note_Duration_660
Beat_14
Note_On_64
Note_Velocity_52
Note_Duration_1080
Beat_15
Note_On_67
Note_Velocity_48
Note_Duration_780
Beat_15
Note_On_58
Note_Velocity_40
Note_Duration_840
Bar_None
Beat_0
Chord_C:dom
Beat_3
Note_On_64
Note_Velocity_52
Note_Duration_540
Beat_6
Note_On_60
Note_Velocity_48
Note_Duration_720
Beat_8
Chord_A:min
Beat_10
Note_On_57
Note_Velocity_56
Note_Duration_720
Beat_10
Note_On_62
Note_Velocity_48
Note_Duration_360
Beat_10
Note_On_65
Note_Velocity_52
Note_Duration_300
Beat_14
Note_On_72
Note_Velocity_56
Note_Duration_300
Bar_None
Beat_0
Note_On_52
Note_Velocity_48
Note_Duration_1200
Beat_0
Note_On_67
Note_Velocity_44
Note_Duration_660
Beat_0
Note_On_55
Note_Velocity_48
Note_Duration_660
Beat_4
Note_On_72
Note_Velocity_52
Note_Duration_240
Beat_6
Note_On_60
Note_Velocity_36
Note_Duration_1200
Beat_8
Chord_D:min
Beat_8
Note_On_52
Note_Velocity_24
Note_Duration_660
Beat_10
Note_On_72
Note_Velocity_48
Note_Duration_300
Beat_14
Note_On_41
Note_Velocity_24
Note_Duration_540
Beat_14
Note_On_69
Note_Velocity_52
Note_Duration_240
Bar_None
Beat_0
Chord_C:maj
Beat_0
Note_On_77
Note_Velocity_68
Note_Duration_1260
Beat_2
Note_On_62
Note_Velocity_40
Note_Duration_720
Beat_4
Note_On_74
Note_Velocity_56
Note_Duration_300
Beat_4
Note_On_43
Note_Velocity_32
Note_Duration_1920
Beat_6
Note_On_72
Note_Velocity_48
Note_Duration_240
Beat_6
Note_On_67
Note_Velocity_36
Note_Duration_240
Beat_8
Note_On_55
Note_Velocity_20
Note_Duration_60
Beat_9
Note_On_71
Note_Velocity_48
Note_Duration_240
Beat_10
Note_On_60
Note_Velocity_36
Note_Duration_240
Beat_12
Note_On_72
Note_Velocity_52
Note_Duration_1860
Beat_12
Note_On_60
Note_Velocity_24
Note_Duration_1680
Beat_12
Note_On_67
Note_Velocity_24
Note_Duration_1500
