Bar_None
Beat_0
Chord_G:maj
Beat_0
Tempo_100
Beat_0
Note_On_44
Note_Velocity_56
Note_Duration_480
Beat_2
Note_On_51
Note_Velocity_44
Note_Duration_420
Beat_2
Note_On_66
Note_Velocity_56
Note_Duration_540
Beat_2
Note_On_72
Note_Velocity_60
Note_Duration_480
Beat_4
Tempo_98
Beat_4
Note_On_44
Note_Velocity_44
Note_Duration_300
Beat_5
Note_On_66
Note_Velocity_56
Note_Duration_1260
Beat_6
Note_On_45
Note_Velocity_48
Note_Duration_480
Beat_8
Tempo_105
Beat_8
Note_On_54
Note_Velocity_60
Note_Duration_480
Beat_9
Note_On_59
Note_Velocity_64
Note_Duration_1080
Beat_12
Tempo_96
Beat_12
Note_On_54
Note_Velocity_52
Note_Duration_480
Beat_15
Note_On_64
Note_Velocity_64
Note_Duration_420
Bar_None
Beat_0
Chord_D:maj
Beat_0
Tempo_105
Beat_2
Note_On_47
Note_Velocity_56
Note_Duration_1560
Beat_4
Tempo_107
Beat_6
Note_On_54
Note_Velocity_52
Note_Duration_540
Beat_6
Note_On_69
Note_Velocity_64
Note_Duration_300
Beat_6
Note_On_66
Note_Velocity_56
Note_Duration_960
Beat_8
Tempo_101
Beat_8
Note_On_59
Note_Velocity_68
Note_Duration_1020
Beat_10
Note_On_68
Note_Velocity_56
Note_Duration_480
Beat_12
Tempo_100
Beat_12
Note_On_69
Note_Velocity_68
Note_Duration_240
Beat_14
Note_On_68
Note_Velocity_64
Note_Duration_300
Bar_None
Beat_0
Chord_B:min
Beat_0
Tempo_103
Beat_0
Note_On_73
Note_Velocity_60
Note_Duration_240
Beat_2
Note_On_71
Note_Velocity_64
Note_Duration_300
Beat_4
Tempo_103
Beat_4
Note_On_47
Note_Velocity_56
Note_Duration_480
Beat_6
Note_On_71
Note_Velocity_60
Note_Duration_300
Beat_8
Chord_A:maj
Beat_8
Tempo_98
Beat_8
Note_On_52
Note_Velocity_64
Note_Duration_1020
Beat_9
Note_On_68
Note_Velocity_68
Note_Duration_360
Beat_10
Note_On_71
Note_Velocity_64
Note_Duration_420
Beat_12
Tempo_100
Beat_12
Note_On_73
Note_Velocity_76
Note_Duration_540
Beat_14
Note_On_71
Note_Velocity_72
Note_Duration_720
Bar_None
Beat_0
Chord_B:min
Beat_0
Tempo_100
Beat_0
Note_On_42
Note_Velocity_64
Note_Duration_420
Beat_2
Note_On_61
Note_Velocity_60
Note_Duration_240
Beat_3
Note_On_64
Note_Velocity_72
Note_Duration_420
Beat_4
Tempo_98
Beat_4
Note_On_54
Note_Velocity_64
Note_Duration_540
Beat_6
Note_On_68
Note_Velocity_72
Note_Duration_300
Beat_8
Chord_F#:min
Beat_8
Tempo_93
Beat_8
Note_On_45
Note_Velocity_72
Note_Duration_300
Beat_9
Note_On_66
Note_Velocity_76
Note_Duration_300
Beat_10
Note_On_57
Note_Velocity_76
Note_Duration_180
Beat_12
Tempo_95
Beat_12
Note_On_66
Note_Velocity_76
Note_Duration_540
Beat_14
Note_On_69
Note_Velocity_72
Note_Duration_540
Beat_15
Note_On_73
Note_Velocity_76
Note_Duration_240
Bar_None
Beat_0
Tempo_98
Beat_0
Note_On_61
Note_Velocity_72
Note_Duration_420
Beat_2
Note_On_49
Note_Velocity_68
Note_Duration_360
Beat_4
Tempo_107
Beat_4
Note_On_56
Note_Velocity_68
Note_Duration_600
Beat_6
Note_On_65
Note_Velocity_72
Note_Duration_240
Beat_8
Chord_B:dim
Beat_8
Tempo_101
Beat_8
Note_On_41
Note_Velocity_68
Note_Duration_240
Beat_9
Note_On_62
Note_Velocity_72
Note_Duration_300
Beat_11
Note_On_68
Note_Velocity_80
Note_Duration_300
Beat_12
Tempo_101
Beat_14
Note_On_73
Note_Velocity_80
Note_Duration_480
Beat_14
Note_On_69
Note_Velocity_72
Note_Duration_420
Bar_None
Beat_0
Tempo_122
Beat_2
Note_On_69
Note_Velocity_72
Note_Duration_420
Beat_4
Tempo_107
Beat_4
Note_On_73
Note_Velocity_72
Note_Duration_240
Beat_6
Note_On_73
Note_Velocity_60
Note_Duration_1260
Beat_8
Chord_A:maj
Beat_8
Tempo_98
Beat_8
Note_On_73
Note_Velocity_60
Note_Duration_1200
Beat_12
Tempo_101
Beat_12
Note_On_71
Note_Velocity_44
Note_Duration_540
Bar_None
Beat_0
Tempo_98
Beat_0
Note_On_76
Note_Velocity_52
Note_Duration_540
Beat_3
Note_On_73
Note_Velocity_56
Note_Duration_660
Beat_4
Tempo_103
Beat_4
Note_On_74
Note_Velocity_72
Note_Duration_540
Beat_6
Note_On_73
Note_Velocity_68
Note_Duration_660
Beat_8
Chord_A:maj
Beat_8
Tempo_105
Beat_8
Note_On_54
Note_Velocity_60
Note_Duration_240
Beat_8
Note_On_74
Note_Velocity_72
Note_Duration_540
Beat_8
Note_On_71
Note_Velocity_60
Note_Duration_1020
Beat_12
Tempo_103
Beat_12
Note_On_76
Note_Velocity_72
Note_Duration_240
Beat_13
Note_On_73
Note_Velocity_72
Note_Duration_240
Beat_15
Note_On_69
Note_Velocity_72
Note_Duration_720
Bar_None
Beat_0
Tempo_103
Beat_1
Note_On_71
Note_Velocity_76
Note_Duration_420
Beat_2
Note_On_76
Note_Velocity_68
Note_Duration_300
Beat_4
Tempo_100
Beat_4
Note_On_68
Note_Velocity_72
Note_Duration_660
Beat_4
Note_On_62
Note_Velocity_56
Note_Duration_1020
Beat_6
Note_On_73
Note_Velocity_56
Note_Duration_240
Beat_8
Chord_F#:min
Beat_8
Tempo_107
Beat_8
Note_On_59
Note_Velocity_48
Note_Duration_480
Beat_8
Note_On_73
Note_Velocity_60
Note_Duration_480
Beat_10
Note_On_68
Note_Velocity_64
Note_Duration_360
Beat_12
Tempo_109
Beat_12
Note_On_76
Note_Velocity_72
Note_Duration_1020
Beat_12
Note_On_59
Note_Velocity_44
Note_Duration_1020
Bar_None
Beat_0
Tempo_101
Beat_0
Note_On_61
Note_Velocity_48
Note_Duration_600
Beat_0
Note_On_52
Note_Velocity_52
Note_Duration_240
Beat_0
Note_On_57
Note_Velocity_48
Note_Duration_240
Beat_4
Tempo_100
Beat_4
Note_On_52
Note_Velocity_60
Note_Duration_540
Beat_5
Note_On_61
Note_Velocity_52
Note_Duration_300
Beat_7
Note_On_62
Note_Velocity_48
Note_Duration_240
Beat_8
Chord_D:maj
Beat_8
Tempo_101
Beat_8
Note_On_45
Note_Velocity_56
Note_Duration_1020
Beat_8
Note_On_69
Note_Velocity_60
Note_Duration_900
Beat_10
Note_On_73
Note_Velocity_64
Note_Duration_480
Beat_12
Tempo_101
Beat_12
Note_On_74
Note_Velocity_68
Note_Duration_540
Beat_14
Note_On_73
Note_Velocity_64
Note_Duration_540
Beat_14
Note_On_80
Note_Velocity_76
Note_Duration_720
Bar_None
Beat_0
Chord_F#:min
Beat_0
Tempo_100
Beat_0
Note_On_47
Note_Velocity_56
Note_Duration_480
Beat_0
Note_On_54
Note_Velocity_48
Note_Duration_240
Beat_0
Note_On_71
Note_Velocity_52
Note_Duration_540
Beat_3
Note_On_66
Note_Velocity_52
Note_Duration_960
Beat_4
Tempo_105
Beat_6
Note_On_52
Note_Velocity_56
Note_Duration_960
Beat_8
Tempo_95
Beat_9
Note_On_71
Note_Velocity_68
Note_Duration_480
Beat_10
Note_On_57
Note_Velocity_60
Note_Duration_780
Beat_12
Tempo_98
Beat_12
Note_On_73
Note_Velocity_60
Note_Duration_540
Beat_14
Note_On_76
Note_Velocity_56
Note_Duration_540
Beat_14
Note_On_50
Note_Velocity_40
Note_Duration_480
Bar_None
Beat_0
Chord_B:min
Beat_0
Tempo_103
Beat_0
Note_On_69
Note_Velocity_60
Note_Duration_120
Beat_0
Note_On_74
Note_Velocity_68
Note_Duration_420
Beat_0
Note_On_78
Note_Velocity_64
Note_Duration_1920
Beat_2
Note_On_54
Note_Velocity_48
Note_Duration_840
Beat_4
Tempo_100
Beat_4
Note_On_59
Note_Velocity_56
Note_Duration_1020
Beat_6
Note_On_66
Note_Velocity_60
Note_Duration_840
Beat_8
Tempo_100
Beat_8
Note_On_78
Note_Velocity_68
Note_Duration_480
Beat_9
Note_On_71
Note_Velocity_56
Note_Duration_360
Beat_11
Note_On_81
Note_Velocity_72
Note_Duration_300
Beat_12
Tempo_96
Beat_12
Note_On_54
Note_Velocity_52
Note_Duration_480
Beat_12
Note_On_71
Note_Velocity_52
Note_Duration_240
Beat_12
Note_On_78
Note_Velocity_72
Note_Duration_240
Beat_14
Note_On_59
Note_Velocity_48
Note_Duration_480
Beat_14
Note_On_71
Note_Velocity_40
Note_Duration_600
Beat_14
Note_On_78
Note_Velocity_64
Note_Duration_480
Bar_None
Beat_0
Chord_D:maj
Beat_0
Tempo_103
Beat_0
Note_On_54
Note_Velocity_60
Note_Duration_480
Beat_0
Note_On_81
Note_Velocity_60
Note_Duration_960
Beat_2
Note_On_76
Note_Velocity_60
Note_Duration_300
Beat_2
Note_On_61
Note_Velocity_40
Note_Duration_540
Beat_4
Tempo_98
Beat_4
Note_On_78
Note_Velocity_64
Note_Duration_540
Beat_6
Note_On_76
Note_Velocity_64
Note_Duration_300
Beat_6
Note_On_54
Note_Velocity_40
Note_Duration_240
Beat_8
Tempo_98
Beat_8
Note_On_76
Note_Velocity_56
Note_Duration_120
Beat_10
Note_On_73
Note_Velocity_60
Note_Duration_540
Beat_12
Tempo_93
Beat_14
Note_On_71
Note_Velocity_56
Note_Duration_300
Bar_None
Beat_0
Chord_G:maj
Beat_0
Tempo_100
Beat_0
Note_On_76
Note_Velocity_56
Note_Duration_600
Beat_2
Note_On_74
Note_Velocity_64
Note_Duration_900
Beat_4
Tempo_95
Beat_5
Note_On_78
Note_Velocity_64
Note_Duration_900
Beat_6
Note_On_54
Note_Velocity_44
Note_Duration_780
Beat_6
Note_On_69
Note_Velocity_60
Note_Duration_540
Beat_8
Tempo_90
Beat_8
Note_On_62
Note_Velocity_52
Note_Duration_540
Beat_10
Note_On_74
Note_Velocity_60
Note_Duration_240
Beat_12
Tempo_100
Beat_12
Note_On_78
Note_Velocity_76
Note_Duration_600
Beat_12
Note_On_47
Note_Velocity_60
Note_Duration_480
Beat_13
Note_On_76
Note_Velocity_56
Note_Duration_480
Beat_13
Note_On_74
Note_Velocity_72
Note_Duration_420
Beat_15
Note_On_59
Note_Velocity_56
Note_Duration_300
Bar_None
Beat_0
Chord_B:min
Beat_0
Tempo_98
Beat_0
Note_On_54
Note_Velocity_56
Note_Duration_300
Beat_0
Note_On_81
Note_Velocity_64
Note_Duration_3840
Beat_2
Note_On_50
Note_Velocity_52
Note_Duration_480
Beat_3
Note_On_74
Note_Velocity_68
Note_Duration_480
Beat_4
Tempo_98
Beat_5
Note_On_54
Note_Velocity_52
Note_Duration_780
Beat_6
Note_On_73
Note_Velocity_72
Note_Duration_1740
Beat_7
Note_On_62
Note_Velocity_44
Note_Duration_1620
Beat_8
Tempo_100
Beat_10
Note_On_54
Note_Velocity_52
Note_Duration_720
Beat_12
Tempo_100
Beat_12
Note_On_74
Note_Velocity_60
Note_Duration_540
Beat_14
Note_On_54
Note_Velocity_52
Note_Duration_300
Beat_15
Note_On_73
Note_Velocity_56
Note_Duration_540
Bar_None
Beat_0
Chord_B:min
Beat_0
Tempo_105
Beat_0
Note_On_47
Note_Velocity_56
Note_Duration_1440
Beat_4
Tempo_103
Beat_8
Chord_B:min
Beat_8
Tempo_101
Beat_8
Note_On_62
Note_Velocity_44
Note_Duration_1020
Beat_8
Note_On_74
Note_Velocity_56
Note_Duration_420
Beat_9
Note_On_71
Note_Velocity_60
Note_Duration_420
Beat_12
Tempo_96
Beat_12
Note_On_76
Note_Velocity_64
Note_Duration_240
Beat_14
Note_On_78
Note_Velocity_68
Note_Duration_780
Bar_None
Beat_0
Chord_D:dom
Beat_0
Tempo_101
Beat_0
Note_On_62
Note_Velocity_40
Note_Duration_2040
Beat_0
Note_On_81
Note_Velocity_64
Note_Duration_720
Beat_2
Note_On_74
Note_Velocity_56
Note_Duration_300
Beat_2
Note_On_78
Note_Velocity_64
Note_Duration_1680
Beat_4
Tempo_107
Beat_4
Note_On_74
Note_Velocity_60
Note_Duration_1500
Beat_6
Note_On_73
Note_Velocity_56
Note_Duration_660
Beat_8
Tempo_107
Beat_10
Note_On_76
Note_Velocity_44
Note_Duration_480
Beat_12
Tempo_107
