Bar_None
Beat_0
Chord_B:min
Beat_2
Note_On_45
Note_Velocity_40
Note_Duration_300
Beat_2
Note_On_66
Note_Velocity_56
Note_Duration_480
Beat_2
Note_On_62
Note_Velocity_44
Note_Duration_540
Beat_3
Note_On_54
Note_Velocity_44
Note_Duration_420
Beat_4
Note_On_47
Note_Velocity_44
Note_Duration_120
Beat_5
Note_On_45
Note_Velocity_60
Note_Duration_120
Beat_6
Note_On_44
Note_Velocity_56
Note_Duration_180
Beat_7
Note_On_45
Note_Velocity_64
Note_Duration_480
Beat_8
Chord_F#:dim
Beat_9
Note_On_66
Note_Velocity_72
Note_Duration_1260
Beat_9
Note_On_54
Note_Velocity_44
Note_Duration_1080
Beat_9
Note_On_61
Note_Velocity_48
Note_Duration_480
Beat_11
Note_On_44
Note_Velocity_60
Note_Duration_360
Beat_13
Note_On_47
Note_Velocity_68
Note_Duration_420
Beat_15
Note_On_63
Note_Velocity_60
Note_Duration_540
Beat_15
Note_On_60
Note_Velocity_48
Note_Duration_480
Beat_15
Note_On_45
Note_Velocity_48
Note_Duration_480
Bar_None
Beat_2
Note_On_44
Note_Velocity_56
Note_Duration_1560
Beat_5
Note_On_54
Note_Velocity_52
Note_Duration_300
Beat_6
Note_On_68
Note_Velocity_68
Note_Duration_300
Beat_6
Note_On_63
Note_Velocity_56
Note_Duration_300
Beat_6
Note_On_60
Note_Velocity_52
Note_Duration_300
Beat_8
Chord_G#:maj
Beat_8
Note_On_69
Note_Velocity_64
Note_Duration_180
Beat_10
Note_On_68
Note_Velocity_68
Note_Duration_180
Beat_11
Note_On_67
Note_Velocity_68
Note_Duration_240
Beat_12
Note_On_68
Note_Velocity_80
Note_Duration_480
Beat_14
Note_On_37
Note_Velocity_36
Note_Duration_540
Beat_15
Note_On_74
Note_Velocity_72
Note_Duration_600
Bar_None
Beat_0
Chord_B:dim
Beat_1
Note_On_67
Note_Velocity_56
Note_Duration_300
Beat_2
Note_On_44
Note_Velocity_36
Note_Duration_120
Beat_3
Note_On_69
Note_Velocity_60
Note_Duration_360
Beat_4
Note_On_68
Note_Velocity_64
Note_Duration_240
Beat_5
Note_On_53
Note_Velocity_40
Note_Duration_300
Beat_6
Note_On_73
Note_Velocity_76
Note_Duration_300
Beat_7
Note_On_47
Note_Velocity_4
Note_Duration_60
Beat_8
Chord_D:dim
Beat_8
Note_On_68
Note_Velocity_72
Note_Duration_240
Beat_9
Note_On_53
Note_Velocity_60
Note_Duration_300
Beat_9
Note_On_72
Note_Velocity_76
Note_Duration_180
Beat_10
Note_On_68
Note_Velocity_68
Note_Duration_180
Beat_11
Note_On_65
Note_Velocity_56
Note_Duration_60
Beat_12
Note_On_62
Note_Velocity_68
Note_Duration_420
Beat_13
Note_On_37
Note_Velocity_64
Note_Duration_540
Beat_14
Note_On_71
Note_Velocity_76
Note_Duration_480
Bar_None
Beat_0
Chord_F#:min
Beat_0
Note_On_62
Note_Velocity_72
Note_Duration_420
Beat_1
Note_On_42
Note_Velocity_64
Note_Duration_180
Beat_2
Note_On_66
Note_Velocity_72
Note_Duration_300
Beat_3
Note_On_64
Note_Velocity_72
Note_Duration_240
Beat_3
Note_On_54
Note_Velocity_60
Note_Duration_120
Beat_4
Note_On_69
Note_Velocity_76
Note_Duration_420
Beat_5
Note_On_45
Note_Velocity_76
Note_Duration_300
Beat_6
Note_On_62
Note_Velocity_76
Note_Duration_240
Beat_7
Note_On_50
Note_Velocity_76
Note_Duration_300
Beat_8
Chord_A:aug
Beat_8
Note_On_68
Note_Velocity_80
Note_Duration_300
Beat_9
Note_On_62
Note_Velocity_72
Note_Duration_180
Beat_9
Note_On_57
Note_Velocity_72
Note_Duration_60
Beat_10
Note_On_66
Note_Velocity_80
Note_Duration_180
Beat_11
Note_On_37
Note_Velocity_76
Note_Duration_540
Beat_12
Note_On_65
Note_Velocity_76
Note_Duration_300
Beat_14
Note_On_61
Note_Velocity_80
Note_Duration_540
Beat_15
Note_On_44
Note_Velocity_72
Note_Duration_180
Bar_None
Beat_0
Note_On_56
Note_Velocity_68
Note_Duration_180
Beat_1
Note_On_53
Note_Velocity_72
Note_Duration_600
Beat_2
Note_On_62
Note_Velocity_84
Note_Duration_420
Beat_3
Note_On_56
Note_Velocity_72
Note_Duration_120
Beat_4
Note_On_44
Note_Velocity_80
Note_Duration_360
Beat_5
Note_On_61
Note_Velocity_80
Note_Duration_240
Beat_6
Note_On_49
Note_Velocity_80
Note_Duration_480
Beat_7
Note_On_65
Note_Velocity_80
Note_Duration_360
Beat_8
Chord_C#:maj
Beat_9
Note_On_68
Note_Velocity_80
Note_Duration_300
Beat_9
Note_On_56
Note_Velocity_72
Note_Duration_120
Beat_11
Note_On_73
Note_Velocity_84
Note_Duration_240
Beat_14
Note_On_73
Note_Velocity_80
Note_Duration_600
Beat_14
Note_On_65
Note_Velocity_72
Note_Duration_3180
Bar_None
Beat_2
Note_On_68
Note_Velocity_72
Note_Duration_420
Beat_4
Note_On_73
Note_Velocity_72
Note_Duration_240
Beat_7
Note_On_73
Note_Velocity_60
Note_Duration_1200
Beat_8
Chord_F:aug
Beat_12
Note_On_69
Note_Velocity_44
Note_Duration_1260
Bar_None
Beat_3
Note_On_73
Note_Velocity_40
Note_Duration_540
Beat_8
Chord_B:dim
Beat_8
Note_On_73
Note_Velocity_4
Note_Duration_660
Beat_8
Note_On_64
Note_Velocity_32
Note_Duration_2640
Beat_13
Note_On_74
Note_Velocity_40
Note_Duration_540
Beat_15
Note_On_73
Note_Velocity_52
Note_Duration_240
Bar_None
Beat_1
Note_On_71
Note_Velocity_48
Note_Duration_240
Beat_2
Note_On_73
Note_Velocity_56
Note_Duration_420
Beat_4
Note_On_62
Note_Velocity_32
Note_Duration_660
Beat_5
Note_On_76
Note_Velocity_56
Note_Duration_300
Beat_8
Chord_F#:min
Beat_8
Note_On_66
Note_Velocity_44
Note_Duration_300
Beat_9
Note_On_61
Note_Velocity_36
Note_Duration_480
Beat_10
Note_On_69
Note_Velocity_48
Note_Duration_360
Beat_12
Note_On_68
Note_Velocity_40
Note_Duration_1020
Beat_12
Note_On_59
Note_Velocity_28
Note_Duration_480
Bar_None
Beat_0
Note_On_62
Note_Velocity_32
Note_Duration_240
Beat_0
Note_On_54
Note_Velocity_28
Note_Duration_240
Beat_4
Note_On_52
Note_Velocity_36
Note_Duration_540
Beat_5
Note_On_73
Note_Velocity_48
Note_Duration_300
Beat_5
Note_On_61
Note_Velocity_28
Note_Duration_180
Beat_7
Note_On_69
Note_Velocity_52
Note_Duration_240
Beat_8
Chord_D:maj
Beat_8
Note_On_45
Note_Velocity_44
Note_Duration_600
Beat_9
Note_On_71
Note_Velocity_60
Note_Duration_120
Beat_10
Note_On_73
Note_Velocity_64
Note_Duration_300
Beat_11
Note_On_78
Note_Velocity_60
Note_Duration_60
Beat_12
Note_On_40
Note_Velocity_48
Note_Duration_600
Beat_13
Note_On_62
Note_Velocity_48
Note_Duration_1080
Beat_14
Note_On_76
Note_Velocity_56
Note_Duration_900
Bar_None
Beat_0
Chord_F#:min
Beat_0
Note_On_47
Note_Velocity_52
Note_Duration_480
Beat_0
Note_On_66
Note_Velocity_56
Note_Duration_240
Beat_1
Note_On_69
Note_Velocity_52
Note_Duration_240
Beat_3
Note_On_54
Note_Velocity_48
Note_Duration_540
Beat_3
Note_On_68
Note_Velocity_48
Note_Duration_960
Beat_6
Note_On_52
Note_Velocity_56
Note_Duration_480
Beat_9
Note_On_50
Note_Velocity_48
Note_Duration_540
Beat_10
Note_On_66
Note_Velocity_40
Note_Duration_540
Beat_10
Note_On_71
Note_Velocity_60
Note_Duration_360
Beat_13
Note_On_73
Note_Velocity_68
Note_Duration_420
Beat_14
Note_On_56
Note_Velocity_40
Note_Duration_840
Beat_14
Note_On_71
Note_Velocity_68
Note_Duration_180
Bar_None
Beat_0
Chord_B:min
Beat_0
Note_On_70
Note_Velocity_68
Note_Duration_300
Beat_1
Note_On_66
Note_Velocity_40
Note_Duration_60
Beat_1
Note_On_71
Note_Velocity_64
Note_Duration_120
Beat_2
Note_On_66
Note_Velocity_60
Note_Duration_60
Beat_4
Note_On_49
Note_Velocity_32
Note_Duration_360
Beat_5
Note_On_81
Note_Velocity_68
Note_Duration_420
Beat_8
Note_On_71
Note_Velocity_48
Note_Duration_840
Beat_9
Note_On_59
Note_Velocity_40
Note_Duration_480
Beat_11
Note_On_74
Note_Velocity_56
Note_Duration_120
Beat_12
Note_On_66
Note_Velocity_40
Note_Duration_420
Beat_12
Note_On_74
Note_Velocity_60
Note_Duration_240
Beat_14
Note_On_73
Note_Velocity_64
Note_Duration_600
Beat_14
Note_On_57
Note_Velocity_36
Note_Duration_240
Beat_15
Note_On_78
Note_Velocity_68
Note_Duration_420
Bar_None
Beat_0
Chord_D:maj
Beat_1
Note_On_55
Note_Velocity_36
Note_Duration_480
Beat_2
Note_On_71
Note_Velocity_40
Note_Duration_540
Beat_2
Note_On_76
Note_Velocity_60
Note_Duration_300
Beat_4
Note_On_78
Note_Velocity_60
Note_Duration_300
Beat_5
Note_On_61
Note_Velocity_36
Note_Duration_540
Beat_6
Note_On_76
Note_Velocity_60
Note_Duration_180
Beat_7
Note_On_75
Note_Velocity_60
Note_Duration_240
Beat_8
Note_On_71
Note_Velocity_36
Note_Duration_120
Beat_9
Note_On_76
Note_Velocity_60
Note_Duration_120
Beat_10
Note_On_71
Note_Velocity_40
Note_Duration_60
Beat_13
Note_On_86
Note_Velocity_56
Note_Duration_420
Beat_14
Note_On_54
Note_Velocity_24
Note_Duration_300
Bar_None
Beat_0
Chord_G:maj
Beat_1
Note_On_76
Note_Velocity_40
Note_Duration_600
Beat_2
Note_On_64
Note_Velocity_36
Note_Duration_900
Beat_5
Note_On_79
Note_Velocity_60
Note_Duration_60
Beat_6
Note_On_79
Note_Velocity_56
Note_Duration_540
Beat_6
Note_On_71
Note_Velocity_32
Note_Duration_180
Beat_8
Note_On_78
Note_Velocity_64
Note_Duration_300
Beat_9
Note_On_62
Note_Velocity_44
Note_Duration_60
Beat_10
Note_On_83
Note_Velocity_56
Note_Duration_120
Beat_12
Note_On_54
Note_Velocity_32
Note_Duration_420
Beat_13
Note_On_74
Note_Velocity_56
Note_Duration_480
Beat_13
Note_On_62
Note_Velocity_44
Note_Duration_540
Beat_13
Note_On_71
Note_Velocity_44
Note_Duration_540
Beat_15
Note_On_55
Note_Velocity_52
Note_Duration_240
Bar_None
Beat_0
Chord_F#:aug
Beat_1
Note_On_54
Note_Velocity_64
Note_Duration_180
Beat_2
Note_On_53
Note_Velocity_56
Note_Duration_300
Beat_3
Note_On_54
Note_Velocity_52
Note_Duration_480
Beat_5
Note_On_74
Note_Velocity_52
Note_Duration_1740
Beat_5
Note_On_62
Note_Velocity_40
Note_Duration_1620
Beat_5
Note_On_70
Note_Velocity_44
Note_Duration_1680
Beat_7
Note_On_53
Note_Velocity_52
Note_Duration_480
Beat_10
Note_On_55
Note_Velocity_44
Note_Duration_540
Beat_15
Note_On_54
Note_Velocity_32
Note_Duration_3840
Bar_None
Beat_0
Chord_F#:aug
Beat_8
Chord_B:min
Beat_8
Note_On_62
Note_Velocity_28
Note_Duration_420
Beat_9
Note_On_74
Note_Velocity_44
Note_Duration_420
Beat_9
Note_On_71
Note_Velocity_36
Note_Duration_780
Beat_12
Note_On_76
Note_Velocity_56
Note_Duration_240
Beat_13
Note_On_74
Note_Velocity_68
Note_Duration_180
Beat_14
Note_On_73
Note_Velocity_64
Note_Duration_300
Bar_None
Beat_0
Chord_D:dom
Beat_0
Note_On_74
Note_Velocity_64
Note_Duration_300
Beat_1
Note_On_62
Note_Velocity_40
Note_Duration_1680
Beat_2
Note_On_81
Note_Velocity_64
Note_Duration_720
Beat_2
Note_On_72
Note_Velocity_44
Note_Duration_1560
Beat_4
Note_On_73
Note_Velocity_56
Note_Duration_480
Beat_6
Note_On_76
Note_Velocity_48
Note_Duration_660
Beat_10
Note_On_74
Note_Velocity_28
Note_Duration_600
